<svg xmlns="http://www.w3.org/2000/svg" xmlns:xlink="http://www.w3.org/1999/xlink" width="1920" zoomAndPan="magnify" viewBox="0 0 1440 749.999995" height="1000" preserveAspectRatio="xMidYMid meet" version="1.0"><defs><g/><clipPath id="45e0bfb1ad"><path d="M 241 623 L 703 623 L 703 720 L 241 720 Z M 241 623 " clip-rule="nonzero"/></clipPath><clipPath id="d4e7b842d6"><path d="M 181.839844 0.972656 L 799.042969 103.070312 L 692.441406 747.5 L 75.238281 645.402344 Z M 181.839844 0.972656 " clip-rule="nonzero"/></clipPath><clipPath id="7046f70100"><path d="M 799.46875 103.140625 L 182.265625 1.042969 L 75.664062 645.472656 L 692.863281 747.570312 Z M 799.46875 103.140625 " clip-rule="nonzero"/></clipPath><clipPath id="98c84631ad"><path d="M 452 58 L 535 58 L 535 289 L 452 289 Z M 452 58 " clip-rule="nonzero"/></clipPath><clipPath id="b562c3892f"><path d="M 181.839844 0.972656 L 799.042969 103.070312 L 692.441406 747.5 L 75.238281 645.402344 Z M 181.839844 0.972656 " clip-rule="nonzero"/></clipPath><clipPath id="07be61b3bb"><path d="M 799.46875 103.140625 L 182.265625 1.042969 L 75.664062 645.472656 L 692.863281 747.570312 Z M 799.46875 103.140625 " clip-rule="nonzero"/></clipPath><clipPath id="1f56eff862"><path d="M 396 124 L 490 124 L 490 322 L 396 322 Z M 396 124 " clip-rule="nonzero"/></clipPath><clipPath id="7f6d0b9608"><path d="M 181.839844 0.972656 L 799.042969 103.070312 L 692.441406 747.5 L 75.238281 645.402344 Z M 181.839844 0.972656 " clip-rule="nonzero"/></clipPath><clipPath id="fac84aa628"><path d="M 799.46875 103.140625 L 182.265625 1.042969 L 75.664062 645.472656 L 692.863281 747.570312 Z M 799.46875 103.140625 " clip-rule="nonzero"/></clipPath><clipPath id="cf8a41da7c"><path d="M 125 254 L 710 254 L 710 651 L 125 651 Z M 125 254 " clip-rule="nonzero"/></clipPath><clipPath id="d0725b644a"><path d="M 181.839844 0.972656 L 799.042969 103.070312 L 692.441406 747.5 L 75.238281 645.402344 Z M 181.839844 0.972656 " clip-rule="nonzero"/></clipPath><clipPath id="b56c408117"><path d="M 799.46875 103.140625 L 182.265625 1.042969 L 75.664062 645.472656 L 692.863281 747.570312 Z M 799.46875 103.140625 " clip-rule="nonzero"/></clipPath><clipPath id="2339747673"><path d="M 1204 353 L 1263 353 L 1263 431 L 1204 431 Z M 1204 353 " clip-rule="nonzero"/></clipPath><clipPath id="fbec296e2e"><path d="M 1241.34375 334.546875 L 1289.046875 382.25 L 1226.164062 445.136719 L 1178.457031 397.429688 Z M 1241.34375 334.546875 " clip-rule="nonzero"/></clipPath><clipPath id="616ac94569"><path d="M 1241.34375 334.546875 L 1289.046875 382.25 L 1226.164062 445.136719 L 1178.457031 397.429688 Z M 1241.34375 334.546875 " clip-rule="nonzero"/></clipPath><clipPath id="81e3d0f209"><path d="M 1241.34375 334.546875 L 1289.046875 382.25 L 1226.164062 445.136719 L 1178.457031 397.429688 Z M 1241.34375 334.546875 " clip-rule="nonzero"/></clipPath><clipPath id="ccbbd8001c"><path d="M 1204 353 L 1264 353 L 1264 431 L 1204 431 Z M 1204 353 " clip-rule="nonzero"/></clipPath><clipPath id="96a9f22d8d"><path d="M 1241.34375 334.546875 L 1289.046875 382.25 L 1226.164062 445.136719 L 1178.457031 397.429688 Z M 1241.34375 334.546875 " clip-rule="nonzero"/></clipPath><clipPath id="d5424e0ad0"><path d="M 1241.34375 334.546875 L 1289.046875 382.25 L 1226.164062 445.136719 L 1178.457031 397.429688 Z M 1241.34375 334.546875 " clip-rule="nonzero"/></clipPath><clipPath id="fa4957690f"><path d="M 1241.34375 334.546875 L 1289.046875 382.25 L 1226.164062 445.136719 L 1178.457031 397.429688 Z M 1241.34375 334.546875 " clip-rule="nonzero"/></clipPath><clipPath id="2b46147c19"><path d="M 1211 360 L 1226 360 L 1226 426 L 1211 426 Z M 1211 360 " clip-rule="nonzero"/></clipPath><clipPath id="c8930e85c7"><path d="M 1241.34375 334.546875 L 1289.046875 382.25 L 1226.164062 445.136719 L 1178.457031 397.429688 Z M 1241.34375 334.546875 " clip-rule="nonzero"/></clipPath><clipPath id="7aa5095523"><path d="M 1241.34375 334.546875 L 1289.046875 382.25 L 1226.164062 445.136719 L 1178.457031 397.429688 Z M 1241.34375 334.546875 " clip-rule="nonzero"/></clipPath><clipPath id="c337318706"><path d="M 1241.34375 334.546875 L 1289.046875 382.25 L 1226.164062 445.136719 L 1178.457031 397.429688 Z M 1241.34375 334.546875 " clip-rule="nonzero"/></clipPath><clipPath id="b660c132e3"><path d="M 1204 359 L 1226 359 L 1226 427 L 1204 427 Z M 1204 359 " clip-rule="nonzero"/></clipPath><clipPath id="6e165342d1"><path d="M 1241.34375 334.546875 L 1289.046875 382.25 L 1226.164062 445.136719 L 1178.457031 397.429688 Z M 1241.34375 334.546875 " clip-rule="nonzero"/></clipPath><clipPath id="aa7b91344c"><path d="M 1241.34375 334.546875 L 1289.046875 382.25 L 1226.164062 445.136719 L 1178.457031 397.429688 Z M 1241.34375 334.546875 " clip-rule="nonzero"/></clipPath><clipPath id="aa2f5a5b8e"><path d="M 1241.34375 334.546875 L 1289.046875 382.25 L 1226.164062 445.136719 L 1178.457031 397.429688 Z M 1241.34375 334.546875 " clip-rule="nonzero"/></clipPath><clipPath id="983b41ad74"><path d="M 1204 380 L 1210 380 L 1210 410 L 1204 410 Z M 1204 380 " clip-rule="nonzero"/></clipPath><clipPath id="8d11047906"><path d="M 1241.34375 334.546875 L 1289.046875 382.25 L 1226.164062 445.136719 L 1178.457031 397.429688 Z M 1241.34375 334.546875 " clip-rule="nonzero"/></clipPath><clipPath id="1ed7c27105"><path d="M 1241.34375 334.546875 L 1289.046875 382.25 L 1226.164062 445.136719 L 1178.457031 397.429688 Z M 1241.34375 334.546875 " clip-rule="nonzero"/></clipPath><clipPath id="a08f3e6af9"><path d="M 1241.34375 334.546875 L 1289.046875 382.25 L 1226.164062 445.136719 L 1178.457031 397.429688 Z M 1241.34375 334.546875 " clip-rule="nonzero"/></clipPath><clipPath id="23acccc195"><path d="M 1204 374 L 1218 374 L 1218 426 L 1204 426 Z M 1204 374 " clip-rule="nonzero"/></clipPath><clipPath id="442b0a2bab"><path d="M 1241.34375 334.546875 L 1289.046875 382.25 L 1226.164062 445.136719 L 1178.457031 397.429688 Z M 1241.34375 334.546875 " clip-rule="nonzero"/></clipPath><clipPath id="1a1f0e3d1e"><path d="M 1241.34375 334.546875 L 1289.046875 382.25 L 1226.164062 445.136719 L 1178.457031 397.429688 Z M 1241.34375 334.546875 " clip-rule="nonzero"/></clipPath><clipPath id="8447583709"><path d="M 1241.34375 334.546875 L 1289.046875 382.25 L 1226.164062 445.136719 L 1178.457031 397.429688 Z M 1241.34375 334.546875 " clip-rule="nonzero"/></clipPath><clipPath id="f7cdee5245"><path d="M 1204 373 L 1218 373 L 1218 427 L 1204 427 Z M 1204 373 " clip-rule="nonzero"/></clipPath><clipPath id="aa79ccc91c"><path d="M 1241.34375 334.546875 L 1289.046875 382.25 L 1226.164062 445.136719 L 1178.457031 397.429688 Z M 1241.34375 334.546875 " clip-rule="nonzero"/></clipPath><clipPath id="0a5f70f052"><path d="M 1241.34375 334.546875 L 1289.046875 382.25 L 1226.164062 445.136719 L 1178.457031 397.429688 Z M 1241.34375 334.546875 " clip-rule="nonzero"/></clipPath><clipPath id="486a29205d"><path d="M 1241.34375 334.546875 L 1289.046875 382.25 L 1226.164062 445.136719 L 1178.457031 397.429688 Z M 1241.34375 334.546875 " clip-rule="nonzero"/></clipPath><clipPath id="2cb2d0ffc6"><path d="M 1218 360 L 1255 360 L 1255 426 L 1218 426 Z M 1218 360 " clip-rule="nonzero"/></clipPath><clipPath id="edb7e3ae20"><path d="M 1241.34375 334.546875 L 1289.046875 382.25 L 1226.164062 445.136719 L 1178.457031 397.429688 Z M 1241.34375 334.546875 " clip-rule="nonzero"/></clipPath><clipPath id="a3b0e00df9"><path d="M 1241.34375 334.546875 L 1289.046875 382.25 L 1226.164062 445.136719 L 1178.457031 397.429688 Z M 1241.34375 334.546875 " clip-rule="nonzero"/></clipPath><clipPath id="672abce77b"><path d="M 1241.34375 334.546875 L 1289.046875 382.25 L 1226.164062 445.136719 L 1178.457031 397.429688 Z M 1241.34375 334.546875 " clip-rule="nonzero"/></clipPath><clipPath id="fbe98222fd"><path d="M 1253 363 L 1262 363 L 1262 404 L 1253 404 Z M 1253 363 " clip-rule="nonzero"/></clipPath><clipPath id="3b85d4f157"><path d="M 1241.34375 334.546875 L 1289.046875 382.25 L 1226.164062 445.136719 L 1178.457031 397.429688 Z M 1241.34375 334.546875 " clip-rule="nonzero"/></clipPath><clipPath id="01882a2108"><path d="M 1241.34375 334.546875 L 1289.046875 382.25 L 1226.164062 445.136719 L 1178.457031 397.429688 Z M 1241.34375 334.546875 " clip-rule="nonzero"/></clipPath><clipPath id="b36c560aad"><path d="M 1241.34375 334.546875 L 1289.046875 382.25 L 1226.164062 445.136719 L 1178.457031 397.429688 Z M 1241.34375 334.546875 " clip-rule="nonzero"/></clipPath><clipPath id="944cb0d3ab"><path d="M 1218 361 L 1251 361 L 1251 426 L 1218 426 Z M 1218 361 " clip-rule="nonzero"/></clipPath><clipPath id="1565b58398"><path d="M 1241.34375 334.546875 L 1289.046875 382.25 L 1226.164062 445.136719 L 1178.457031 397.429688 Z M 1241.34375 334.546875 " clip-rule="nonzero"/></clipPath><clipPath id="99c229aa20"><path d="M 1241.34375 334.546875 L 1289.046875 382.25 L 1226.164062 445.136719 L 1178.457031 397.429688 Z M 1241.34375 334.546875 " clip-rule="nonzero"/></clipPath><clipPath id="e88f488012"><path d="M 1241.34375 334.546875 L 1289.046875 382.25 L 1226.164062 445.136719 L 1178.457031 397.429688 Z M 1241.34375 334.546875 " clip-rule="nonzero"/></clipPath><clipPath id="cec3c31191"><path d="M 1226 365 L 1257 365 L 1257 429 L 1226 429 Z M 1226 365 " clip-rule="nonzero"/></clipPath><clipPath id="08abedcea1"><path d="M 1241.34375 334.546875 L 1289.046875 382.25 L 1226.164062 445.136719 L 1178.457031 397.429688 Z M 1241.34375 334.546875 " clip-rule="nonzero"/></clipPath><clipPath id="14b1fe0591"><path d="M 1241.34375 334.546875 L 1289.046875 382.25 L 1226.164062 445.136719 L 1178.457031 397.429688 Z M 1241.34375 334.546875 " clip-rule="nonzero"/></clipPath><clipPath id="97daddc6df"><path d="M 1241.34375 334.546875 L 1289.046875 382.25 L 1226.164062 445.136719 L 1178.457031 397.429688 Z M 1241.34375 334.546875 " clip-rule="nonzero"/></clipPath><clipPath id="6930a31739"><path d="M 1220 357 L 1250 357 L 1250 414 L 1220 414 Z M 1220 357 " clip-rule="nonzero"/></clipPath><clipPath id="a4ab698810"><path d="M 1241.34375 334.546875 L 1289.046875 382.25 L 1226.164062 445.136719 L 1178.457031 397.429688 Z M 1241.34375 334.546875 " clip-rule="nonzero"/></clipPath><clipPath id="6aa6d21cb1"><path d="M 1241.34375 334.546875 L 1289.046875 382.25 L 1226.164062 445.136719 L 1178.457031 397.429688 Z M 1241.34375 334.546875 " clip-rule="nonzero"/></clipPath><clipPath id="fd36e74543"><path d="M 1241.34375 334.546875 L 1289.046875 382.25 L 1226.164062 445.136719 L 1178.457031 397.429688 Z M 1241.34375 334.546875 " clip-rule="nonzero"/></clipPath><clipPath id="838447ddaf"><path d="M 453 54 L 537 54 L 537 292 L 453 292 Z M 453 54 " clip-rule="nonzero"/></clipPath><clipPath id="392a57f1f0"><path d="M 401.296875 31.488281 L 673.214844 78.75 L 623.847656 362.753906 L 351.929688 315.492188 Z M 401.296875 31.488281 " clip-rule="nonzero"/></clipPath><clipPath id="f57ec681e0"><path d="M 810.566406 102.625 L 176.089844 -7.65625 L 60.554688 657.03125 L 695.03125 767.316406 Z M 810.566406 102.625 " clip-rule="nonzero"/></clipPath><clipPath id="c4d8946956"><path d="M 395 122 L 491 122 L 491 325 L 395 325 Z M 395 122 " clip-rule="nonzero"/></clipPath><clipPath id="5a434a4bac"><path d="M 401.296875 31.488281 L 673.214844 78.75 L 623.847656 362.753906 L 351.929688 315.492188 Z M 401.296875 31.488281 " clip-rule="nonzero"/></clipPath><clipPath id="83f789ecde"><path d="M 810.566406 102.625 L 176.089844 -7.65625 L 60.554688 657.03125 L 695.03125 767.316406 Z M 810.566406 102.625 " clip-rule="nonzero"/></clipPath><clipPath id="82bc8c05c9"><path d="M 351 254 L 674 254 L 674 363 L 351 363 Z M 351 254 " clip-rule="nonzero"/></clipPath><clipPath id="aa2fda53c6"><path d="M 401.296875 31.488281 L 673.214844 78.75 L 623.847656 362.753906 L 351.929688 315.492188 Z M 401.296875 31.488281 " clip-rule="nonzero"/></clipPath><clipPath id="84fad2e8b2"><path d="M 810.566406 102.625 L 176.089844 -7.65625 L 60.554688 657.03125 L 695.03125 767.316406 Z M 810.566406 102.625 " clip-rule="nonzero"/></clipPath></defs><g clip-path="url(#45e0bfb1ad)"><g clip-path="url(#d4e7b842d6)"><g clip-path="url(#7046f70100)"><path fill="#ffae82" d="M 242.273438 656.378906 C 280.898438 667.933594 326.40625 678.429688 375.503906 686.550781 C 522.171875 710.8125 645.320312 704.746094 650.574219 672.988281 C 653.027344 658.160156 629.335938 640.359375 588.457031 623.121094 C 659.839844 645.449219 705.257812 671.257812 701.910156 691.507812 C 696.65625 723.257812 573.503906 729.328125 426.839844 705.066406 C 353.574219 692.949219 288.304688 675.546875 241.984375 657.21875 C 241.453125 657.011719 241.726562 656.210938 242.273438 656.378906 " fill-opacity="1" fill-rule="nonzero"/></g></g></g><g clip-path="url(#98c84631ad)"><g clip-path="url(#b562c3892f)"><g clip-path="url(#07be61b3bb)"><path fill="#ffae82" d="M 497.101562 288.910156 C 502.085938 283.945312 506.136719 271.777344 507.328125 266.226562 C 514.316406 233.546875 498.402344 201.296875 481.359375 174.523438 C 465.058594 148.914062 439.304688 109.371094 460.9375 79.726562 C 470.210938 67.011719 486.425781 61.628906 501.363281 59.335938 C 509.625 58.074219 527.355469 58.15625 527.355469 58.15625 C 527.277344 58.171875 484.320312 68.160156 519.71875 152.183594 C 562.464844 253.636719 497.125 288.898438 497.101562 288.910156 " fill-opacity="1" fill-rule="nonzero"/></g></g></g><g clip-path="url(#1f56eff862)"><g clip-path="url(#7f6d0b9608)"><g clip-path="url(#fac84aa628)"><path fill="#995941" d="M 462.484375 204.0625 C 518.371094 279.15625 471.578125 321.519531 471.558594 321.535156 C 474.667969 316.425781 475.546875 305.558594 475.398438 300.734375 C 474.539062 272.332031 454.855469 248.9375 435.347656 230.285156 C 416.6875 212.449219 387.402344 185.03125 399.25 156.164062 C 404.328125 143.785156 416.621094 136.054688 428.488281 131.128906 C 435.054688 128.398438 449.710938 124.878906 449.710938 124.878906 C 449.644531 124.902344 416.207031 141.875 462.484375 204.0625 " fill-opacity="1" fill-rule="nonzero"/></g></g></g><g clip-path="url(#cf8a41da7c)"><g clip-path="url(#d0725b644a)"><g clip-path="url(#b56c408117)"><path fill="#ffae82" d="M 200.738281 407.847656 C 211.757812 409.671875 222.558594 408.292969 232.21875 404.402344 C 230.160156 380.410156 231.019531 355.671875 235.15625 330.660156 C 236.871094 320.285156 239.132812 310.160156 241.84375 300.257812 C 235.367188 296.144531 227.976562 293.226562 219.917969 291.890625 C 187.902344 286.597656 157.652344 308.257812 152.355469 340.277344 C 147.058594 372.300781 168.71875 402.554688 200.738281 407.847656 Z M 224.171875 266.183594 C 235.472656 268.054688 245.859375 272.085938 255.023438 277.769531 C 273.210938 264.03125 311.136719 255.582031 359.808594 254.425781 C 360.058594 254.414062 360.074219 254.785156 359.828125 254.8125 C 315.039062 259.394531 285.636719 271.402344 282.628906 289.578125 C 276.769531 325.015625 373.371094 370.511719 498.402344 391.195312 C 588.886719 406.164062 669.453125 404.035156 709.289062 388.28125 C 709.503906 388.195312 709.660156 388.480469 709.476562 388.613281 C 676.890625 412.574219 581.074219 418.273438 471.4375 400.136719 C 398.351562 388.046875 334.5 367.90625 293.191406 345.988281 C 279.554688 488.996094 363.914062 615.949219 498.8125 638.265625 C 517.140625 641.296875 535.355469 642.1875 553.238281 641.128906 C 519.191406 650.78125 482.90625 653.28125 446.171875 647.203125 C 336.664062 629.089844 255.359375 540.195312 235.714844 430.804688 C 223.421875 434.671875 210.070312 435.804688 196.484375 433.554688 C 150.273438 425.910156 119 382.246094 126.648438 336.023438 C 134.292969 289.8125 177.960938 258.539062 224.171875 266.183594 " fill-opacity="1" fill-rule="nonzero"/></g></g></g><g fill="#ffae82" fill-opacity="1"><g transform="translate(443.108184, 553.672622)"><g><path d="M 46.890625 -105.96875 L 46.890625 -55.5625 C 46.890625 -45.09375 48.472656 -37.65625 51.640625 -33.25 C 54.804688 -28.84375 60.175781 -26.640625 67.75 -26.640625 C 75.320312 -26.640625 80.691406 -28.84375 83.859375 -33.25 C 87.023438 -37.65625 88.609375 -45.09375 88.609375 -55.5625 L 88.609375 -105.96875 L 125.171875 -105.96875 L 125.171875 -46.6875 C 125.171875 -29.0625 120.59375 -16.359375 111.4375 -8.578125 C 102.28125 -0.796875 87.71875 3.09375 67.75 3.09375 C 47.78125 3.09375 33.21875 -0.796875 24.0625 -8.578125 C 14.90625 -16.359375 10.328125 -29.0625 10.328125 -46.6875 L 10.328125 -105.96875 Z M 46.890625 -105.96875 "/></g></g></g><g fill="#ffae82" fill-opacity="1"><g transform="translate(561.056398, 553.672622)"><g><path d="M 121.453125 -92.84375 C 131.367188 -82.039062 136.328125 -68.785156 136.328125 -53.078125 C 136.328125 -37.378906 131.367188 -24.09375 121.453125 -13.21875 C 111.546875 -2.34375 98.945312 3.09375 83.65625 3.09375 C 69.613281 3.09375 58.046875 -1.3125 48.953125 -10.125 L 48.953125 53.703125 L 12.390625 53.703125 L 12.390625 -105.96875 L 48.546875 -105.96875 L 48.546875 -93.984375 L 48.953125 -93.984375 C 58.046875 -104.035156 69.613281 -109.0625 83.65625 -109.0625 C 98.945312 -109.0625 111.546875 -103.65625 121.453125 -92.84375 Z M 90.375 -35.109375 C 95.125 -39.796875 97.5 -45.785156 97.5 -53.078125 C 97.5 -60.378906 95.222656 -66.335938 90.671875 -70.953125 C 86.128906 -75.566406 80.140625 -77.875 72.703125 -77.875 C 65.546875 -77.875 59.660156 -75.53125 55.046875 -70.84375 C 50.429688 -66.164062 48.125 -60.25 48.125 -53.09375 C 48.125 -45.789062 50.5 -39.796875 55.25 -35.109375 C 60 -30.429688 65.816406 -28.09375 72.703125 -28.09375 C 79.734375 -28.09375 85.625 -30.429688 90.375 -35.109375 Z M 90.375 -35.109375 "/></g></g></g><g fill="#322f30" fill-opacity="1"><g transform="translate(684.604241, 553.672622)"><g/></g></g><g fill="#322f30" fill-opacity="1"><g transform="translate(723.437808, 553.672622)"><g><path d="M 22.40625 -12.59375 C 10.632812 -23.0625 4.75 -36.488281 4.75 -52.875 C 4.75 -69.269531 10.875 -82.734375 23.125 -93.265625 C 35.382812 -103.796875 50.535156 -109.0625 68.578125 -109.0625 C 86.335938 -109.0625 101.3125 -103.757812 113.5 -93.15625 C 125.6875 -82.550781 131.78125 -69.125 131.78125 -52.875 C 131.78125 -36.625 125.820312 -23.234375 113.90625 -12.703125 C 102 -2.171875 86.890625 3.09375 68.578125 3.09375 C 49.578125 3.09375 34.1875 -2.132812 22.40625 -12.59375 Z M 50.703125 -70.84375 C 45.953125 -66.164062 43.578125 -60.175781 43.578125 -52.875 C 43.578125 -45.582031 45.847656 -39.628906 50.390625 -35.015625 C 54.941406 -30.398438 60.9375 -28.09375 68.375 -28.09375 C 75.53125 -28.09375 81.414062 -30.429688 86.03125 -35.109375 C 90.644531 -39.796875 92.953125 -45.71875 92.953125 -52.875 C 92.953125 -60.175781 90.578125 -66.164062 85.828125 -70.84375 C 81.078125 -75.53125 75.257812 -77.875 68.375 -77.875 C 61.351562 -77.875 55.460938 -75.53125 50.703125 -70.84375 Z M 50.703125 -70.84375 "/></g></g></g><g fill="#322f30" fill-opacity="1"><g transform="translate(842.418834, 553.672622)"><g><path d="M 18.59375 -105.96875 L 18.59375 -128.484375 C 18.726562 -144.316406 22.441406 -156.984375 29.734375 -166.484375 C 37.035156 -175.992188 47.160156 -180.75 60.109375 -180.75 C 65.617188 -180.75 70.882812 -179.953125 75.90625 -178.359375 C 80.9375 -176.773438 84.550781 -175.160156 86.75 -173.515625 L 90.265625 -171.234375 L 77.46875 -145.421875 C 74.15625 -147.347656 70.503906 -148.3125 66.515625 -148.3125 C 61.972656 -148.3125 58.941406 -146.757812 57.421875 -143.65625 C 55.910156 -140.5625 55.15625 -135.160156 55.15625 -127.453125 L 55.15625 -105.96875 L 79.53125 -105.96875 L 79.53125 -78.078125 L 55.15625 -78.078125 L 55.15625 0 L 18.59375 0 L 18.59375 -78.078125 L 3.3125 -78.078125 L 3.3125 -105.96875 Z M 18.59375 -105.96875 "/></g></g></g><g fill="#322f30" fill-opacity="1"><g transform="translate(902.322089, 553.672622)"><g/></g></g><g fill="#322f30" fill-opacity="1"><g transform="translate(941.155667, 553.672622)"><g><path d="M 103.078125 -35.109375 C 108.992188 -35.109375 114.738281 -36.003906 120.3125 -37.796875 C 125.894531 -39.585938 129.992188 -41.3125 132.609375 -42.96875 L 136.53125 -45.65625 L 153.0625 -12.59375 C 152.507812 -12.1875 151.75 -11.640625 150.78125 -10.953125 C 149.820312 -10.265625 147.585938 -8.988281 144.078125 -7.125 C 140.566406 -5.269531 136.8125 -3.648438 132.8125 -2.265625 C 128.820312 -0.890625 123.585938 0.34375 117.109375 1.4375 C 110.640625 2.539062 103.960938 3.09375 97.078125 3.09375 C 81.242188 3.09375 66.234375 -0.796875 52.046875 -8.578125 C 37.867188 -16.359375 26.441406 -27.0625 17.765625 -40.6875 C 9.085938 -54.320312 4.75 -69.054688 4.75 -84.890625 C 4.75 -96.878906 7.296875 -108.378906 12.390625 -119.390625 C 17.484375 -130.410156 24.265625 -139.84375 32.734375 -147.6875 C 41.203125 -155.539062 51.082031 -161.804688 62.375 -166.484375 C 73.664062 -171.171875 85.234375 -173.515625 97.078125 -173.515625 C 108.097656 -173.515625 118.253906 -172.203125 127.546875 -169.578125 C 136.847656 -166.960938 143.425781 -164.347656 147.28125 -161.734375 L 153.0625 -157.8125 L 136.53125 -124.765625 C 135.570312 -125.585938 134.128906 -126.582031 132.203125 -127.75 C 130.273438 -128.925781 126.414062 -130.476562 120.625 -132.40625 C 114.84375 -134.332031 108.992188 -135.296875 103.078125 -135.296875 C 93.710938 -135.296875 85.3125 -133.78125 77.875 -130.75 C 70.4375 -127.71875 64.546875 -123.722656 60.203125 -118.765625 C 55.867188 -113.816406 52.566406 -108.484375 50.296875 -102.765625 C 48.023438 -97.046875 46.890625 -91.226562 46.890625 -85.3125 C 46.890625 -72.363281 51.742188 -60.757812 61.453125 -50.5 C 71.160156 -40.238281 85.035156 -35.109375 103.078125 -35.109375 Z M 103.078125 -35.109375 "/></g></g></g><g fill="#322f30" fill-opacity="1"><g transform="translate(1079.140734, 553.672622)"><g><path d="M 12.390625 0 L 12.390625 -177.640625 L 48.953125 -177.640625 L 48.953125 -94.8125 L 49.375 -94.8125 C 58.875 -104.3125 68.992188 -109.0625 79.734375 -109.0625 C 84.960938 -109.0625 90.160156 -108.375 95.328125 -107 C 100.492188 -105.625 105.453125 -103.488281 110.203125 -100.59375 C 114.953125 -97.707031 118.804688 -93.613281 121.765625 -88.3125 C 124.722656 -83.007812 126.203125 -76.84375 126.203125 -69.8125 L 126.203125 0 L 89.640625 0 L 89.640625 -59.90625 C 89.640625 -65.414062 87.882812 -70.234375 84.375 -74.359375 C 80.863281 -78.492188 76.285156 -80.5625 70.640625 -80.5625 C 65.128906 -80.5625 60.132812 -78.425781 55.65625 -74.15625 C 51.1875 -69.882812 48.953125 -65.132812 48.953125 -59.90625 L 48.953125 0 Z M 12.390625 0 "/></g></g></g><g fill="#322f30" fill-opacity="1"><g transform="translate(1198.121772, 553.672622)"><g><path d="M 15.90625 -165.046875 C 20.175781 -169.316406 25.269531 -171.453125 31.1875 -171.453125 C 37.113281 -171.453125 42.207031 -169.316406 46.46875 -165.046875 C 50.738281 -160.773438 52.875 -155.675781 52.875 -149.75 C 52.875 -143.832031 50.738281 -138.738281 46.46875 -134.46875 C 42.207031 -130.195312 37.113281 -128.0625 31.1875 -128.0625 C 25.269531 -128.0625 20.175781 -130.195312 15.90625 -134.46875 C 11.632812 -138.738281 9.5 -143.832031 9.5 -149.75 C 9.5 -155.675781 11.632812 -160.773438 15.90625 -165.046875 Z M 12.390625 -105.96875 L 12.390625 0 L 48.953125 0 L 48.953125 -105.96875 Z M 12.390625 -105.96875 "/></g></g></g><g fill="#322f30" fill-opacity="1"><g transform="translate(1242.968058, 553.672622)"><g/></g></g><g clip-path="url(#2339747673)"><g clip-path="url(#fbec296e2e)"><g clip-path="url(#616ac94569)"><g clip-path="url(#81e3d0f209)"><path fill="#6f4323" d="M 1257.609375 404.28125 C 1248.613281 422.574219 1228.339844 438.828125 1218.699219 426.027344 C 1208.589844 427.546875 1197.511719 407.808594 1209.605469 381.191406 C 1221.90625 354.109375 1244.136719 347.703125 1251.289062 359.777344 C 1263.933594 357.128906 1266.609375 385.984375 1257.609375 404.28125 " fill-opacity="1" fill-rule="nonzero"/></g></g></g></g><g clip-path="url(#ccbbd8001c)"><g clip-path="url(#96a9f22d8d)"><g clip-path="url(#d5424e0ad0)"><g clip-path="url(#fa4957690f)"><path fill="#29242c" d="M 1257.574219 404.261719 C 1258.503906 402.34375 1259.304688 400.359375 1259.960938 398.328125 C 1260.285156 397.3125 1260.589844 396.289062 1260.855469 395.253906 C 1261.121094 394.21875 1261.359375 393.175781 1261.566406 392.128906 C 1261.96875 390.03125 1262.273438 387.910156 1262.457031 385.78125 C 1262.644531 383.652344 1262.710938 381.511719 1262.65625 379.375 C 1262.605469 377.238281 1262.410156 375.105469 1262.074219 372.996094 C 1261.734375 370.894531 1261.230469 368.808594 1260.457031 366.832031 C 1260.070312 365.84375 1259.605469 364.890625 1259.046875 364.003906 C 1258.492188 363.113281 1257.828125 362.292969 1257.054688 361.617188 C 1256.660156 361.285156 1256.238281 360.992188 1255.796875 360.75 C 1255.347656 360.507812 1254.871094 360.332031 1254.386719 360.207031 C 1253.898438 360.074219 1253.394531 360.035156 1252.890625 360.027344 C 1252.382812 360.019531 1251.878906 360.09375 1251.378906 360.1875 L 1251.082031 360.242188 L 1250.929688 359.988281 C 1250.355469 359.042969 1249.671875 358.160156 1248.863281 357.410156 C 1248.0625 356.65625 1247.136719 356.035156 1246.148438 355.554688 C 1244.160156 354.589844 1241.90625 354.265625 1239.699219 354.378906 C 1237.484375 354.5 1235.300781 355.054688 1233.234375 355.875 C 1231.164062 356.703125 1229.199219 357.792969 1227.355469 359.054688 C 1225.515625 360.324219 1223.789062 361.757812 1222.179688 363.3125 C 1221.371094 364.09375 1220.59375 364.898438 1219.839844 365.730469 C 1219.09375 366.566406 1218.371094 367.425781 1217.671875 368.300781 C 1216.285156 370.070312 1214.996094 371.914062 1213.808594 373.824219 C 1212.617188 375.730469 1211.535156 377.710938 1210.535156 379.726562 C 1209.53125 381.753906 1208.644531 383.820312 1207.847656 385.933594 C 1207.054688 388.046875 1206.378906 390.207031 1205.851562 392.402344 C 1205.316406 394.601562 1204.917969 396.832031 1204.679688 399.085938 C 1204.4375 401.335938 1204.394531 403.609375 1204.519531 405.875 C 1204.65625 408.136719 1204.976562 410.394531 1205.554688 412.589844 C 1206.136719 414.78125 1206.957031 416.917969 1208.082031 418.886719 C 1209.207031 420.84375 1210.644531 422.65625 1212.453125 423.972656 C 1213.359375 424.628906 1214.355469 425.152344 1215.410156 425.464844 C 1216.464844 425.769531 1217.574219 425.859375 1218.644531 425.699219 L 1218.84375 425.667969 L 1218.964844 425.828125 C 1219.617188 426.679688 1220.359375 427.453125 1221.195312 428.105469 C 1222.023438 428.761719 1222.960938 429.273438 1223.949219 429.636719 C 1224.9375 429.996094 1225.984375 430.1875 1227.035156 430.234375 C 1228.089844 430.277344 1229.152344 430.1875 1230.191406 429.984375 C 1231.230469 429.777344 1232.253906 429.46875 1233.25 429.097656 C 1234.246094 428.722656 1235.21875 428.273438 1236.160156 427.773438 C 1238.046875 426.765625 1239.839844 425.574219 1241.527344 424.253906 C 1243.222656 422.933594 1244.820312 421.496094 1246.335938 419.96875 C 1247.847656 418.4375 1249.285156 416.832031 1250.628906 415.148438 C 1251.300781 414.308594 1251.953125 413.449219 1252.582031 412.574219 C 1253.207031 411.695312 1253.8125 410.800781 1254.394531 409.894531 C 1255.558594 408.078125 1256.613281 406.195312 1257.574219 404.261719 M 1257.644531 404.296875 C 1256.691406 406.234375 1255.632812 408.125 1254.484375 409.953125 C 1253.910156 410.871094 1253.316406 411.769531 1252.699219 412.65625 C 1252.082031 413.542969 1251.445312 414.414062 1250.789062 415.273438 C 1249.476562 416.992188 1248.070312 418.636719 1246.585938 420.207031 C 1245.09375 421.777344 1243.515625 423.261719 1241.835938 424.636719 C 1240.15625 426.003906 1238.375 427.269531 1236.464844 428.320312 C 1234.550781 429.367188 1232.507812 430.222656 1230.335938 430.664062 C 1229.25 430.882812 1228.136719 430.984375 1227.015625 430.945312 C 1225.898438 430.898438 1224.777344 430.6875 1223.714844 430.304688 C 1222.65625 429.910156 1221.648438 429.359375 1220.765625 428.652344 C 1219.882812 427.949219 1219.105469 427.125 1218.433594 426.226562 L 1218.753906 426.359375 C 1217.578125 426.53125 1216.367188 426.417969 1215.238281 426.066406 C 1214.105469 425.710938 1213.058594 425.136719 1212.121094 424.429688 C 1210.242188 423.015625 1208.804688 421.121094 1207.683594 419.105469 C 1206.574219 417.074219 1205.78125 414.894531 1205.230469 412.667969 C 1204.679688 410.441406 1204.359375 408.164062 1204.246094 405.882812 C 1204.125 403.605469 1204.207031 401.320312 1204.4375 399.054688 C 1204.664062 396.789062 1205.054688 394.546875 1205.578125 392.335938 C 1205.84375 391.230469 1206.136719 390.132812 1206.464844 389.046875 C 1206.785156 387.957031 1207.144531 386.878906 1207.523438 385.8125 C 1208.292969 383.679688 1209.164062 381.574219 1210.136719 379.535156 C 1211.113281 377.480469 1212.167969 375.472656 1213.339844 373.53125 C 1214.503906 371.582031 1215.785156 369.707031 1217.167969 367.90625 C 1217.867188 367.011719 1218.585938 366.132812 1219.335938 365.277344 C 1220.089844 364.429688 1220.871094 363.601562 1221.679688 362.800781 C 1223.300781 361.210938 1225.050781 359.738281 1226.921875 358.433594 C 1228.796875 357.132812 1230.800781 356.003906 1232.925781 355.136719 C 1235.054688 354.277344 1237.316406 353.6875 1239.640625 353.542969 C 1241.957031 353.410156 1244.363281 353.757812 1246.507812 354.789062 C 1247.574219 355.308594 1248.574219 355.980469 1249.4375 356.792969 C 1250.316406 357.601562 1251.039062 358.558594 1251.648438 359.566406 L 1251.195312 359.367188 C 1251.75 359.265625 1252.308594 359.1875 1252.878906 359.195312 C 1253.445312 359.207031 1254.019531 359.257812 1254.574219 359.40625 C 1255.128906 359.554688 1255.667969 359.761719 1256.171875 360.035156 C 1256.675781 360.3125 1257.144531 360.640625 1257.574219 361.011719 C 1258.425781 361.761719 1259.136719 362.644531 1259.710938 363.597656 C 1260.289062 364.546875 1260.757812 365.546875 1261.144531 366.574219 C 1261.917969 368.628906 1262.398438 370.765625 1262.714844 372.910156 C 1262.871094 373.980469 1262.976562 375.058594 1263.050781 376.136719 C 1263.121094 377.214844 1263.15625 378.296875 1263.160156 379.375 C 1263.160156 381.53125 1263.039062 383.683594 1262.804688 385.820312 C 1262.574219 387.957031 1262.222656 390.078125 1261.773438 392.171875 C 1261.539062 393.21875 1261.285156 394.261719 1261.007812 395.292969 C 1260.726562 396.328125 1260.410156 397.351562 1260.070312 398.367188 C 1259.730469 399.378906 1259.363281 400.386719 1258.957031 401.375 C 1258.554688 402.363281 1258.117188 403.339844 1257.644531 404.296875 " fill-opacity="1" fill-rule="nonzero"/></g></g></g></g><g clip-path="url(#2b46147c19)"><g clip-path="url(#c8930e85c7)"><g clip-path="url(#7aa5095523)"><g clip-path="url(#c337318706)"><path fill="#663920" d="M 1217.230469 425.769531 C 1207.984375 406.453125 1211.496094 386.648438 1212.644531 379.097656 C 1212.898438 377.414062 1213.238281 375.746094 1213.644531 374.089844 C 1213.699219 374 1213.753906 373.914062 1213.808594 373.824219 C 1214.996094 371.914062 1216.285156 370.070312 1217.671875 368.300781 C 1218.371094 367.425781 1219.09375 366.566406 1219.839844 365.730469 C 1220.59375 364.898438 1221.371094 364.09375 1222.179688 363.3125 C 1223.242188 362.285156 1224.359375 361.308594 1225.523438 360.398438 C 1222.984375 365.078125 1221.273438 370.199219 1219.941406 375.429688 C 1217.894531 383.472656 1216.550781 392.148438 1217.804688 400.453125 C 1218.4375 404.636719 1219.738281 408.71875 1220.867188 412.789062 C 1222.238281 417.722656 1223.203125 422.941406 1218.167969 425.753906 C 1217.855469 425.777344 1217.542969 425.785156 1217.230469 425.769531 " fill-opacity="1" fill-rule="nonzero"/></g></g></g></g><g clip-path="url(#b660c132e3)"><g clip-path="url(#6e165342d1)"><g clip-path="url(#aa7b91344c)"><g clip-path="url(#aa2f5a5b8e)"><path fill="#261f26" d="M 1210.796875 422.90625 C 1207.980469 420.089844 1205.722656 415.527344 1204.785156 409.679688 C 1205.722656 415.523438 1207.980469 420.082031 1210.792969 422.894531 C 1212.800781 424.902344 1215.089844 426.023438 1217.386719 426.089844 C 1217.332031 425.984375 1217.28125 425.875 1217.230469 425.769531 C 1217.542969 425.785156 1217.855469 425.777344 1218.167969 425.753906 C 1218.046875 425.820312 1217.921875 425.886719 1217.796875 425.949219 C 1217.707031 425.996094 1217.628906 426.046875 1217.558594 426.101562 C 1215.207031 426.085938 1212.851562 424.960938 1210.796875 422.90625 M 1209.867188 380.617188 C 1214.355469 370.949219 1220.117188 363.984375 1225.972656 359.59375 C 1225.816406 359.863281 1225.667969 360.128906 1225.523438 360.398438 C 1224.359375 361.308594 1223.242188 362.285156 1222.179688 363.3125 C 1221.371094 364.09375 1220.59375 364.898438 1219.839844 365.730469 C 1219.09375 366.566406 1218.371094 367.425781 1217.671875 368.300781 C 1216.285156 370.070312 1214.996094 371.914062 1213.808594 373.824219 C 1213.753906 373.914062 1213.699219 374 1213.644531 374.089844 C 1213.714844 373.800781 1213.785156 373.511719 1213.863281 373.21875 C 1212.449219 375.484375 1211.109375 377.941406 1209.867188 380.617188 " fill-opacity="1" fill-rule="nonzero"/></g></g></g></g><g clip-path="url(#983b41ad74)"><g clip-path="url(#8d11047906)"><g clip-path="url(#1ed7c27105)"><g clip-path="url(#a08f3e6af9)"><path fill="#261f26" d="M 1204.785156 409.679688 C 1203.5625 402.042969 1204.597656 392.207031 1209.605469 381.191406 C 1209.691406 381 1209.777344 380.804688 1209.867188 380.617188 C 1209.777344 380.808594 1209.691406 381 1209.605469 381.191406 C 1204.601562 392.207031 1203.5625 402.042969 1204.785156 409.679688 " fill-opacity="1" fill-rule="nonzero"/></g></g></g></g><g clip-path="url(#23acccc195)"><g clip-path="url(#442b0a2bab)"><g clip-path="url(#1a1f0e3d1e)"><g clip-path="url(#8447583709)"><path fill="#5e301c" d="M 1210.898438 422.636719 C 1209.796875 421.535156 1208.863281 420.246094 1208.082031 418.886719 C 1206.957031 416.917969 1206.136719 414.78125 1205.554688 412.589844 C 1204.976562 410.394531 1204.65625 408.136719 1204.519531 405.875 C 1204.394531 403.609375 1204.4375 401.335938 1204.679688 399.085938 C 1204.917969 396.832031 1205.316406 394.601562 1205.851562 392.402344 C 1206.378906 390.207031 1207.054688 388.046875 1207.847656 385.933594 C 1208.644531 383.820312 1209.53125 381.753906 1210.535156 379.726562 C 1211.488281 377.804688 1212.515625 375.914062 1213.644531 374.089844 C 1213.238281 375.746094 1212.898438 377.414062 1212.644531 379.097656 C 1211.496094 386.648438 1207.984375 406.453125 1217.230469 425.769531 C 1216.617188 425.742188 1216.003906 425.636719 1215.410156 425.464844 C 1214.355469 425.152344 1213.359375 424.628906 1212.453125 423.972656 C 1211.902344 423.570312 1211.382812 423.121094 1210.898438 422.636719 " fill-opacity="1" fill-rule="nonzero"/></g></g></g></g><g clip-path="url(#f7cdee5245)"><g clip-path="url(#aa79ccc91c)"><g clip-path="url(#0a5f70f052)"><g clip-path="url(#486a29205d)"><path fill="#241b20" d="M 1210.792969 422.894531 C 1207.980469 420.082031 1205.722656 415.523438 1204.785156 409.679688 C 1203.5625 402.042969 1204.601562 392.207031 1209.605469 381.191406 C 1209.691406 381 1209.777344 380.808594 1209.867188 380.617188 C 1211.109375 377.941406 1212.449219 375.484375 1213.863281 373.21875 C 1213.785156 373.511719 1213.714844 373.800781 1213.644531 374.089844 C 1212.515625 375.914062 1211.488281 377.804688 1210.535156 379.726562 C 1209.53125 381.753906 1208.644531 383.820312 1207.847656 385.933594 C 1207.054688 388.046875 1206.378906 390.207031 1205.851562 392.402344 C 1205.316406 394.601562 1204.917969 396.832031 1204.679688 399.085938 C 1204.4375 401.335938 1204.394531 403.609375 1204.519531 405.875 C 1204.65625 408.136719 1204.976562 410.394531 1205.554688 412.589844 C 1206.136719 414.78125 1206.957031 416.917969 1208.082031 418.886719 C 1208.863281 420.246094 1209.796875 421.535156 1210.898438 422.636719 C 1211.382812 423.121094 1211.902344 423.570312 1212.453125 423.972656 C 1213.359375 424.628906 1214.355469 425.152344 1215.410156 425.464844 C 1216.003906 425.636719 1216.617188 425.742188 1217.230469 425.769531 C 1217.28125 425.875 1217.332031 425.984375 1217.386719 426.089844 C 1215.089844 426.023438 1212.800781 424.902344 1210.792969 422.894531 " fill-opacity="1" fill-rule="nonzero"/></g></g></g></g><g clip-path="url(#2cb2d0ffc6)"><g clip-path="url(#edb7e3ae20)"><g clip-path="url(#a3b0e00df9)"><g clip-path="url(#672abce77b)"><path fill="#542a19" d="M 1218.980469 425.46875 C 1218.980469 425.46875 1228.011719 418.246094 1228.757812 416.769531 C 1228.945312 416.402344 1229.136719 416.027344 1229.332031 415.644531 C 1229.511719 415.253906 1229.695312 414.855469 1229.878906 414.449219 C 1230.277344 413.660156 1230.597656 412.78125 1230.972656 411.917969 C 1231.695312 410.167969 1232.367188 408.28125 1233.027344 406.316406 C 1233.671875 404.339844 1234.300781 402.285156 1234.871094 400.164062 C 1235.457031 398.035156 1236.007812 395.90625 1236.539062 393.679688 C 1237.058594 391.453125 1237.574219 389.230469 1238.082031 387.039062 C 1238.605469 384.824219 1239.144531 382.628906 1239.753906 380.496094 C 1240.363281 378.367188 1241.023438 376.300781 1241.808594 374.371094 C 1243.78125 363.859375 1250.550781 361.273438 1250.550781 361.273438 C 1250.550781 361.273438 1253.722656 360.070312 1254.167969 360.515625 C 1254.347656 360.695312 1254.089844 361.136719 1253.015625 362.023438 C 1252.609375 362.382812 1252.066406 362.972656 1251.417969 363.707031 C 1250.777344 364.457031 1250.121094 365.449219 1249.453125 366.59375 C 1248.785156 367.75 1248.222656 369.140625 1247.683594 370.679688 C 1246.625 373.773438 1245.902344 377.589844 1245.242188 381.796875 C 1244.902344 383.921875 1244.554688 386.121094 1244.199219 388.351562 C 1243.8125 390.605469 1243.425781 392.910156 1242.902344 395.226562 C 1242.425781 397.515625 1241.777344 399.851562 1241.101562 402.097656 C 1240.710938 403.210938 1240.363281 404.328125 1239.953125 405.410156 C 1239.515625 406.488281 1239.101562 407.550781 1238.640625 408.585938 C 1237.699219 410.640625 1236.6875 412.585938 1235.570312 414.351562 C 1235.015625 415.238281 1234.457031 416.078125 1233.855469 416.863281 C 1233.292969 417.667969 1232.675781 418.394531 1232.074219 419.085938 C 1230.882812 420.472656 1229.628906 421.613281 1228.460938 422.535156 C 1227.285156 423.453125 1226.191406 424.15625 1225.214844 424.609375 C 1224.277344 425.101562 1223.449219 425.339844 1222.90625 425.496094 C 1222.363281 425.613281 1218.980469 425.46875 1218.980469 425.46875 " fill-opacity="1" fill-rule="nonzero"/></g></g></g></g><g clip-path="url(#fbe98222fd)"><g clip-path="url(#3b85d4f157)"><g clip-path="url(#01882a2108)"><g clip-path="url(#b36c560aad)"><path fill="#ffffff" d="M 1258.378906 374.953125 C 1260.367188 388.074219 1254.597656 403.699219 1254.597656 403.699219 C 1254.597656 403.699219 1269.753906 370.675781 1253.945312 363.730469 C 1254.300781 365.210938 1257.191406 367.132812 1258.378906 374.953125 " fill-opacity="1" fill-rule="nonzero"/></g></g></g></g><g clip-path="url(#944cb0d3ab)"><g clip-path="url(#1565b58398)"><g clip-path="url(#99c229aa20)"><g clip-path="url(#e88f488012)"><path fill="#351f17" d="M 1218.980469 425.46875 C 1218.980469 425.46875 1219.210938 425.285156 1219.648438 424.941406 C 1220.058594 424.589844 1220.621094 424.050781 1221.28125 423.308594 C 1221.609375 422.941406 1221.953125 422.523438 1222.300781 422.042969 C 1222.675781 421.59375 1223.027344 421.054688 1223.414062 420.507812 C 1224.144531 419.363281 1224.925781 418.066406 1225.671875 416.585938 C 1225.859375 416.21875 1226.050781 415.847656 1226.246094 415.464844 C 1226.425781 415.074219 1226.609375 414.671875 1226.796875 414.269531 C 1227.191406 413.476562 1227.507812 412.601562 1227.886719 411.738281 C 1228.605469 409.988281 1229.28125 408.097656 1229.941406 406.132812 C 1230.582031 404.15625 1231.214844 402.101562 1231.785156 399.984375 C 1232.367188 397.855469 1232.921875 395.722656 1233.453125 393.5 C 1233.96875 391.273438 1234.484375 389.046875 1234.996094 386.859375 C 1235.519531 384.644531 1236.054688 382.445312 1236.667969 380.3125 C 1237.277344 378.1875 1237.9375 376.117188 1238.722656 374.191406 C 1239.496094 372.261719 1240.363281 370.464844 1241.355469 368.898438 C 1242.320312 367.320312 1243.433594 366.003906 1244.492188 364.945312 C 1245.546875 363.871094 1246.648438 363.140625 1247.539062 362.585938 C 1248.457031 362.046875 1249.226562 361.742188 1249.742188 361.542969 C 1250.269531 361.367188 1250.550781 361.273438 1250.550781 361.273438 C 1250.550781 361.273438 1250.335938 361.46875 1249.929688 361.84375 C 1249.523438 362.203125 1248.980469 362.789062 1248.335938 363.527344 C 1247.691406 364.277344 1247.03125 365.265625 1246.367188 366.414062 C 1245.699219 367.566406 1245.132812 368.960938 1244.59375 370.5 C 1243.539062 373.59375 1242.816406 377.40625 1242.15625 381.617188 C 1241.816406 383.742188 1241.46875 385.9375 1241.113281 388.171875 C 1240.726562 390.425781 1240.339844 392.726562 1239.816406 395.046875 C 1239.339844 397.332031 1238.691406 399.671875 1238.015625 401.917969 C 1237.625 403.03125 1237.277344 404.144531 1236.867188 405.226562 C 1236.429688 406.308594 1236.015625 407.371094 1235.554688 408.402344 C 1234.609375 410.457031 1233.601562 412.40625 1232.484375 414.167969 C 1231.929688 415.054688 1231.371094 415.898438 1230.769531 416.683594 C 1230.207031 417.484375 1229.589844 418.214844 1228.984375 418.902344 C 1227.796875 420.289062 1226.542969 421.433594 1225.375 422.351562 C 1224.195312 423.269531 1223.105469 423.976562 1222.128906 424.429688 C 1221.191406 424.921875 1220.363281 425.160156 1219.820312 425.3125 C 1219.277344 425.433594 1218.980469 425.46875 1218.980469 425.46875 " fill-opacity="1" fill-rule="nonzero"/></g></g></g></g><g clip-path="url(#cec3c31191)"><g clip-path="url(#08abedcea1)"><g clip-path="url(#14b1fe0591)"><g clip-path="url(#97daddc6df)"><path fill="#7b4a25" d="M 1226.902344 428.386719 C 1226.3125 427.796875 1242.53125 416.207031 1245.140625 392.972656 C 1246.46875 381.152344 1250.65625 364.453125 1252.527344 365.136719 C 1252.621094 365.167969 1252.722656 365.242188 1252.832031 365.351562 C 1254.917969 367.4375 1259.605469 382.964844 1253.867188 399.285156 C 1251.21875 406.820312 1244.625 426.21875 1227.042969 428.40625 C 1226.972656 428.417969 1226.925781 428.410156 1226.902344 428.386719 " fill-opacity="1" fill-rule="nonzero"/></g></g></g></g><g clip-path="url(#6930a31739)"><g clip-path="url(#a4ab698810)"><g clip-path="url(#6aa6d21cb1)"><g clip-path="url(#fd36e74543)"><path fill="#7b4a25" d="M 1223.792969 413.523438 C 1220.3125 410.042969 1220.277344 386.859375 1221.730469 379.769531 C 1227.472656 351.75 1245.367188 357.285156 1249.394531 358.75 C 1249.644531 358.84375 1249.8125 358.933594 1249.902344 359.023438 C 1251.265625 360.386719 1235.507812 362.230469 1232.421875 381.964844 C 1231.246094 389.480469 1228.378906 415.363281 1224.347656 413.898438 C 1224.15625 413.828125 1223.96875 413.699219 1223.792969 413.523438 " fill-opacity="1" fill-rule="nonzero"/></g></g></g></g><g clip-path="url(#838447ddaf)"><g clip-path="url(#392a57f1f0)"><g clip-path="url(#f57ec681e0)"><path fill="#322f30" d="M 498.039062 291.15625 C 503.207031 286.09375 507.476562 273.613281 508.746094 267.914062 C 516.210938 234.359375 500.113281 201.058594 482.808594 173.378906 C 466.261719 146.902344 440.101562 106.015625 462.601562 75.707031 C 472.246094 62.707031 488.964844 57.308594 504.351562 55.074219 C 512.859375 53.84375 531.089844 54.078125 531.089844 54.078125 C 531.011719 54.097656 486.746094 64.007812 522.449219 150.722656 C 565.5625 255.429688 498.0625 291.148438 498.039062 291.15625 " fill-opacity="1" fill-rule="nonzero"/></g></g></g><g clip-path="url(#c4d8946956)"><g clip-path="url(#5a434a4bac)"><g clip-path="url(#83f789ecde)"><path fill="#ffae82" d="M 463.148438 203.597656 C 519.996094 281.304688 471.515625 324.484375 471.496094 324.5 C 474.738281 319.269531 475.730469 308.101562 475.621094 303.136719 C 474.972656 273.917969 454.921875 249.691406 435.015625 230.34375 C 415.976562 211.84375 386.085938 183.394531 398.511719 153.804688 C 403.839844 141.113281 416.546875 133.265625 428.796875 128.304688 C 435.570312 125.550781 450.675781 122.050781 450.675781 122.050781 C 450.605469 122.078125 416.074219 139.25 463.148438 203.597656 " fill-opacity="1" fill-rule="nonzero"/></g></g></g><g clip-path="url(#82bc8c05c9)"><g clip-path="url(#aa2fda53c6)"><g clip-path="url(#84fad2e8b2)"><path fill="#322f30" d="M 192.226562 411 C 203.546875 412.96875 214.667969 411.640625 224.636719 407.722656 C 222.71875 383.027344 223.808594 357.589844 228.273438 331.898438 C 230.128906 321.246094 232.539062 310.847656 235.40625 300.6875 C 228.785156 296.402344 221.203125 293.335938 212.929688 291.898438 C 180.042969 286.183594 148.75 308.210938 143.03125 341.09375 C 137.316406 373.988281 159.339844 405.285156 192.226562 411 Z M 217.519531 265.496094 C 229.125 267.511719 239.777344 271.746094 249.152344 277.667969 C 267.976562 263.691406 307.054688 255.320312 357.125 254.535156 C 357.378906 254.527344 357.390625 254.910156 357.140625 254.9375 C 311.03125 259.273438 280.691406 271.375 277.449219 290.046875 C 271.121094 326.445312 370.097656 374.050781 498.519531 396.371094 C 591.457031 412.527344 674.339844 411.011719 715.445312 395.144531 C 715.664062 395.058594 715.824219 395.351562 715.632812 395.488281 C 681.917969 419.859375 583.320312 424.914062 470.710938 405.34375 C 395.644531 392.292969 330.140625 371.039062 287.835938 348.152344 C 272.613281 495.121094 358.3125 626.40625 496.867188 650.488281 C 515.691406 653.761719 534.417969 654.828125 552.820312 653.890625 C 517.722656 663.535156 480.382812 665.796875 442.652344 659.238281 C 330.171875 639.6875 247.292969 547.578125 228.007812 434.902344 C 215.332031 438.78125 201.59375 439.832031 187.636719 437.40625 C 140.171875 429.15625 108.375 383.980469 116.628906 336.503906 C 124.878906 289.039062 170.054688 257.242188 217.519531 265.496094 " fill-opacity="1" fill-rule="nonzero"/></g></g></g><g fill="#322f30" fill-opacity="1"><g transform="translate(677.722469, 624.379329)"><g><path d="M 12.796875 -42.5625 L 12.796875 0 L 3.09375 0 L 3.09375 -42.5625 Z M 12.796875 -42.5625 "/></g></g></g><g fill="#322f30" fill-opacity="1"><g transform="translate(724.420428, 624.379329)"><g><path d="M 12.796875 -26.421875 L 12.796875 0 L 3.09375 0 L 3.09375 -42.5625 L 12.796875 -42.5625 L 29.71875 -16.15625 L 29.828125 -16.15625 L 29.828125 -42.5625 L 39.515625 -42.5625 L 39.515625 0 L 29.828125 0 L 12.90625 -26.421875 Z M 12.796875 -26.421875 "/></g></g></g><g fill="#322f30" fill-opacity="1"><g transform="translate(797.847187, 624.379329)"><g><path d="M 16.40625 0 L -1.4375 -42.5625 L 9.5 -42.5625 L 20.21875 -14.59375 L 30.953125 -42.5625 L 41.890625 -42.5625 L 24.046875 0 Z M 16.40625 0 "/></g></g></g><g fill="#322f30" fill-opacity="1"><g transform="translate(869.106743, 624.379329)"><g><path d="M 27.453125 -42.5625 L 27.453125 -34.046875 L 12.796875 -34.046875 L 12.796875 -25.59375 L 26.828125 -25.59375 L 26.828125 -17.078125 L 12.796875 -17.078125 L 12.796875 -8.515625 L 27.453125 -8.515625 L 27.453125 0 L 3.09375 0 L 3.09375 -42.5625 Z M 27.453125 -42.5625 "/></g></g></g><g fill="#322f30" fill-opacity="1"><g transform="translate(929.839917, 624.379329)"><g><path d="M 12.796875 -26.421875 L 12.796875 0 L 3.09375 0 L 3.09375 -42.5625 L 12.796875 -42.5625 L 29.71875 -16.15625 L 29.828125 -16.15625 L 29.828125 -42.5625 L 39.515625 -42.5625 L 39.515625 0 L 29.828125 0 L 12.90625 -26.421875 Z M 12.796875 -26.421875 "/></g></g></g><g fill="#322f30" fill-opacity="1"><g transform="translate(1003.266683, 624.379329)"><g><path d="M 0.40625 -34.046875 L 0.40625 -42.5625 L 30.34375 -42.5625 L 30.34375 -34.046875 L 20.21875 -34.046875 L 20.21875 0 L 10.53125 0 L 10.53125 -34.046875 Z M 0.40625 -34.046875 "/></g></g></g><g fill="#322f30" fill-opacity="1"><g transform="translate(1064.825436, 624.379329)"><g><path d="M 1.1875 -21.3125 C 1.1875 -27.46875 3.285156 -32.675781 7.484375 -36.9375 C 11.679688 -41.207031 16.738281 -43.34375 22.65625 -43.34375 C 28.601562 -43.34375 33.65625 -41.21875 37.8125 -36.96875 C 41.976562 -32.71875 44.0625 -27.5 44.0625 -21.3125 C 44.0625 -15.082031 42.015625 -9.84375 37.921875 -5.59375 C 33.828125 -1.34375 28.738281 0.78125 22.65625 0.78125 C 16.425781 0.78125 11.289062 -1.320312 7.25 -5.53125 C 3.207031 -9.75 1.1875 -15.007812 1.1875 -21.3125 Z M 11.65625 -21.3125 C 11.65625 -19.070312 12 -17.03125 12.6875 -15.1875 C 13.375 -13.351562 14.578125 -11.796875 16.296875 -10.515625 C 18.023438 -9.242188 20.144531 -8.609375 22.65625 -8.609375 C 26.257812 -8.609375 28.984375 -9.847656 30.828125 -12.328125 C 32.671875 -14.804688 33.59375 -17.800781 33.59375 -21.3125 C 33.59375 -24.78125 32.65625 -27.757812 30.78125 -30.25 C 28.90625 -32.75 26.195312 -34 22.65625 -34 C 19.144531 -34 16.429688 -32.75 14.515625 -30.25 C 12.609375 -27.757812 11.65625 -24.78125 11.65625 -21.3125 Z M 11.65625 -21.3125 "/></g></g></g><g fill="#322f30" fill-opacity="1"><g transform="translate(1140.883773, 624.379329)"><g><path d="M 3.09375 -42.5625 L 18.3125 -42.5625 C 22.40625 -42.5625 25.738281 -41.46875 28.3125 -39.28125 C 30.894531 -37.101562 32.1875 -33.984375 32.1875 -29.921875 C 32.1875 -26.796875 31.40625 -24.175781 29.84375 -22.0625 C 28.28125 -19.945312 26.15625 -18.457031 23.46875 -17.59375 L 38.125 0 L 25.796875 0 L 12.796875 -16.8125 L 12.796875 0 L 3.09375 0 Z M 12.796875 -23.6875 L 13.9375 -23.6875 C 14.820312 -23.6875 15.570312 -23.703125 16.1875 -23.734375 C 16.8125 -23.765625 17.519531 -23.882812 18.3125 -24.09375 C 19.101562 -24.300781 19.738281 -24.59375 20.21875 -24.96875 C 20.707031 -25.34375 21.125 -25.890625 21.46875 -26.609375 C 21.8125 -27.335938 21.984375 -28.21875 21.984375 -29.25 C 21.984375 -30.28125 21.8125 -31.15625 21.46875 -31.875 C 21.125 -32.601562 20.707031 -33.15625 20.21875 -33.53125 C 19.738281 -33.914062 19.101562 -34.207031 18.3125 -34.40625 C 17.519531 -34.613281 16.8125 -34.734375 16.1875 -34.765625 C 15.570312 -34.804688 14.820312 -34.828125 13.9375 -34.828125 L 12.796875 -34.828125 Z M 12.796875 -23.6875 "/></g></g></g><g fill="#322f30" fill-opacity="1"><g transform="translate(1208.634551, 624.379329)"><g><path d="M -1.546875 -42.5625 L 10.109375 -42.5625 L 18.984375 -28.9375 L 27.859375 -42.5625 L 39.515625 -42.5625 L 23.84375 -19.09375 L 23.84375 0 L 14.140625 0 L 14.140625 -19.09375 Z M -1.546875 -42.5625 "/></g></g></g><g fill="#322f30" fill-opacity="1"><g transform="translate(1277.451459, 624.379329)"><g/></g></g></svg>