<svg xmlns="http://www.w3.org/2000/svg" xmlns:xlink="http://www.w3.org/1999/xlink" width="1920" zoomAndPan="magnify" viewBox="0 0 1440 749.999995" height="1000" preserveAspectRatio="xMidYMid meet" version="1.0"><defs><g/><clipPath id="e4a9404451"><path d="M 241 623 L 703 623 L 703 720 L 241 720 Z M 241 623 " clip-rule="nonzero"/></clipPath><clipPath id="9e7c158557"><path d="M 181.84375 0.972656 L 799.695312 103.179688 L 692.839844 749.148438 L 74.984375 646.941406 Z M 181.84375 0.972656 " clip-rule="nonzero"/></clipPath><clipPath id="803801b457"><path d="M 799.464844 103.140625 L 181.613281 0.933594 L 74.753906 646.90625 L 692.609375 749.113281 Z M 799.464844 103.140625 " clip-rule="nonzero"/></clipPath><clipPath id="73c7f088f6"><path d="M 452 58 L 535 58 L 535 289 L 452 289 Z M 452 58 " clip-rule="nonzero"/></clipPath><clipPath id="1448ae09cd"><path d="M 181.84375 0.972656 L 799.695312 103.179688 L 692.839844 749.148438 L 74.984375 646.941406 Z M 181.84375 0.972656 " clip-rule="nonzero"/></clipPath><clipPath id="7156f9fb34"><path d="M 799.464844 103.140625 L 181.613281 0.933594 L 74.753906 646.90625 L 692.609375 749.113281 Z M 799.464844 103.140625 " clip-rule="nonzero"/></clipPath><clipPath id="afa1dda4fd"><path d="M 396 124 L 490 124 L 490 322 L 396 322 Z M 396 124 " clip-rule="nonzero"/></clipPath><clipPath id="52af7d0de2"><path d="M 181.84375 0.972656 L 799.695312 103.179688 L 692.839844 749.148438 L 74.984375 646.941406 Z M 181.84375 0.972656 " clip-rule="nonzero"/></clipPath><clipPath id="72f95713f0"><path d="M 799.464844 103.140625 L 181.613281 0.933594 L 74.753906 646.90625 L 692.609375 749.113281 Z M 799.464844 103.140625 " clip-rule="nonzero"/></clipPath><clipPath id="f22a3daa67"><path d="M 125 254 L 710 254 L 710 651 L 125 651 Z M 125 254 " clip-rule="nonzero"/></clipPath><clipPath id="39653d20be"><path d="M 181.84375 0.972656 L 799.695312 103.179688 L 692.839844 749.148438 L 74.984375 646.941406 Z M 181.84375 0.972656 " clip-rule="nonzero"/></clipPath><clipPath id="d6cf585318"><path d="M 799.464844 103.140625 L 181.613281 0.933594 L 74.753906 646.90625 L 692.609375 749.113281 Z M 799.464844 103.140625 " clip-rule="nonzero"/></clipPath><clipPath id="6a3a6ee1dc"><path d="M 1204 353 L 1263 353 L 1263 430 L 1204 430 Z M 1204 353 " clip-rule="nonzero"/></clipPath><clipPath id="c09e6dca5f"><path d="M 1241.355469 334.542969 L 1288.023438 381.210938 L 1225.445312 443.789062 L 1178.773438 397.121094 Z M 1241.355469 334.542969 " clip-rule="nonzero"/></clipPath><clipPath id="5b37710586"><path d="M 1241.355469 334.542969 L 1288.023438 381.210938 L 1225.445312 443.789062 L 1178.773438 397.121094 Z M 1241.355469 334.542969 " clip-rule="nonzero"/></clipPath><clipPath id="fad5c0e9e1"><path d="M 1241.355469 334.542969 L 1288.023438 381.210938 L 1225.445312 443.789062 L 1178.773438 397.121094 Z M 1241.355469 334.542969 " clip-rule="nonzero"/></clipPath><clipPath id="d84b868155"><path d="M 1210 360 L 1226 360 L 1226 425 L 1210 425 Z M 1210 360 " clip-rule="nonzero"/></clipPath><clipPath id="7dca4c3a62"><path d="M 1241.355469 334.542969 L 1288.023438 381.210938 L 1225.445312 443.789062 L 1178.773438 397.121094 Z M 1241.355469 334.542969 " clip-rule="nonzero"/></clipPath><clipPath id="8223982263"><path d="M 1241.355469 334.542969 L 1288.023438 381.210938 L 1225.445312 443.789062 L 1178.773438 397.121094 Z M 1241.355469 334.542969 " clip-rule="nonzero"/></clipPath><clipPath id="2fae587236"><path d="M 1241.355469 334.542969 L 1288.023438 381.210938 L 1225.445312 443.789062 L 1178.773438 397.121094 Z M 1241.355469 334.542969 " clip-rule="nonzero"/></clipPath><clipPath id="30db9bbabe"><path d="M 1204 359 L 1226 359 L 1226 426 L 1204 426 Z M 1204 359 " clip-rule="nonzero"/></clipPath><clipPath id="bfc9f922ee"><path d="M 1241.355469 334.542969 L 1288.023438 381.210938 L 1225.445312 443.789062 L 1178.773438 397.121094 Z M 1241.355469 334.542969 " clip-rule="nonzero"/></clipPath><clipPath id="b7f6458d48"><path d="M 1241.355469 334.542969 L 1288.023438 381.210938 L 1225.445312 443.789062 L 1178.773438 397.121094 Z M 1241.355469 334.542969 " clip-rule="nonzero"/></clipPath><clipPath id="e483a17bdb"><path d="M 1241.355469 334.542969 L 1288.023438 381.210938 L 1225.445312 443.789062 L 1178.773438 397.121094 Z M 1241.355469 334.542969 " clip-rule="nonzero"/></clipPath><clipPath id="6e01409b9e"><path d="M 1204 380 L 1210 380 L 1210 409 L 1204 409 Z M 1204 380 " clip-rule="nonzero"/></clipPath><clipPath id="83c2d369c7"><path d="M 1241.355469 334.542969 L 1288.023438 381.210938 L 1225.445312 443.789062 L 1178.773438 397.121094 Z M 1241.355469 334.542969 " clip-rule="nonzero"/></clipPath><clipPath id="7f9f0ead80"><path d="M 1241.355469 334.542969 L 1288.023438 381.210938 L 1225.445312 443.789062 L 1178.773438 397.121094 Z M 1241.355469 334.542969 " clip-rule="nonzero"/></clipPath><clipPath id="d61f56b3ed"><path d="M 1241.355469 334.542969 L 1288.023438 381.210938 L 1225.445312 443.789062 L 1178.773438 397.121094 Z M 1241.355469 334.542969 " clip-rule="nonzero"/></clipPath><clipPath id="b495c4e67c"><path d="M 1204 373 L 1217 373 L 1217 425 L 1204 425 Z M 1204 373 " clip-rule="nonzero"/></clipPath><clipPath id="9bb155bd55"><path d="M 1241.355469 334.542969 L 1288.023438 381.210938 L 1225.445312 443.789062 L 1178.773438 397.121094 Z M 1241.355469 334.542969 " clip-rule="nonzero"/></clipPath><clipPath id="fe17033fba"><path d="M 1241.355469 334.542969 L 1288.023438 381.210938 L 1225.445312 443.789062 L 1178.773438 397.121094 Z M 1241.355469 334.542969 " clip-rule="nonzero"/></clipPath><clipPath id="c559be0806"><path d="M 1241.355469 334.542969 L 1288.023438 381.210938 L 1225.445312 443.789062 L 1178.773438 397.121094 Z M 1241.355469 334.542969 " clip-rule="nonzero"/></clipPath><clipPath id="2cb80e7462"><path d="M 1204 372 L 1217 372 L 1217 426 L 1204 426 Z M 1204 372 " clip-rule="nonzero"/></clipPath><clipPath id="5ff181dd15"><path d="M 1241.355469 334.542969 L 1288.023438 381.210938 L 1225.445312 443.789062 L 1178.773438 397.121094 Z M 1241.355469 334.542969 " clip-rule="nonzero"/></clipPath><clipPath id="17b81ff63e"><path d="M 1241.355469 334.542969 L 1288.023438 381.210938 L 1225.445312 443.789062 L 1178.773438 397.121094 Z M 1241.355469 334.542969 " clip-rule="nonzero"/></clipPath><clipPath id="ee32ffab60"><path d="M 1241.355469 334.542969 L 1288.023438 381.210938 L 1225.445312 443.789062 L 1178.773438 397.121094 Z M 1241.355469 334.542969 " clip-rule="nonzero"/></clipPath><clipPath id="5d7fa327b8"><path d="M 1218 359 L 1254 359 L 1254 425 L 1218 425 Z M 1218 359 " clip-rule="nonzero"/></clipPath><clipPath id="68d7c34510"><path d="M 1241.355469 334.542969 L 1288.023438 381.210938 L 1225.445312 443.789062 L 1178.773438 397.121094 Z M 1241.355469 334.542969 " clip-rule="nonzero"/></clipPath><clipPath id="40fca0d403"><path d="M 1241.355469 334.542969 L 1288.023438 381.210938 L 1225.445312 443.789062 L 1178.773438 397.121094 Z M 1241.355469 334.542969 " clip-rule="nonzero"/></clipPath><clipPath id="dcfd53c9ed"><path d="M 1241.355469 334.542969 L 1288.023438 381.210938 L 1225.445312 443.789062 L 1178.773438 397.121094 Z M 1241.355469 334.542969 " clip-rule="nonzero"/></clipPath><clipPath id="1e82ceec5d"><path d="M 1253 363 L 1261 363 L 1261 403 L 1253 403 Z M 1253 363 " clip-rule="nonzero"/></clipPath><clipPath id="3fad68f228"><path d="M 1241.355469 334.542969 L 1288.023438 381.210938 L 1225.445312 443.789062 L 1178.773438 397.121094 Z M 1241.355469 334.542969 " clip-rule="nonzero"/></clipPath><clipPath id="9647df97a0"><path d="M 1241.355469 334.542969 L 1288.023438 381.210938 L 1225.445312 443.789062 L 1178.773438 397.121094 Z M 1241.355469 334.542969 " clip-rule="nonzero"/></clipPath><clipPath id="39feadf962"><path d="M 1241.355469 334.542969 L 1288.023438 381.210938 L 1225.445312 443.789062 L 1178.773438 397.121094 Z M 1241.355469 334.542969 " clip-rule="nonzero"/></clipPath><clipPath id="185e2637d2"><path d="M 1218 360 L 1251 360 L 1251 425 L 1218 425 Z M 1218 360 " clip-rule="nonzero"/></clipPath><clipPath id="075a26b631"><path d="M 1241.355469 334.542969 L 1288.023438 381.210938 L 1225.445312 443.789062 L 1178.773438 397.121094 Z M 1241.355469 334.542969 " clip-rule="nonzero"/></clipPath><clipPath id="ee775bff49"><path d="M 1241.355469 334.542969 L 1288.023438 381.210938 L 1225.445312 443.789062 L 1178.773438 397.121094 Z M 1241.355469 334.542969 " clip-rule="nonzero"/></clipPath><clipPath id="7a0acd3c0c"><path d="M 1241.355469 334.542969 L 1288.023438 381.210938 L 1225.445312 443.789062 L 1178.773438 397.121094 Z M 1241.355469 334.542969 " clip-rule="nonzero"/></clipPath><clipPath id="7512fd5f67"><path d="M 1226 364 L 1257 364 L 1257 428 L 1226 428 Z M 1226 364 " clip-rule="nonzero"/></clipPath><clipPath id="01d7bc0972"><path d="M 1241.355469 334.542969 L 1288.023438 381.210938 L 1225.445312 443.789062 L 1178.773438 397.121094 Z M 1241.355469 334.542969 " clip-rule="nonzero"/></clipPath><clipPath id="4819049696"><path d="M 1241.355469 334.542969 L 1288.023438 381.210938 L 1225.445312 443.789062 L 1178.773438 397.121094 Z M 1241.355469 334.542969 " clip-rule="nonzero"/></clipPath><clipPath id="da8bdaab29"><path d="M 1241.355469 334.542969 L 1288.023438 381.210938 L 1225.445312 443.789062 L 1178.773438 397.121094 Z M 1241.355469 334.542969 " clip-rule="nonzero"/></clipPath><clipPath id="85678f65c4"><path d="M 1220 357 L 1250 357 L 1250 414 L 1220 414 Z M 1220 357 " clip-rule="nonzero"/></clipPath><clipPath id="00b9226325"><path d="M 1241.355469 334.542969 L 1288.023438 381.210938 L 1225.445312 443.789062 L 1178.773438 397.121094 Z M 1241.355469 334.542969 " clip-rule="nonzero"/></clipPath><clipPath id="9066607d21"><path d="M 1241.355469 334.542969 L 1288.023438 381.210938 L 1225.445312 443.789062 L 1178.773438 397.121094 Z M 1241.355469 334.542969 " clip-rule="nonzero"/></clipPath><clipPath id="424e75643b"><path d="M 1241.355469 334.542969 L 1288.023438 381.210938 L 1225.445312 443.789062 L 1178.773438 397.121094 Z M 1241.355469 334.542969 " clip-rule="nonzero"/></clipPath><clipPath id="f3ded0a252"><path d="M 453 54 L 537 54 L 537 292 L 453 292 Z M 453 54 " clip-rule="nonzero"/></clipPath><clipPath id="4382b5ad40"><path d="M 401.296875 31.488281 L 673.957031 78.882812 L 624.507812 363.367188 L 351.847656 315.972656 Z M 401.296875 31.488281 " clip-rule="nonzero"/></clipPath><clipPath id="bab4562a20"><path d="M 810.558594 102.625 L 175.828125 -7.703125 L 60.492188 655.847656 L 695.222656 766.175781 Z M 810.558594 102.625 " clip-rule="nonzero"/></clipPath><clipPath id="9815acf5d1"><path d="M 395 122 L 491 122 L 491 325 L 395 325 Z M 395 122 " clip-rule="nonzero"/></clipPath><clipPath id="6b1f3cfa73"><path d="M 401.296875 31.488281 L 673.957031 78.882812 L 624.507812 363.367188 L 351.847656 315.972656 Z M 401.296875 31.488281 " clip-rule="nonzero"/></clipPath><clipPath id="fdab838c5c"><path d="M 810.558594 102.625 L 175.828125 -7.703125 L 60.492188 655.847656 L 695.222656 766.175781 Z M 810.558594 102.625 " clip-rule="nonzero"/></clipPath><clipPath id="3c1c57d8ca"><path d="M 351 254 L 674 254 L 674 364 L 351 364 Z M 351 254 " clip-rule="nonzero"/></clipPath><clipPath id="56ea5a7dc1"><path d="M 401.296875 31.488281 L 673.957031 78.882812 L 624.507812 363.367188 L 351.847656 315.972656 Z M 401.296875 31.488281 " clip-rule="nonzero"/></clipPath><clipPath id="d03bfa06f0"><path d="M 810.558594 102.625 L 175.828125 -7.703125 L 60.492188 655.847656 L 695.222656 766.175781 Z M 810.558594 102.625 " clip-rule="nonzero"/></clipPath></defs><g clip-path="url(#e4a9404451)"><g clip-path="url(#9e7c158557)"><g clip-path="url(#803801b457)"><path fill="#ffae82" d="M 242.261719 656.40625 C 280.886719 667.960938 326.398438 678.457031 375.5 686.578125 C 522.171875 710.84375 645.328125 704.773438 650.582031 673.019531 C 653.035156 658.1875 629.339844 640.386719 588.460938 623.144531 C 659.847656 645.476562 705.265625 671.285156 701.917969 691.535156 C 696.664062 723.289062 573.507812 729.359375 426.835938 705.097656 C 353.566406 692.976562 288.296875 675.574219 241.972656 657.246094 C 241.441406 657.039062 241.71875 656.238281 242.261719 656.40625 " fill-opacity="1" fill-rule="nonzero"/></g></g></g><g clip-path="url(#73c7f088f6)"><g clip-path="url(#1448ae09cd)"><g clip-path="url(#7156f9fb34)"><path fill="#ffae82" d="M 497.101562 288.921875 C 502.085938 283.957031 506.136719 271.789062 507.328125 266.234375 C 514.316406 233.554688 498.402344 201.304688 481.359375 174.53125 C 465.058594 148.921875 439.300781 109.371094 460.9375 79.726562 C 470.210938 67.011719 486.425781 61.628906 501.363281 59.335938 C 509.625 58.074219 527.355469 58.15625 527.355469 58.15625 C 527.277344 58.171875 484.320312 68.164062 519.722656 152.1875 C 562.46875 253.648438 497.125 288.910156 497.101562 288.921875 " fill-opacity="1" fill-rule="nonzero"/></g></g></g><g clip-path="url(#afa1dda4fd)"><g clip-path="url(#52af7d0de2)"><g clip-path="url(#72f95713f0)"><path fill="#995941" d="M 462.484375 204.066406 C 518.371094 279.164062 471.574219 321.535156 471.558594 321.546875 C 474.667969 316.4375 475.542969 305.570312 475.398438 300.746094 C 474.539062 272.339844 454.851562 248.945312 435.34375 230.296875 C 416.6875 212.457031 387.398438 185.035156 399.242188 156.167969 C 404.324219 143.789062 416.617188 136.058594 428.488281 131.132812 C 435.050781 128.402344 449.707031 124.878906 449.707031 124.878906 C 449.640625 124.90625 416.203125 141.878906 462.484375 204.066406 " fill-opacity="1" fill-rule="nonzero"/></g></g></g><g clip-path="url(#f22a3daa67)"><g clip-path="url(#39653d20be)"><g clip-path="url(#d6cf585318)"><path fill="#ffae82" d="M 200.722656 407.867188 C 211.742188 409.6875 222.546875 408.308594 232.207031 404.417969 C 230.148438 380.425781 231.007812 355.683594 235.144531 330.671875 C 236.859375 320.296875 239.121094 310.171875 241.832031 300.269531 C 235.355469 296.15625 227.964844 293.234375 219.90625 291.902344 C 187.886719 286.605469 157.636719 308.269531 152.339844 340.289062 C 147.042969 372.3125 168.703125 402.570312 200.722656 407.867188 Z M 224.160156 266.195312 C 235.460938 268.0625 245.847656 272.097656 255.011719 277.78125 C 273.203125 264.039062 311.128906 255.59375 359.804688 254.433594 C 360.054688 254.421875 360.066406 254.796875 359.820312 254.824219 C 315.03125 259.40625 285.628906 271.410156 282.621094 289.589844 C 276.757812 325.027344 373.363281 370.527344 498.402344 391.210938 C 588.890625 406.179688 669.460938 404.050781 709.300781 388.296875 C 709.515625 388.210938 709.671875 388.496094 709.488281 388.628906 C 676.898438 412.589844 581.078125 418.289062 471.4375 400.152344 C 398.347656 388.0625 334.492188 367.917969 293.179688 346.003906 C 279.546875 489.015625 363.910156 615.976562 498.8125 638.292969 C 517.140625 641.324219 535.355469 642.214844 553.242188 641.152344 C 519.195312 650.808594 482.90625 653.308594 446.171875 647.230469 C 336.65625 629.113281 255.347656 540.21875 235.703125 430.820312 C 223.40625 434.691406 210.058594 435.820312 196.472656 433.574219 C 150.257812 425.929688 118.984375 382.261719 126.628906 336.035156 C 134.277344 289.820312 177.945312 258.550781 224.160156 266.195312 " fill-opacity="1" fill-rule="nonzero"/></g></g></g><g fill="#ffae82" fill-opacity="1"><g transform="translate(443.108213, 553.672622)"><g><path d="M 46.890625 -105.96875 L 46.890625 -55.5625 C 46.890625 -45.09375 48.472656 -37.65625 51.640625 -33.25 C 54.804688 -28.84375 60.175781 -26.640625 67.75 -26.640625 C 75.320312 -26.640625 80.691406 -28.84375 83.859375 -33.25 C 87.023438 -37.65625 88.609375 -45.09375 88.609375 -55.5625 L 88.609375 -105.96875 L 125.171875 -105.96875 L 125.171875 -46.6875 C 125.171875 -29.0625 120.59375 -16.359375 111.4375 -8.578125 C 102.28125 -0.796875 87.71875 3.09375 67.75 3.09375 C 47.78125 3.09375 33.21875 -0.796875 24.0625 -8.578125 C 14.90625 -16.359375 10.328125 -29.0625 10.328125 -46.6875 L 10.328125 -105.96875 Z M 46.890625 -105.96875 "/></g></g></g><g fill="#ffae82" fill-opacity="1"><g transform="translate(561.056426, 553.672622)"><g><path d="M 121.453125 -92.84375 C 131.367188 -82.039062 136.328125 -68.785156 136.328125 -53.078125 C 136.328125 -37.378906 131.367188 -24.09375 121.453125 -13.21875 C 111.546875 -2.34375 98.945312 3.09375 83.65625 3.09375 C 69.613281 3.09375 58.046875 -1.3125 48.953125 -10.125 L 48.953125 53.703125 L 12.390625 53.703125 L 12.390625 -105.96875 L 48.546875 -105.96875 L 48.546875 -93.984375 L 48.953125 -93.984375 C 58.046875 -104.035156 69.613281 -109.0625 83.65625 -109.0625 C 98.945312 -109.0625 111.546875 -103.65625 121.453125 -92.84375 Z M 90.375 -35.109375 C 95.125 -39.796875 97.5 -45.785156 97.5 -53.078125 C 97.5 -60.378906 95.222656 -66.335938 90.671875 -70.953125 C 86.128906 -75.566406 80.140625 -77.875 72.703125 -77.875 C 65.546875 -77.875 59.660156 -75.53125 55.046875 -70.84375 C 50.429688 -66.164062 48.125 -60.25 48.125 -53.09375 C 48.125 -45.789062 50.5 -39.796875 55.25 -35.109375 C 60 -30.429688 65.816406 -28.09375 72.703125 -28.09375 C 79.734375 -28.09375 85.625 -30.429688 90.375 -35.109375 Z M 90.375 -35.109375 "/></g></g></g><g fill="#322f30" fill-opacity="1"><g transform="translate(684.60427, 553.672622)"><g/></g></g><g fill="#322f30" fill-opacity="1"><g transform="translate(723.437837, 553.672622)"><g><path d="M 22.40625 -12.59375 C 10.632812 -23.0625 4.75 -36.488281 4.75 -52.875 C 4.75 -69.269531 10.875 -82.734375 23.125 -93.265625 C 35.382812 -103.796875 50.535156 -109.0625 68.578125 -109.0625 C 86.335938 -109.0625 101.3125 -103.757812 113.5 -93.15625 C 125.6875 -82.550781 131.78125 -69.125 131.78125 -52.875 C 131.78125 -36.625 125.820312 -23.234375 113.90625 -12.703125 C 102 -2.171875 86.890625 3.09375 68.578125 3.09375 C 49.578125 3.09375 34.1875 -2.132812 22.40625 -12.59375 Z M 50.703125 -70.84375 C 45.953125 -66.164062 43.578125 -60.175781 43.578125 -52.875 C 43.578125 -45.582031 45.847656 -39.628906 50.390625 -35.015625 C 54.941406 -30.398438 60.9375 -28.09375 68.375 -28.09375 C 75.53125 -28.09375 81.414062 -30.429688 86.03125 -35.109375 C 90.644531 -39.796875 92.953125 -45.71875 92.953125 -52.875 C 92.953125 -60.175781 90.578125 -66.164062 85.828125 -70.84375 C 81.078125 -75.53125 75.257812 -77.875 68.375 -77.875 C 61.351562 -77.875 55.460938 -75.53125 50.703125 -70.84375 Z M 50.703125 -70.84375 "/></g></g></g><g fill="#322f30" fill-opacity="1"><g transform="translate(842.418862, 553.672622)"><g><path d="M 18.59375 -105.96875 L 18.59375 -128.484375 C 18.726562 -144.316406 22.441406 -156.984375 29.734375 -166.484375 C 37.035156 -175.992188 47.160156 -180.75 60.109375 -180.75 C 65.617188 -180.75 70.882812 -179.953125 75.90625 -178.359375 C 80.9375 -176.773438 84.550781 -175.160156 86.75 -173.515625 L 90.265625 -171.234375 L 77.46875 -145.421875 C 74.15625 -147.347656 70.503906 -148.3125 66.515625 -148.3125 C 61.972656 -148.3125 58.941406 -146.757812 57.421875 -143.65625 C 55.910156 -140.5625 55.15625 -135.160156 55.15625 -127.453125 L 55.15625 -105.96875 L 79.53125 -105.96875 L 79.53125 -78.078125 L 55.15625 -78.078125 L 55.15625 0 L 18.59375 0 L 18.59375 -78.078125 L 3.3125 -78.078125 L 3.3125 -105.96875 Z M 18.59375 -105.96875 "/></g></g></g><g fill="#322f30" fill-opacity="1"><g transform="translate(902.322117, 553.672622)"><g/></g></g><g fill="#322f30" fill-opacity="1"><g transform="translate(941.155696, 553.672622)"><g><path d="M 103.078125 -35.109375 C 108.992188 -35.109375 114.738281 -36.003906 120.3125 -37.796875 C 125.894531 -39.585938 129.992188 -41.3125 132.609375 -42.96875 L 136.53125 -45.65625 L 153.0625 -12.59375 C 152.507812 -12.1875 151.75 -11.640625 150.78125 -10.953125 C 149.820312 -10.265625 147.585938 -8.988281 144.078125 -7.125 C 140.566406 -5.269531 136.8125 -3.648438 132.8125 -2.265625 C 128.820312 -0.890625 123.585938 0.34375 117.109375 1.4375 C 110.640625 2.539062 103.960938 3.09375 97.078125 3.09375 C 81.242188 3.09375 66.234375 -0.796875 52.046875 -8.578125 C 37.867188 -16.359375 26.441406 -27.0625 17.765625 -40.6875 C 9.085938 -54.320312 4.75 -69.054688 4.75 -84.890625 C 4.75 -96.878906 7.296875 -108.378906 12.390625 -119.390625 C 17.484375 -130.410156 24.265625 -139.84375 32.734375 -147.6875 C 41.203125 -155.539062 51.082031 -161.804688 62.375 -166.484375 C 73.664062 -171.171875 85.234375 -173.515625 97.078125 -173.515625 C 108.097656 -173.515625 118.253906 -172.203125 127.546875 -169.578125 C 136.847656 -166.960938 143.425781 -164.347656 147.28125 -161.734375 L 153.0625 -157.8125 L 136.53125 -124.765625 C 135.570312 -125.585938 134.128906 -126.582031 132.203125 -127.75 C 130.273438 -128.925781 126.414062 -130.476562 120.625 -132.40625 C 114.84375 -134.332031 108.992188 -135.296875 103.078125 -135.296875 C 93.710938 -135.296875 85.3125 -133.78125 77.875 -130.75 C 70.4375 -127.71875 64.546875 -123.722656 60.203125 -118.765625 C 55.867188 -113.816406 52.566406 -108.484375 50.296875 -102.765625 C 48.023438 -97.046875 46.890625 -91.226562 46.890625 -85.3125 C 46.890625 -72.363281 51.742188 -60.757812 61.453125 -50.5 C 71.160156 -40.238281 85.035156 -35.109375 103.078125 -35.109375 Z M 103.078125 -35.109375 "/></g></g></g><g fill="#322f30" fill-opacity="1"><g transform="translate(1079.140762, 553.672622)"><g><path d="M 12.390625 0 L 12.390625 -177.640625 L 48.953125 -177.640625 L 48.953125 -94.8125 L 49.375 -94.8125 C 58.875 -104.3125 68.992188 -109.0625 79.734375 -109.0625 C 84.960938 -109.0625 90.160156 -108.375 95.328125 -107 C 100.492188 -105.625 105.453125 -103.488281 110.203125 -100.59375 C 114.953125 -97.707031 118.804688 -93.613281 121.765625 -88.3125 C 124.722656 -83.007812 126.203125 -76.84375 126.203125 -69.8125 L 126.203125 0 L 89.640625 0 L 89.640625 -59.90625 C 89.640625 -65.414062 87.882812 -70.234375 84.375 -74.359375 C 80.863281 -78.492188 76.285156 -80.5625 70.640625 -80.5625 C 65.128906 -80.5625 60.132812 -78.425781 55.65625 -74.15625 C 51.1875 -69.882812 48.953125 -65.132812 48.953125 -59.90625 L 48.953125 0 Z M 12.390625 0 "/></g></g></g><g fill="#322f30" fill-opacity="1"><g transform="translate(1198.121801, 553.672622)"><g><path d="M 15.90625 -165.046875 C 20.175781 -169.316406 25.269531 -171.453125 31.1875 -171.453125 C 37.113281 -171.453125 42.207031 -169.316406 46.46875 -165.046875 C 50.738281 -160.773438 52.875 -155.675781 52.875 -149.75 C 52.875 -143.832031 50.738281 -138.738281 46.46875 -134.46875 C 42.207031 -130.195312 37.113281 -128.0625 31.1875 -128.0625 C 25.269531 -128.0625 20.175781 -130.195312 15.90625 -134.46875 C 11.632812 -138.738281 9.5 -143.832031 9.5 -149.75 C 9.5 -155.675781 11.632812 -160.773438 15.90625 -165.046875 Z M 12.390625 -105.96875 L 12.390625 0 L 48.953125 0 L 48.953125 -105.96875 Z M 12.390625 -105.96875 "/></g></g></g><g fill="#322f30" fill-opacity="1"><g transform="translate(1242.968086, 553.672622)"><g/></g></g><g clip-path="url(#6a3a6ee1dc)"><g clip-path="url(#c09e6dca5f)"><g clip-path="url(#5b37710586)"><g clip-path="url(#fad5c0e9e1)"><path fill="#6f4323" d="M 1256.816406 403.214844 C 1247.785156 421.339844 1227.644531 437.546875 1218.242188 425 C 1208.253906 426.585938 1197.488281 407.199219 1209.644531 380.835938 C 1222.011719 354.007812 1244 347.503906 1250.953125 359.355469 C 1263.453125 356.636719 1265.851562 385.085938 1256.816406 403.214844 " fill-opacity="1" fill-rule="nonzero"/><path fill="#29242c" d="M 1256.78125 403.195312 C 1257.714844 401.292969 1258.523438 399.332031 1259.1875 397.320312 C 1259.515625 396.316406 1259.824219 395.300781 1260.09375 394.277344 C 1260.367188 393.257812 1260.609375 392.226562 1260.820312 391.191406 C 1261.238281 389.117188 1261.554688 387.023438 1261.753906 384.917969 C 1261.957031 382.816406 1262.039062 380.703125 1262.007812 378.597656 C 1261.972656 376.488281 1261.800781 374.386719 1261.488281 372.308594 C 1261.167969 370.234375 1260.691406 368.183594 1259.941406 366.238281 C 1259.566406 365.269531 1259.117188 364.332031 1258.574219 363.457031 C 1258.03125 362.585938 1257.386719 361.78125 1256.628906 361.121094 C 1256.242188 360.796875 1255.832031 360.515625 1255.394531 360.277344 C 1254.953125 360.042969 1254.488281 359.871094 1254.007812 359.75 C 1253.527344 359.628906 1253.03125 359.589844 1252.53125 359.585938 C 1252.035156 359.585938 1251.535156 359.664062 1251.042969 359.757812 L 1250.75 359.816406 L 1250.597656 359.566406 C 1250.039062 358.636719 1249.375 357.773438 1248.582031 357.042969 C 1247.796875 356.300781 1246.890625 355.699219 1245.917969 355.230469 C 1243.964844 354.296875 1241.746094 353.996094 1239.566406 354.128906 C 1237.378906 354.265625 1235.21875 354.828125 1233.171875 355.65625 C 1231.121094 356.492188 1229.175781 357.582031 1227.347656 358.84375 C 1225.519531 360.109375 1223.804688 361.539062 1222.203125 363.089844 C 1221.398438 363.863281 1220.625 364.667969 1219.875 365.496094 C 1219.128906 366.324219 1218.410156 367.179688 1217.714844 368.050781 C 1216.332031 369.804688 1215.042969 371.636719 1213.855469 373.53125 C 1212.664062 375.421875 1211.578125 377.382812 1210.574219 379.382812 C 1209.570312 381.390625 1208.675781 383.4375 1207.871094 385.53125 C 1207.070312 387.621094 1206.386719 389.757812 1205.847656 391.933594 C 1205.300781 394.101562 1204.886719 396.308594 1204.636719 398.53125 C 1204.378906 400.757812 1204.3125 403 1204.421875 405.234375 C 1204.535156 407.464844 1204.832031 409.691406 1205.382812 411.851562 C 1205.941406 414.011719 1206.734375 416.113281 1207.824219 418.042969 C 1208.917969 419.964844 1210.320312 421.738281 1212.097656 423.027344 C 1212.980469 423.667969 1213.960938 424.175781 1215 424.472656 C 1216.039062 424.765625 1217.132812 424.84375 1218.191406 424.675781 L 1218.386719 424.644531 L 1218.507812 424.804688 C 1219.140625 425.636719 1219.867188 426.390625 1220.683594 427.027344 C 1221.496094 427.671875 1222.417969 428.167969 1223.386719 428.519531 C 1224.363281 428.863281 1225.394531 429.042969 1226.429688 429.078125 C 1227.472656 429.113281 1228.519531 429.015625 1229.546875 428.808594 C 1230.574219 428.597656 1231.585938 428.28125 1232.570312 427.90625 C 1233.558594 427.527344 1234.519531 427.078125 1235.457031 426.574219 C 1237.324219 425.566406 1239.101562 424.375 1240.78125 423.058594 C 1242.460938 421.742188 1244.054688 420.308594 1245.5625 418.789062 C 1247.066406 417.265625 1248.496094 415.667969 1249.835938 413.996094 C 1250.507812 413.160156 1251.160156 412.308594 1251.785156 411.4375 C 1252.410156 410.566406 1253.015625 409.679688 1253.597656 408.78125 C 1254.757812 406.976562 1255.816406 405.109375 1256.78125 403.195312 M 1256.851562 403.230469 C 1255.894531 405.152344 1254.835938 407.023438 1253.683594 408.835938 C 1253.113281 409.746094 1252.519531 410.640625 1251.902344 411.523438 C 1251.285156 412.402344 1250.648438 413.265625 1249.992188 414.117188 C 1248.683594 415.824219 1247.285156 417.460938 1245.804688 419.023438 C 1244.320312 420.582031 1242.75 422.0625 1241.082031 423.433594 C 1239.410156 424.796875 1237.644531 426.0625 1235.75 427.113281 C 1233.855469 428.164062 1231.828125 429.023438 1229.683594 429.476562 C 1228.613281 429.703125 1227.507812 429.8125 1226.40625 429.785156 C 1225.304688 429.746094 1224.199219 429.546875 1223.152344 429.175781 C 1222.109375 428.796875 1221.121094 428.265625 1220.257812 427.574219 C 1219.390625 426.886719 1218.632812 426.078125 1217.976562 425.199219 L 1218.292969 425.328125 C 1217.132812 425.503906 1215.9375 425.40625 1214.824219 425.066406 C 1213.710938 424.726562 1212.679688 424.167969 1211.761719 423.480469 C 1209.921875 422.097656 1208.515625 420.242188 1207.429688 418.261719 C 1206.351562 416.269531 1205.585938 414.125 1205.0625 411.933594 C 1204.539062 409.738281 1204.242188 407.496094 1204.148438 405.246094 C 1204.050781 402.996094 1204.148438 400.742188 1204.394531 398.507812 C 1204.636719 396.269531 1205.042969 394.050781 1205.578125 391.867188 C 1205.847656 390.773438 1206.144531 389.6875 1206.480469 388.613281 C 1206.804688 387.535156 1207.167969 386.472656 1207.550781 385.414062 C 1208.328125 383.304688 1209.207031 381.21875 1210.183594 379.195312 C 1211.164062 377.164062 1212.222656 375.171875 1213.394531 373.246094 C 1214.558594 371.3125 1215.839844 369.453125 1217.21875 367.664062 C 1217.914062 366.773438 1218.636719 365.902344 1219.378906 365.054688 C 1220.132812 364.207031 1220.910156 363.386719 1221.714844 362.589844 C 1223.328125 361.003906 1225.066406 359.539062 1226.921875 358.234375 C 1228.78125 356.933594 1230.769531 355.804688 1232.875 354.933594 C 1234.984375 354.066406 1237.21875 353.464844 1239.515625 353.304688 C 1241.800781 353.152344 1244.171875 353.472656 1246.277344 354.476562 C 1247.328125 354.976562 1248.308594 355.628906 1249.15625 356.429688 C 1250.011719 357.214844 1250.71875 358.152344 1251.3125 359.144531 L 1250.867188 358.953125 C 1251.414062 358.847656 1251.964844 358.765625 1252.527344 358.769531 C 1253.089844 358.773438 1253.65625 358.820312 1254.199219 358.964844 C 1254.746094 359.101562 1255.277344 359.300781 1255.773438 359.566406 C 1256.265625 359.835938 1256.726562 360.160156 1257.148438 360.519531 C 1257.980469 361.253906 1258.675781 362.117188 1259.230469 363.054688 C 1259.796875 363.984375 1260.25 364.96875 1260.621094 365.980469 C 1261.367188 368 1261.824219 370.101562 1262.117188 372.21875 C 1262.265625 373.273438 1262.359375 374.335938 1262.421875 375.398438 C 1262.484375 376.464844 1262.511719 377.527344 1262.503906 378.59375 C 1262.488281 380.722656 1262.347656 382.84375 1262.101562 384.957031 C 1261.855469 387.066406 1261.488281 389.164062 1261.027344 391.234375 C 1260.789062 392.269531 1260.527344 393.296875 1260.246094 394.320312 C 1259.960938 395.339844 1259.636719 396.355469 1259.292969 397.355469 C 1258.949219 398.359375 1258.582031 399.355469 1258.171875 400.335938 C 1257.765625 401.3125 1257.324219 402.28125 1256.851562 403.230469 " fill-opacity="1" fill-rule="nonzero"/></g></g></g></g><g clip-path="url(#d84b868155)"><g clip-path="url(#7dca4c3a62)"><g clip-path="url(#8223982263)"><g clip-path="url(#2fae587236)"><path fill="#663920" d="M 1216.792969 424.757812 C 1207.832031 405.773438 1211.464844 386.207031 1212.660156 378.746094 C 1212.925781 377.082031 1213.277344 375.433594 1213.6875 373.796875 C 1213.746094 373.707031 1213.800781 373.621094 1213.855469 373.53125 C 1215.042969 371.636719 1216.332031 369.804688 1217.714844 368.050781 C 1218.410156 367.179688 1219.128906 366.324219 1219.875 365.496094 C 1220.625 364.667969 1221.398438 363.863281 1222.203125 363.089844 C 1223.261719 362.066406 1224.367188 361.09375 1225.527344 360.1875 C 1222.984375 364.824219 1221.253906 369.890625 1219.894531 375.066406 C 1217.804688 383.015625 1216.40625 391.589844 1217.570312 399.773438 C 1218.160156 403.894531 1219.410156 407.914062 1220.492188 411.917969 C 1221.800781 416.773438 1222.710938 421.917969 1217.71875 424.734375 C 1217.410156 424.761719 1217.101562 424.769531 1216.792969 424.757812 " fill-opacity="1" fill-rule="nonzero"/></g></g></g></g><g clip-path="url(#30db9bbabe)"><g clip-path="url(#bfc9f922ee)"><g clip-path="url(#b7f6458d48)"><g clip-path="url(#e483a17bdb)"><path fill="#261f26" d="M 1210.46875 421.984375 C 1207.714844 419.230469 1205.523438 414.75 1204.648438 408.988281 C 1205.523438 414.746094 1207.714844 419.222656 1210.464844 421.976562 C 1212.429688 423.941406 1214.679688 425.027344 1216.945312 425.070312 C 1216.894531 424.96875 1216.84375 424.863281 1216.792969 424.757812 C 1217.101562 424.769531 1217.410156 424.761719 1217.71875 424.734375 C 1217.597656 424.800781 1217.476562 424.867188 1217.351562 424.929688 C 1217.261719 424.976562 1217.1875 425.027344 1217.117188 425.082031 C 1214.792969 425.089844 1212.480469 424 1210.46875 421.984375 M 1209.90625 380.265625 C 1214.417969 370.691406 1220.160156 363.769531 1225.976562 359.390625 C 1225.824219 359.652344 1225.671875 359.917969 1225.527344 360.1875 C 1224.367188 361.09375 1223.261719 362.066406 1222.203125 363.089844 C 1221.398438 363.863281 1220.625 364.667969 1219.875 365.496094 C 1219.128906 366.324219 1218.410156 367.179688 1217.714844 368.050781 C 1216.332031 369.804688 1215.042969 371.636719 1213.855469 373.53125 C 1213.800781 373.621094 1213.746094 373.707031 1213.6875 373.796875 C 1213.761719 373.507812 1213.835938 373.222656 1213.914062 372.933594 C 1212.5 375.179688 1211.15625 377.617188 1209.90625 380.265625 " fill-opacity="1" fill-rule="nonzero"/></g></g></g></g><g clip-path="url(#6e01409b9e)"><g clip-path="url(#83c2d369c7)"><g clip-path="url(#7f9f0ead80)"><g clip-path="url(#d61f56b3ed)"><path fill="#261f26" d="M 1204.648438 408.988281 C 1203.507812 401.460938 1204.613281 391.75 1209.644531 380.835938 C 1209.730469 380.644531 1209.820312 380.457031 1209.90625 380.265625 C 1209.820312 380.457031 1209.730469 380.644531 1209.644531 380.835938 C 1204.613281 391.746094 1203.507812 401.460938 1204.648438 408.988281 " fill-opacity="1" fill-rule="nonzero"/></g></g></g></g><g clip-path="url(#b495c4e67c)"><g clip-path="url(#9bb155bd55)"><g clip-path="url(#fe17033fba)"><g clip-path="url(#c559be0806)"><path fill="#5e301c" d="M 1210.570312 421.71875 C 1209.492188 420.640625 1208.585938 419.378906 1207.824219 418.042969 C 1206.734375 416.113281 1205.941406 414.011719 1205.382812 411.851562 C 1204.832031 409.691406 1204.535156 407.464844 1204.421875 405.234375 C 1204.3125 403 1204.378906 400.757812 1204.636719 398.53125 C 1204.886719 396.308594 1205.300781 394.101562 1205.847656 391.933594 C 1206.386719 389.757812 1207.070312 387.621094 1207.871094 385.53125 C 1208.675781 383.4375 1209.570312 381.390625 1210.574219 379.382812 C 1211.53125 377.476562 1212.5625 375.605469 1213.6875 373.796875 C 1213.277344 375.433594 1212.925781 377.082031 1212.660156 378.746094 C 1211.464844 386.207031 1207.832031 405.773438 1216.792969 424.757812 C 1216.1875 424.734375 1215.585938 424.636719 1215 424.472656 C 1213.960938 424.175781 1212.980469 423.667969 1212.097656 423.027344 C 1211.554688 422.632812 1211.046875 422.195312 1210.570312 421.71875 " fill-opacity="1" fill-rule="nonzero"/></g></g></g></g><g clip-path="url(#2cb80e7462)"><g clip-path="url(#5ff181dd15)"><g clip-path="url(#17b81ff63e)"><g clip-path="url(#ee32ffab60)"><path fill="#241b20" d="M 1210.464844 421.976562 C 1207.714844 419.222656 1205.523438 414.746094 1204.648438 408.988281 C 1203.507812 401.460938 1204.613281 391.746094 1209.644531 380.835938 C 1209.730469 380.644531 1209.820312 380.457031 1209.90625 380.265625 C 1211.15625 377.617188 1212.5 375.179688 1213.914062 372.933594 C 1213.835938 373.222656 1213.761719 373.507812 1213.6875 373.796875 C 1212.5625 375.605469 1211.53125 377.476562 1210.574219 379.382812 C 1209.570312 381.390625 1208.675781 383.4375 1207.871094 385.53125 C 1207.070312 387.621094 1206.386719 389.757812 1205.847656 391.933594 C 1205.300781 394.101562 1204.886719 396.308594 1204.636719 398.53125 C 1204.378906 400.757812 1204.3125 403 1204.421875 405.234375 C 1204.535156 407.464844 1204.832031 409.691406 1205.382812 411.851562 C 1205.941406 414.011719 1206.734375 416.113281 1207.824219 418.042969 C 1208.585938 419.378906 1209.492188 420.640625 1210.570312 421.71875 C 1211.046875 422.195312 1211.554688 422.632812 1212.097656 423.027344 C 1212.980469 423.667969 1213.960938 424.175781 1215 424.472656 C 1215.585938 424.636719 1216.1875 424.734375 1216.792969 424.757812 C 1216.84375 424.863281 1216.894531 424.96875 1216.945312 425.070312 C 1214.679688 425.027344 1212.429688 423.941406 1210.464844 421.976562 " fill-opacity="1" fill-rule="nonzero"/></g></g></g></g><g clip-path="url(#5d7fa327b8)"><g clip-path="url(#68d7c34510)"><g clip-path="url(#40fca0d403)"><g clip-path="url(#dcfd53c9ed)"><path fill="#542a19" d="M 1218.519531 424.445312 C 1218.519531 424.445312 1227.496094 417.246094 1228.242188 415.78125 C 1228.433594 415.414062 1228.625 415.046875 1228.820312 414.667969 C 1229 414.277344 1229.183594 413.882812 1229.371094 413.480469 C 1229.769531 412.699219 1230.089844 411.832031 1230.46875 410.976562 C 1231.195312 409.242188 1231.878906 407.375 1232.546875 405.429688 C 1233.195312 403.472656 1233.835938 401.441406 1234.414062 399.34375 C 1235.011719 397.238281 1235.574219 395.132812 1236.117188 392.929688 C 1236.644531 390.730469 1237.171875 388.53125 1237.691406 386.367188 C 1238.230469 384.179688 1238.777344 382.003906 1239.398438 379.894531 C 1240.019531 377.789062 1240.6875 375.746094 1241.480469 373.835938 C 1243.511719 363.445312 1250.214844 360.835938 1250.214844 360.835938 C 1250.214844 360.835938 1253.355469 359.621094 1253.789062 360.058594 C 1253.964844 360.234375 1253.707031 360.671875 1252.640625 361.558594 C 1252.238281 361.917969 1251.695312 362.5 1251.050781 363.234375 C 1250.414062 363.980469 1249.753906 364.960938 1249.085938 366.097656 C 1248.417969 367.242188 1247.851562 368.621094 1247.304688 370.144531 C 1246.234375 373.207031 1245.492188 376.976562 1244.800781 381.132812 C 1244.449219 383.234375 1244.089844 385.40625 1243.71875 387.613281 C 1243.320312 389.835938 1242.917969 392.113281 1242.382812 394.40625 C 1241.890625 396.667969 1241.230469 398.976562 1240.546875 401.199219 C 1240.152344 402.304688 1239.800781 403.40625 1239.386719 404.476562 C 1238.945312 405.546875 1238.527344 406.597656 1238.0625 407.621094 C 1237.117188 409.65625 1236.101562 411.585938 1234.984375 413.335938 C 1234.429688 414.214844 1233.871094 415.050781 1233.273438 415.832031 C 1232.710938 416.628906 1232.09375 417.351562 1231.496094 418.035156 C 1230.308594 419.414062 1229.0625 420.550781 1227.902344 421.46875 C 1226.734375 422.386719 1225.648438 423.089844 1224.683594 423.546875 C 1223.75 424.042969 1222.933594 424.28125 1222.398438 424.4375 C 1221.859375 424.5625 1218.519531 424.445312 1218.519531 424.445312 " fill-opacity="1" fill-rule="nonzero"/></g></g></g></g><g clip-path="url(#1e82ceec5d)"><g clip-path="url(#3fad68f228)"><g clip-path="url(#9647df97a0)"><g clip-path="url(#39feadf962)"><path fill="#ffffff" d="M 1257.824219 374.269531 C 1259.675781 387.199219 1253.851562 402.664062 1253.851562 402.664062 C 1253.851562 402.664062 1269.082031 369.953125 1253.542969 363.234375 C 1253.882812 364.691406 1256.71875 366.5625 1257.824219 374.269531 " fill-opacity="1" fill-rule="nonzero"/></g></g></g></g><g clip-path="url(#185e2637d2)"><g clip-path="url(#075a26b631)"><g clip-path="url(#ee775bff49)"><g clip-path="url(#7a0acd3c0c)"><path fill="#351f17" d="M 1218.519531 424.445312 C 1218.519531 424.445312 1218.753906 424.265625 1219.1875 423.921875 C 1219.59375 423.570312 1220.152344 423.03125 1220.808594 422.296875 C 1221.136719 421.933594 1221.480469 421.515625 1221.828125 421.035156 C 1222.199219 420.59375 1222.550781 420.054688 1222.941406 419.511719 C 1223.667969 418.378906 1224.449219 417.089844 1225.199219 415.625 C 1225.386719 415.261719 1225.578125 414.894531 1225.777344 414.515625 C 1225.957031 414.125 1226.140625 413.730469 1226.328125 413.328125 C 1226.726562 412.542969 1227.046875 411.675781 1227.425781 410.824219 C 1228.152344 409.089844 1228.832031 407.21875 1229.503906 405.277344 C 1230.148438 403.320312 1230.789062 401.289062 1231.371094 399.191406 C 1231.964844 397.085938 1232.527344 394.980469 1233.074219 392.777344 C 1233.601562 390.578125 1234.128906 388.378906 1234.648438 386.214844 C 1235.1875 384.023438 1235.734375 381.851562 1236.355469 379.742188 C 1236.976562 377.636719 1237.644531 375.589844 1238.433594 373.683594 C 1239.214844 371.773438 1240.085938 369.992188 1241.074219 368.4375 C 1242.039062 366.875 1243.152344 365.566406 1244.207031 364.511719 C 1245.253906 363.445312 1246.347656 362.714844 1247.230469 362.15625 C 1248.140625 361.621094 1248.902344 361.3125 1249.414062 361.109375 C 1249.9375 360.933594 1250.214844 360.835938 1250.214844 360.835938 C 1250.214844 360.835938 1250 361.035156 1249.597656 361.40625 C 1249.195312 361.765625 1248.652344 362.347656 1248.007812 363.082031 C 1247.371094 363.828125 1246.710938 364.804688 1246.042969 365.945312 C 1245.375 367.089844 1244.804688 368.46875 1244.261719 369.992188 C 1243.191406 373.054688 1242.449219 376.820312 1241.757812 380.980469 C 1241.40625 383.082031 1241.046875 385.253906 1240.675781 387.457031 C 1240.277344 389.683594 1239.875 391.957031 1239.339844 394.25 C 1238.847656 396.515625 1238.1875 398.824219 1237.503906 401.046875 C 1237.109375 402.148438 1236.753906 403.253906 1236.34375 404.324219 C 1235.902344 405.394531 1235.484375 406.445312 1235.019531 407.46875 C 1234.070312 409.503906 1233.058594 411.433594 1231.941406 413.183594 C 1231.386719 414.0625 1230.828125 414.898438 1230.230469 415.675781 C 1229.667969 416.476562 1229.050781 417.199219 1228.449219 417.882812 C 1227.265625 419.261719 1226.015625 420.402344 1224.859375 421.316406 C 1223.6875 422.234375 1222.605469 422.9375 1221.640625 423.394531 C 1220.707031 423.886719 1219.890625 424.128906 1219.351562 424.285156 C 1218.8125 424.410156 1218.519531 424.445312 1218.519531 424.445312 " fill-opacity="1" fill-rule="nonzero"/></g></g></g></g><g clip-path="url(#7512fd5f67)"><g clip-path="url(#01d7bc0972)"><g clip-path="url(#4819049696)"><g clip-path="url(#da8bdaab29)"><path fill="#7b4a25" d="M 1226.316406 427.261719 C 1225.738281 426.683594 1241.839844 415.109375 1244.609375 392.160156 C 1246.019531 380.488281 1250.292969 363.972656 1252.132812 364.632812 C 1252.226562 364.664062 1252.324219 364.734375 1252.433594 364.839844 C 1254.472656 366.882812 1258.964844 382.164062 1253.167969 398.316406 C 1250.488281 405.773438 1243.816406 424.96875 1226.453125 427.277344 C 1226.382812 427.289062 1226.335938 427.28125 1226.316406 427.261719 " fill-opacity="1" fill-rule="nonzero"/></g></g></g></g><g clip-path="url(#85678f65c4)"><g clip-path="url(#00b9226325)"><g clip-path="url(#9066607d21)"><g clip-path="url(#424e75643b)"><path fill="#7b4a25" d="M 1223.375 412.621094 C 1219.96875 409.214844 1220.128906 386.339844 1221.621094 379.332031 C 1227.523438 351.636719 1245.132812 356.945312 1249.09375 358.359375 C 1249.34375 358.449219 1249.507812 358.535156 1249.59375 358.621094 C 1250.929688 359.957031 1235.363281 361.910156 1232.148438 381.40625 C 1230.925781 388.835938 1227.878906 414.398438 1223.917969 412.984375 C 1223.726562 412.914062 1223.546875 412.792969 1223.375 412.621094 " fill-opacity="1" fill-rule="nonzero"/></g></g></g></g><g clip-path="url(#f3ded0a252)"><g clip-path="url(#4382b5ad40)"><g clip-path="url(#bab4562a20)"><path fill="#322f30" d="M 498.015625 291.167969 C 503.183594 286.101562 507.453125 273.621094 508.722656 267.917969 C 516.1875 234.363281 500.085938 201.0625 482.785156 173.382812 C 466.234375 146.902344 440.074219 106.011719 462.574219 75.703125 C 472.21875 62.703125 488.941406 57.304688 504.324219 55.070312 C 512.835938 53.84375 531.070312 54.074219 531.070312 54.074219 C 530.988281 54.09375 486.722656 64.003906 522.425781 150.722656 C 565.542969 255.433594 498.039062 291.15625 498.015625 291.167969 " fill-opacity="1" fill-rule="nonzero"/></g></g></g><g clip-path="url(#9815acf5d1)"><g clip-path="url(#6b1f3cfa73)"><g clip-path="url(#fdab838c5c)"><path fill="#ffae82" d="M 463.125 203.601562 C 519.972656 281.3125 471.488281 324.496094 471.46875 324.507812 C 474.710938 319.28125 475.703125 308.109375 475.59375 303.144531 C 474.945312 273.925781 454.894531 249.695312 434.988281 230.351562 C 415.949219 211.847656 386.054688 183.398438 398.480469 153.804688 C 403.8125 141.117188 416.515625 133.269531 428.769531 128.304688 C 435.542969 125.550781 450.648438 122.050781 450.648438 122.050781 C 450.578125 122.078125 416.042969 139.25 463.125 203.601562 " fill-opacity="1" fill-rule="nonzero"/></g></g></g><g clip-path="url(#3c1c57d8ca)"><g clip-path="url(#56ea5a7dc1)"><g clip-path="url(#d03bfa06f0)"><path fill="#322f30" d="M 192.1875 411.015625 C 203.507812 412.984375 214.628906 411.65625 224.597656 407.734375 C 222.679688 383.039062 223.769531 357.601562 228.238281 331.910156 C 230.089844 321.253906 232.5 310.859375 235.371094 300.695312 C 228.746094 296.410156 221.164062 293.34375 212.890625 291.90625 C 180.003906 286.191406 148.707031 308.21875 142.988281 341.105469 C 137.273438 374 159.300781 405.300781 192.1875 411.015625 Z M 217.480469 265.5 C 229.085938 267.519531 239.738281 271.753906 249.117188 277.675781 C 267.941406 263.695312 307.019531 255.324219 357.089844 254.542969 C 357.347656 254.535156 357.359375 254.917969 357.105469 254.941406 C 311 259.28125 280.65625 271.382812 277.414062 290.054688 C 271.085938 326.453125 370.066406 374.0625 498.492188 396.382812 C 591.4375 412.539062 674.324219 411.023438 715.429688 395.15625 C 715.652344 395.070312 715.8125 395.363281 715.621094 395.5 C 681.902344 419.871094 583.300781 424.929688 470.6875 405.355469 C 395.613281 392.308594 330.109375 371.050781 287.800781 348.164062 C 272.578125 495.140625 358.277344 626.429688 496.84375 650.515625 C 515.667969 653.789062 534.394531 654.855469 552.800781 653.914062 C 517.699219 663.558594 480.355469 665.824219 442.625 659.265625 C 330.140625 639.714844 247.257812 547.601562 227.96875 434.917969 C 215.292969 438.796875 201.554688 439.847656 187.597656 437.421875 C 140.128906 429.171875 108.332031 383.992188 116.585938 336.515625 C 124.835938 289.046875 170.011719 257.25 217.480469 265.5 " fill-opacity="1" fill-rule="nonzero"/></g></g></g><g fill="#322f30" fill-opacity="1"><g transform="translate(650.982933, 617.23703)"><g><path d="M 1.1875 -21.3125 C 1.1875 -27.46875 3.285156 -32.675781 7.484375 -36.9375 C 11.679688 -41.207031 16.738281 -43.34375 22.65625 -43.34375 C 28.601562 -43.34375 33.65625 -41.21875 37.8125 -36.96875 C 41.976562 -32.71875 44.0625 -27.5 44.0625 -21.3125 C 44.0625 -15.082031 42.015625 -9.84375 37.921875 -5.59375 C 33.828125 -1.34375 28.738281 0.78125 22.65625 0.78125 C 16.425781 0.78125 11.289062 -1.320312 7.25 -5.53125 C 3.207031 -9.75 1.1875 -15.007812 1.1875 -21.3125 Z M 11.65625 -21.3125 C 11.65625 -19.070312 12 -17.03125 12.6875 -15.1875 C 13.375 -13.351562 14.578125 -11.796875 16.296875 -10.515625 C 18.023438 -9.242188 20.144531 -8.609375 22.65625 -8.609375 C 26.257812 -8.609375 28.984375 -9.847656 30.828125 -12.328125 C 32.671875 -14.804688 33.59375 -17.800781 33.59375 -21.3125 C 33.59375 -24.78125 32.65625 -27.757812 30.78125 -30.25 C 28.90625 -32.75 26.195312 -34 22.65625 -34 C 19.144531 -34 16.429688 -32.75 14.515625 -30.25 C 12.609375 -27.757812 11.65625 -24.78125 11.65625 -21.3125 Z M 11.65625 -21.3125 "/></g></g></g><g fill="#322f30" fill-opacity="1"><g transform="translate(716.874074, 617.23703)"><g><path d="M 12.796875 -42.5625 L 12.796875 0 L 3.09375 0 L 3.09375 -42.5625 Z M 12.796875 -42.5625 "/></g></g></g><g fill="#322f30" fill-opacity="1"><g transform="translate(753.406153, 617.23703)"><g><path d="M 12.796875 -26.421875 L 12.796875 0 L 3.09375 0 L 3.09375 -42.5625 L 12.796875 -42.5625 L 29.71875 -16.15625 L 29.828125 -16.15625 L 29.828125 -42.5625 L 39.515625 -42.5625 L 39.515625 0 L 29.828125 0 L 12.90625 -26.421875 Z M 12.796875 -26.421875 "/></g></g></g><g fill="#322f30" fill-opacity="1"><g transform="translate(816.665817, 617.23703)"><g><path d="M 0.40625 -34.046875 L 0.40625 -42.5625 L 30.34375 -42.5625 L 30.34375 -34.046875 L 20.21875 -34.046875 L 20.21875 0 L 10.53125 0 L 10.53125 -34.046875 Z M 0.40625 -34.046875 "/></g></g></g><g fill="#322f30" fill-opacity="1"><g transform="translate(868.058026, 617.23703)"><g/></g></g><g fill="#322f30" fill-opacity="1"><g transform="translate(902.784182, 617.23703)"><g><path d="M 1.1875 -21.3125 C 1.1875 -27.46875 3.285156 -32.675781 7.484375 -36.9375 C 11.679688 -41.207031 16.738281 -43.34375 22.65625 -43.34375 C 28.601562 -43.34375 33.65625 -41.21875 37.8125 -36.96875 C 41.976562 -32.71875 44.0625 -27.5 44.0625 -21.3125 C 44.0625 -15.082031 42.015625 -9.84375 37.921875 -5.59375 C 33.828125 -1.34375 28.738281 0.78125 22.65625 0.78125 C 16.425781 0.78125 11.289062 -1.320312 7.25 -5.53125 C 3.207031 -9.75 1.1875 -15.007812 1.1875 -21.3125 Z M 11.65625 -21.3125 C 11.65625 -19.070312 12 -17.03125 12.6875 -15.1875 C 13.375 -13.351562 14.578125 -11.796875 16.296875 -10.515625 C 18.023438 -9.242188 20.144531 -8.609375 22.65625 -8.609375 C 26.257812 -8.609375 28.984375 -9.847656 30.828125 -12.328125 C 32.671875 -14.804688 33.59375 -17.800781 33.59375 -21.3125 C 33.59375 -24.78125 32.65625 -27.757812 30.78125 -30.25 C 28.90625 -32.75 26.195312 -34 22.65625 -34 C 19.144531 -34 16.429688 -32.75 14.515625 -30.25 C 12.609375 -27.757812 11.65625 -24.78125 11.65625 -21.3125 Z M 11.65625 -21.3125 "/></g></g></g><g fill="#322f30" fill-opacity="1"><g transform="translate(968.675323, 617.23703)"><g><path d="M 27.703125 -42.5625 L 27.703125 -34.046875 L 12.796875 -34.046875 L 12.796875 -25.59375 L 26.578125 -25.59375 L 26.578125 -17.078125 L 12.796875 -17.078125 L 12.796875 0 L 3.09375 0 L 3.09375 -42.5625 Z M 27.703125 -42.5625 "/></g></g></g><g fill="#322f30" fill-opacity="1"><g transform="translate(1018.571194, 617.23703)"><g/></g></g><g fill="#322f30" fill-opacity="1"><g transform="translate(1053.297351, 617.23703)"><g><path d="M 18.78125 -43.34375 C 21.082031 -43.34375 23.332031 -43.003906 25.53125 -42.328125 C 27.738281 -41.660156 29.375 -41 30.4375 -40.34375 L 31.984375 -39.3125 L 28.0625 -31.578125 C 27.757812 -31.785156 27.332031 -32.050781 26.78125 -32.375 C 26.226562 -32.695312 25.191406 -33.132812 23.671875 -33.6875 C 22.160156 -34.238281 20.753906 -34.515625 19.453125 -34.515625 C 17.835938 -34.515625 16.585938 -34.171875 15.703125 -33.484375 C 14.828125 -32.796875 14.390625 -31.867188 14.390625 -30.703125 C 14.390625 -30.117188 14.597656 -29.578125 15.015625 -29.078125 C 15.429688 -28.578125 16.132812 -28.039062 17.125 -27.46875 C 18.125 -26.90625 19 -26.453125 19.75 -26.109375 C 20.507812 -25.765625 21.679688 -25.25 23.265625 -24.5625 C 26.015625 -23.382812 28.359375 -21.789062 30.296875 -19.78125 C 32.242188 -17.769531 33.21875 -15.492188 33.21875 -12.953125 C 33.21875 -10.503906 32.78125 -8.367188 31.90625 -6.546875 C 31.03125 -4.722656 29.828125 -3.296875 28.296875 -2.265625 C 26.765625 -1.234375 25.070312 -0.46875 23.21875 0.03125 C 21.363281 0.53125 19.351562 0.78125 17.1875 0.78125 C 15.320312 0.78125 13.492188 0.585938 11.703125 0.203125 C 9.921875 -0.171875 8.425781 -0.640625 7.21875 -1.203125 C 6.019531 -1.773438 4.9375 -2.335938 3.96875 -2.890625 C 3.007812 -3.441406 2.304688 -3.90625 1.859375 -4.28125 L 1.1875 -4.84375 L 6.03125 -13 C 6.445312 -12.65625 7.015625 -12.21875 7.734375 -11.6875 C 8.460938 -11.15625 9.742188 -10.441406 11.578125 -9.546875 C 13.421875 -8.648438 15.046875 -8.203125 16.453125 -8.203125 C 20.546875 -8.203125 22.59375 -9.59375 22.59375 -12.375 C 22.59375 -12.96875 22.445312 -13.507812 22.15625 -14 C 21.863281 -14.5 21.347656 -15 20.609375 -15.5 C 19.867188 -16 19.210938 -16.394531 18.640625 -16.6875 C 18.078125 -16.976562 17.148438 -17.425781 15.859375 -18.03125 C 14.578125 -18.632812 13.625 -19.09375 13 -19.40625 C 10.414062 -20.675781 8.421875 -22.265625 7.015625 -24.171875 C 5.609375 -26.078125 4.90625 -28.132812 4.90625 -30.34375 C 4.90625 -34.15625 6.3125 -37.273438 9.125 -39.703125 C 11.945312 -42.128906 15.164062 -43.34375 18.78125 -43.34375 Z M 18.78125 -43.34375 "/></g></g></g><g fill="#322f30" fill-opacity="1"><g transform="translate(1108.610992, 617.23703)"><g><path d="M 24.71875 -42.5625 L 41.890625 0 L 31.46875 0 L 28.328125 -8.515625 L 12.125 -8.515625 L 8.984375 0 L -1.4375 0 L 15.734375 -42.5625 Z M 25.015625 -17.03125 L 20.28125 -29.40625 L 20.171875 -29.40625 L 15.421875 -17.03125 Z M 25.015625 -17.03125 "/></g></g></g><g fill="#322f30" fill-opacity="1"><g transform="translate(1169.70358, 617.23703)"><g><path d="M 12.796875 -42.5625 L 12.796875 -8.515625 L 27.453125 -8.515625 L 27.453125 0 L 3.09375 0 L 3.09375 -42.5625 Z M 12.796875 -42.5625 "/></g></g></g><g fill="#322f30" fill-opacity="1"><g transform="translate(1219.496271, 617.23703)"><g><path d="M 27.453125 -42.5625 L 27.453125 -34.046875 L 12.796875 -34.046875 L 12.796875 -25.59375 L 26.828125 -25.59375 L 26.828125 -17.078125 L 12.796875 -17.078125 L 12.796875 -8.515625 L 27.453125 -8.515625 L 27.453125 0 L 3.09375 0 L 3.09375 -42.5625 Z M 27.453125 -42.5625 "/></g></g></g></svg>