<svg xmlns="http://www.w3.org/2000/svg" xmlns:xlink="http://www.w3.org/1999/xlink" width="200" zoomAndPan="magnify" viewBox="0 0 150 149.999998" height="200" preserveAspectRatio="xMidYMid meet" version="1.0"><defs><g/><clipPath id="27cce5944e"><path d="M 34.671875 20.5 L 116.078125 20.5 L 116.078125 120.988281 L 34.671875 120.988281 Z M 34.671875 20.5 " clip-rule="nonzero"/></clipPath><clipPath id="7478992b1c"><path d="M 61.820312 22.851562 C 65.980469 21.433594 70.738281 20.5 75.398438 20.5 C 80.054688 20.5 84.535156 21.296875 88.664062 22.71875 C 88.753906 22.761719 88.839844 22.761719 88.929688 22.804688 C 104.4375 28.484375 115.859375 43.476562 116.078125 60.996094 L 116.078125 120.695312 L 34.671875 120.695312 L 34.671875 61.039062 C 34.890625 43.386719 46.136719 28.394531 61.820312 22.851562 Z M 61.820312 22.851562 " clip-rule="nonzero"/></clipPath><clipPath id="ae2f6b30b9"><path d="M 55.316406 28.859375 L 95.546875 28.859375 L 95.546875 58.886719 L 55.316406 58.886719 Z M 55.316406 28.859375 " clip-rule="nonzero"/></clipPath><clipPath id="0795fcf7f5"><path d="M 75.375 28.859375 C 64.296875 28.859375 55.316406 35.582031 55.316406 43.871094 C 55.316406 52.164062 64.296875 58.886719 75.375 58.886719 C 86.453125 58.886719 95.433594 52.164062 95.433594 43.871094 C 95.433594 35.582031 86.453125 28.859375 75.375 28.859375 Z M 75.375 28.859375 " clip-rule="nonzero"/></clipPath><clipPath id="f09bd92819"><path d="M 25.277344 49.261719 L 125.472656 49.261719 L 125.472656 149.457031 L 25.277344 149.457031 Z M 25.277344 49.261719 " clip-rule="nonzero"/></clipPath><clipPath id="c288a10a9b"><path d="M 75.375 49.261719 C 47.707031 49.261719 25.277344 71.691406 25.277344 99.359375 C 25.277344 127.027344 47.707031 149.457031 75.375 149.457031 C 103.042969 149.457031 125.472656 127.027344 125.472656 99.359375 C 125.472656 71.691406 103.042969 49.261719 75.375 49.261719 Z M 75.375 49.261719 " clip-rule="nonzero"/></clipPath><clipPath id="a8d594e697"><path d="M 3 82 L 24 82 L 24 120 L 3 120 Z M 3 82 " clip-rule="nonzero"/></clipPath><clipPath id="9cb9963183"><path d="M 3.511719 120.464844 L 2.636719 82.488281 L 22.847656 82.023438 L 23.722656 119.996094 Z M 3.511719 120.464844 " clip-rule="nonzero"/></clipPath><clipPath id="500c22506d"><path d="M 4.433594 107.78125 C 3.65625 105.859375 3.125 103.652344 3.074219 101.484375 C 3.023438 99.3125 3.390625 97.214844 4.078125 95.273438 C 4.097656 95.230469 4.097656 95.191406 4.121094 95.148438 C 6.886719 87.855469 14.503906 82.351562 22.847656 82.058594 L 23.722656 119.996094 C 15.328125 120.089844 7.464844 115.023438 4.433594 107.78125 Z M 4.433594 107.78125 " clip-rule="nonzero"/></clipPath><clipPath id="39324b5a45"><path d="M 127.140625 82.519531 L 147.359375 82.519531 L 147.359375 120.5 L 127.140625 120.5 Z M 127.140625 82.519531 " clip-rule="nonzero"/></clipPath><clipPath id="8f7601dbaa"><path d="M 146.144531 95.175781 C 146.875 97.113281 147.359375 99.332031 147.359375 101.503906 C 147.359375 103.675781 146.945312 105.761719 146.210938 107.6875 C 146.1875 107.730469 146.1875 107.769531 146.167969 107.8125 C 143.234375 115.039062 135.492188 120.367188 127.140625 120.46875 L 127.140625 82.519531 C 135.535156 82.621094 143.28125 87.863281 146.144531 95.175781 Z M 146.144531 95.175781 " clip-rule="nonzero"/></clipPath><clipPath id="be79fee168"><path d="M 63.734375 32.328125 L 70.738281 32.328125 L 70.738281 46.335938 L 63.734375 46.335938 Z M 63.734375 32.328125 " clip-rule="nonzero"/></clipPath><clipPath id="f67c5ef40c"><path d="M 63.734375 35.832031 C 63.734375 33.898438 65.304688 32.328125 67.238281 32.328125 C 69.171875 32.328125 70.738281 33.898438 70.738281 35.832031 L 70.738281 42.835938 C 70.738281 44.769531 69.171875 46.335938 67.238281 46.335938 C 65.304688 46.335938 63.734375 44.769531 63.734375 42.835938 Z M 63.734375 35.832031 " clip-rule="nonzero"/></clipPath><clipPath id="e3c9250b61"><path d="M 79.300781 32.328125 L 86.304688 32.328125 L 86.304688 46.335938 L 79.300781 46.335938 Z M 79.300781 32.328125 " clip-rule="nonzero"/></clipPath><clipPath id="f57eb7dc69"><path d="M 79.300781 35.832031 C 79.300781 33.898438 80.871094 32.328125 82.804688 32.328125 C 84.738281 32.328125 86.304688 33.898438 86.304688 35.832031 L 86.304688 42.835938 C 86.304688 44.769531 84.738281 46.335938 82.804688 46.335938 C 80.871094 46.335938 79.300781 44.769531 79.300781 42.835938 Z M 79.300781 35.832031 " clip-rule="nonzero"/></clipPath><clipPath id="a10260fcae"><path d="M 44.464844 64.183594 L 106.40625 64.183594 L 106.40625 134.589844 L 44.464844 134.589844 Z M 44.464844 64.183594 " clip-rule="nonzero"/></clipPath><clipPath id="fa97198adb"><path d="M 49.863281 64.183594 L 101.007812 64.183594 C 103.988281 64.183594 106.40625 66.597656 106.40625 69.578125 L 106.40625 129.140625 C 106.40625 132.121094 103.988281 134.539062 101.007812 134.539062 L 49.863281 134.539062 C 46.882812 134.539062 44.464844 132.121094 44.464844 129.140625 L 44.464844 69.578125 C 44.464844 66.597656 46.882812 64.183594 49.863281 64.183594 Z M 49.863281 64.183594 " clip-rule="nonzero"/></clipPath><clipPath id="fb9d08316b"><path d="M 95 70 L 105 70 L 105 83 L 95 83 Z M 95 70 " clip-rule="nonzero"/></clipPath><clipPath id="f9926f1dde"><path d="M 101.429688 66.921875 L 109.03125 74.523438 L 98.578125 84.976562 L 90.976562 77.375 Z M 101.429688 66.921875 " clip-rule="nonzero"/></clipPath><clipPath id="3593b11df1"><path d="M 101.429688 66.921875 L 109.03125 74.523438 L 98.578125 84.976562 L 90.976562 77.375 Z M 101.429688 66.921875 " clip-rule="nonzero"/></clipPath><clipPath id="115945a7d6"><path d="M 101.429688 66.921875 L 109.03125 74.523438 L 98.578125 84.976562 L 90.976562 77.375 Z M 101.429688 66.921875 " clip-rule="nonzero"/></clipPath><clipPath id="ebe21a8983"><path d="M 96 71 L 99 71 L 99 82 L 96 82 Z M 96 71 " clip-rule="nonzero"/></clipPath><clipPath id="7f01022ce9"><path d="M 101.429688 66.921875 L 109.03125 74.523438 L 98.578125 84.976562 L 90.976562 77.375 Z M 101.429688 66.921875 " clip-rule="nonzero"/></clipPath><clipPath id="702d72e4f9"><path d="M 101.429688 66.921875 L 109.03125 74.523438 L 98.578125 84.976562 L 90.976562 77.375 Z M 101.429688 66.921875 " clip-rule="nonzero"/></clipPath><clipPath id="ac3413a921"><path d="M 101.429688 66.921875 L 109.03125 74.523438 L 98.578125 84.976562 L 90.976562 77.375 Z M 101.429688 66.921875 " clip-rule="nonzero"/></clipPath><clipPath id="ea4e4ac383"><path d="M 95 71 L 99 71 L 99 82 L 95 82 Z M 95 71 " clip-rule="nonzero"/></clipPath><clipPath id="711fb141e9"><path d="M 101.429688 66.921875 L 109.03125 74.523438 L 98.578125 84.976562 L 90.976562 77.375 Z M 101.429688 66.921875 " clip-rule="nonzero"/></clipPath><clipPath id="9c81e8238a"><path d="M 101.429688 66.921875 L 109.03125 74.523438 L 98.578125 84.976562 L 90.976562 77.375 Z M 101.429688 66.921875 " clip-rule="nonzero"/></clipPath><clipPath id="6369af7583"><path d="M 101.429688 66.921875 L 109.03125 74.523438 L 98.578125 84.976562 L 90.976562 77.375 Z M 101.429688 66.921875 " clip-rule="nonzero"/></clipPath><clipPath id="8977f03f80"><path d="M 95 74 L 97 74 L 97 80 L 95 80 Z M 95 74 " clip-rule="nonzero"/></clipPath><clipPath id="5f36051669"><path d="M 101.429688 66.921875 L 109.03125 74.523438 L 98.578125 84.976562 L 90.976562 77.375 Z M 101.429688 66.921875 " clip-rule="nonzero"/></clipPath><clipPath id="1970bc7489"><path d="M 101.429688 66.921875 L 109.03125 74.523438 L 98.578125 84.976562 L 90.976562 77.375 Z M 101.429688 66.921875 " clip-rule="nonzero"/></clipPath><clipPath id="3378c7180b"><path d="M 101.429688 66.921875 L 109.03125 74.523438 L 98.578125 84.976562 L 90.976562 77.375 Z M 101.429688 66.921875 " clip-rule="nonzero"/></clipPath><clipPath id="eedfa41b20"><path d="M 95 73 L 98 73 L 98 82 L 95 82 Z M 95 73 " clip-rule="nonzero"/></clipPath><clipPath id="7988b53b51"><path d="M 101.429688 66.921875 L 109.03125 74.523438 L 98.578125 84.976562 L 90.976562 77.375 Z M 101.429688 66.921875 " clip-rule="nonzero"/></clipPath><clipPath id="3b6262e41f"><path d="M 101.429688 66.921875 L 109.03125 74.523438 L 98.578125 84.976562 L 90.976562 77.375 Z M 101.429688 66.921875 " clip-rule="nonzero"/></clipPath><clipPath id="0f86638bfa"><path d="M 101.429688 66.921875 L 109.03125 74.523438 L 98.578125 84.976562 L 90.976562 77.375 Z M 101.429688 66.921875 " clip-rule="nonzero"/></clipPath><clipPath id="1679fc07ad"><path d="M 97 71 L 104 71 L 104 82 L 97 82 Z M 97 71 " clip-rule="nonzero"/></clipPath><clipPath id="aca148f9ce"><path d="M 101.429688 66.921875 L 109.03125 74.523438 L 98.578125 84.976562 L 90.976562 77.375 Z M 101.429688 66.921875 " clip-rule="nonzero"/></clipPath><clipPath id="33912e8c99"><path d="M 101.429688 66.921875 L 109.03125 74.523438 L 98.578125 84.976562 L 90.976562 77.375 Z M 101.429688 66.921875 " clip-rule="nonzero"/></clipPath><clipPath id="9a855c46ba"><path d="M 101.429688 66.921875 L 109.03125 74.523438 L 98.578125 84.976562 L 90.976562 77.375 Z M 101.429688 66.921875 " clip-rule="nonzero"/></clipPath><clipPath id="dde873170b"><path d="M 103 71 L 105 71 L 105 79 L 103 79 Z M 103 71 " clip-rule="nonzero"/></clipPath><clipPath id="9ef2e7dba2"><path d="M 101.429688 66.921875 L 109.03125 74.523438 L 98.578125 84.976562 L 90.976562 77.375 Z M 101.429688 66.921875 " clip-rule="nonzero"/></clipPath><clipPath id="4a2c37dc1c"><path d="M 101.429688 66.921875 L 109.03125 74.523438 L 98.578125 84.976562 L 90.976562 77.375 Z M 101.429688 66.921875 " clip-rule="nonzero"/></clipPath><clipPath id="a9f4802f7b"><path d="M 101.429688 66.921875 L 109.03125 74.523438 L 98.578125 84.976562 L 90.976562 77.375 Z M 101.429688 66.921875 " clip-rule="nonzero"/></clipPath><clipPath id="6f16fdbbe8"><path d="M 97 71 L 103 71 L 103 82 L 97 82 Z M 97 71 " clip-rule="nonzero"/></clipPath><clipPath id="c373efb9f3"><path d="M 101.429688 66.921875 L 109.03125 74.523438 L 98.578125 84.976562 L 90.976562 77.375 Z M 101.429688 66.921875 " clip-rule="nonzero"/></clipPath><clipPath id="689119b8be"><path d="M 101.429688 66.921875 L 109.03125 74.523438 L 98.578125 84.976562 L 90.976562 77.375 Z M 101.429688 66.921875 " clip-rule="nonzero"/></clipPath><clipPath id="a359787933"><path d="M 101.429688 66.921875 L 109.03125 74.523438 L 98.578125 84.976562 L 90.976562 77.375 Z M 101.429688 66.921875 " clip-rule="nonzero"/></clipPath><clipPath id="5b7c0bfd53"><path d="M 98 71 L 104 71 L 104 83 L 98 83 Z M 98 71 " clip-rule="nonzero"/></clipPath><clipPath id="90d9eaee6c"><path d="M 101.429688 66.921875 L 109.03125 74.523438 L 98.578125 84.976562 L 90.976562 77.375 Z M 101.429688 66.921875 " clip-rule="nonzero"/></clipPath><clipPath id="78a441423c"><path d="M 101.429688 66.921875 L 109.03125 74.523438 L 98.578125 84.976562 L 90.976562 77.375 Z M 101.429688 66.921875 " clip-rule="nonzero"/></clipPath><clipPath id="f4207eeb1c"><path d="M 101.429688 66.921875 L 109.03125 74.523438 L 98.578125 84.976562 L 90.976562 77.375 Z M 101.429688 66.921875 " clip-rule="nonzero"/></clipPath><clipPath id="5dc282e0ef"><path d="M 97 70 L 103 70 L 103 80 L 97 80 Z M 97 70 " clip-rule="nonzero"/></clipPath><clipPath id="384cda8aa7"><path d="M 101.429688 66.921875 L 109.03125 74.523438 L 98.578125 84.976562 L 90.976562 77.375 Z M 101.429688 66.921875 " clip-rule="nonzero"/></clipPath><clipPath id="c6eab4b58a"><path d="M 101.429688 66.921875 L 109.03125 74.523438 L 98.578125 84.976562 L 90.976562 77.375 Z M 101.429688 66.921875 " clip-rule="nonzero"/></clipPath><clipPath id="0007e89b98"><path d="M 101.429688 66.921875 L 109.03125 74.523438 L 98.578125 84.976562 L 90.976562 77.375 Z M 101.429688 66.921875 " clip-rule="nonzero"/></clipPath></defs><path stroke-linecap="butt" transform="matrix(0, -0.75, 0.75, 0, 72.839594, 62.109558)" fill="none" stroke-linejoin="miter" d="M 15.000244 2.000333 L 67.812747 2.000333 " stroke="#c17c4c" stroke-width="4" stroke-opacity="1" stroke-miterlimit="4"/><path stroke-linecap="round" transform="matrix(0, -0.75, 0.75, 0, 72.839594, 62.109558)" fill="none" stroke-linejoin="round" d="M 2.000244 2.000333 C 2.000244 -1.312167 4.687744 -3.999667 8.000244 -3.999667 C 11.312744 -3.999667 14.000244 -1.312167 14.000244 2.000333 C 14.000244 5.312834 11.312744 8.000334 8.000244 8.000334 C 4.687744 8.000334 2.000244 5.312834 2.000244 2.000333 " stroke="#c17c4c" stroke-width="4" stroke-opacity="1" stroke-miterlimit="4"/><path stroke-linecap="round" transform="matrix(0, -0.75, 0.75, 0, 72.839594, 62.109558)" fill="none" stroke-linejoin="round" d="M 80.812748 2.000333 C 80.812748 5.312834 78.125248 8.000334 74.812748 8.000334 C 71.500248 8.000334 68.812747 5.312834 68.812747 2.000333 C 68.812747 -1.312167 71.500248 -3.999667 74.812748 -3.999667 C 78.125248 -3.999667 80.812748 -1.312167 80.812748 2.000333 " stroke="#c17c4c" stroke-width="4" stroke-opacity="1" stroke-miterlimit="4"/><g clip-path="url(#27cce5944e)"><g clip-path="url(#7478992b1c)"><path fill="#ffae82" d="M 34.671875 20.5 L 116.078125 20.5 L 116.078125 120.667969 L 34.671875 120.667969 Z M 34.671875 20.5 " fill-opacity="1" fill-rule="nonzero"/></g></g><g clip-path="url(#ae2f6b30b9)"><g clip-path="url(#0795fcf7f5)"><path fill="#edcbb8" d="M 55.316406 28.859375 L 95.429688 28.859375 L 95.429688 58.886719 L 55.316406 58.886719 Z M 55.316406 28.859375 " fill-opacity="1" fill-rule="nonzero"/></g></g><g clip-path="url(#f09bd92819)"><g clip-path="url(#c288a10a9b)"><path fill="#f19c6d" d="M 25.277344 49.261719 L 125.472656 49.261719 L 125.472656 149.457031 L 25.277344 149.457031 Z M 25.277344 49.261719 " fill-opacity="1" fill-rule="nonzero"/></g></g><g clip-path="url(#a8d594e697)"><g clip-path="url(#9cb9963183)"><g clip-path="url(#500c22506d)"><path fill="#c17c4c" d="M 3.511719 120.464844 L 2.636719 82.488281 L 22.847656 82.023438 L 23.722656 119.996094 Z M 3.511719 120.464844 " fill-opacity="1" fill-rule="nonzero"/></g></g></g><g clip-path="url(#39324b5a45)"><g clip-path="url(#8f7601dbaa)"><path fill="#c17c4c" d="M 147.359375 82.519531 L 147.359375 120.5 L 127.140625 120.5 L 127.140625 82.519531 Z M 147.359375 82.519531 " fill-opacity="1" fill-rule="nonzero"/></g></g><g clip-path="url(#be79fee168)"><g clip-path="url(#f67c5ef40c)"><path fill="#f7f7f7" d="M 63.734375 46.335938 L 63.734375 32.328125 L 70.738281 32.328125 L 70.738281 46.335938 Z M 63.734375 46.335938 " fill-opacity="1" fill-rule="nonzero"/></g></g><g clip-path="url(#e3c9250b61)"><g clip-path="url(#f57eb7dc69)"><path fill="#f7f7f7" d="M 79.300781 46.335938 L 79.300781 32.328125 L 86.304688 32.328125 L 86.304688 46.335938 Z M 79.300781 46.335938 " fill-opacity="1" fill-rule="nonzero"/></g></g><g clip-path="url(#a10260fcae)"><g clip-path="url(#fa97198adb)"><path fill="#f7f7f7" d="M 44.464844 64.183594 L 106.402344 64.183594 L 106.402344 134.589844 L 44.464844 134.589844 Z M 44.464844 64.183594 " fill-opacity="1" fill-rule="nonzero"/></g></g><g fill="#322f30" fill-opacity="1"><g transform="translate(45.873779, 104.918773)"><g><path d="M 19.234375 -6.546875 C 20.335938 -6.546875 21.410156 -6.710938 22.453125 -7.046875 C 23.492188 -7.390625 24.257812 -7.710938 24.75 -8.015625 L 25.484375 -8.515625 L 28.5625 -2.34375 C 28.457031 -2.269531 28.316406 -2.164062 28.140625 -2.03125 C 27.960938 -1.90625 27.546875 -1.671875 26.890625 -1.328125 C 26.234375 -0.984375 25.53125 -0.679688 24.78125 -0.421875 C 24.039062 -0.160156 23.066406 0.0664062 21.859375 0.265625 C 20.648438 0.472656 19.398438 0.578125 18.109375 0.578125 C 15.160156 0.578125 12.363281 -0.144531 9.71875 -1.59375 C 7.070312 -3.050781 4.9375 -5.050781 3.3125 -7.59375 C 1.695312 -10.132812 0.890625 -12.882812 0.890625 -15.84375 C 0.890625 -18.082031 1.363281 -20.226562 2.3125 -22.28125 C 3.257812 -24.332031 4.523438 -26.09375 6.109375 -27.5625 C 7.691406 -29.03125 9.535156 -30.195312 11.640625 -31.0625 C 13.742188 -31.9375 15.898438 -32.375 18.109375 -32.375 C 20.171875 -32.375 22.066406 -32.128906 23.796875 -31.640625 C 25.535156 -31.160156 26.765625 -30.675781 27.484375 -30.1875 L 28.5625 -29.453125 L 25.484375 -23.28125 C 25.296875 -23.4375 25.019531 -23.625 24.65625 -23.84375 C 24.300781 -24.0625 23.582031 -24.347656 22.5 -24.703125 C 21.425781 -25.066406 20.335938 -25.25 19.234375 -25.25 C 17.484375 -25.25 15.914062 -24.960938 14.53125 -24.390625 C 13.144531 -23.828125 12.046875 -23.082031 11.234375 -22.15625 C 10.421875 -21.238281 9.800781 -20.242188 9.375 -19.171875 C 8.957031 -18.109375 8.75 -17.023438 8.75 -15.921875 C 8.75 -13.503906 9.65625 -11.335938 11.46875 -9.421875 C 13.28125 -7.503906 15.867188 -6.546875 19.234375 -6.546875 Z M 19.234375 -6.546875 "/></g></g></g><g fill="#322f30" fill-opacity="1"><g transform="translate(71.617554, 104.918773)"><g><path d="M 2.3125 0 L 2.3125 -33.15625 L 9.140625 -33.15625 L 9.140625 -17.6875 L 9.21875 -17.6875 C 10.988281 -19.46875 12.875 -20.359375 14.875 -20.359375 C 15.851562 -20.359375 16.820312 -20.226562 17.78125 -19.96875 C 18.75 -19.707031 19.675781 -19.304688 20.5625 -18.765625 C 21.445312 -18.234375 22.164062 -17.472656 22.71875 -16.484375 C 23.269531 -15.492188 23.546875 -14.34375 23.546875 -13.03125 L 23.546875 0 L 16.734375 0 L 16.734375 -11.171875 C 16.734375 -12.203125 16.40625 -13.101562 15.75 -13.875 C 15.09375 -14.644531 14.238281 -15.03125 13.1875 -15.03125 C 12.15625 -15.03125 11.222656 -14.628906 10.390625 -13.828125 C 9.554688 -13.035156 9.140625 -12.148438 9.140625 -11.171875 L 9.140625 0 Z M 2.3125 0 "/></g></g></g><g fill="#322f30" fill-opacity="1"><g transform="translate(93.815761, 104.918773)"><g><path d="M 2.953125 -30.796875 C 3.753906 -31.597656 4.707031 -32 5.8125 -32 C 6.925781 -32 7.878906 -31.597656 8.671875 -30.796875 C 9.472656 -30.003906 9.875 -29.050781 9.875 -27.9375 C 9.875 -26.832031 9.472656 -25.882812 8.671875 -25.09375 C 7.878906 -24.300781 6.925781 -23.90625 5.8125 -23.90625 C 4.707031 -23.90625 3.753906 -24.300781 2.953125 -25.09375 C 2.160156 -25.882812 1.765625 -26.832031 1.765625 -27.9375 C 1.765625 -29.050781 2.160156 -30.003906 2.953125 -30.796875 Z M 2.3125 -19.78125 L 2.3125 0 L 9.140625 0 L 9.140625 -19.78125 Z M 2.3125 -19.78125 "/></g></g></g><g fill="#322f30" fill-opacity="1"><g transform="translate(102.184527, 104.918773)"><g/></g></g><g clip-path="url(#fb9d08316b)"><g clip-path="url(#f9926f1dde)"><g clip-path="url(#3593b11df1)"><g clip-path="url(#115945a7d6)"><path fill="#6f4323" d="M 103.835938 78.214844 C 102.308594 81.222656 98.953125 83.9375 97.429688 81.890625 C 95.777344 82.171875 94.042969 79 96.105469 74.625 C 98.203125 70.175781 101.839844 69.054688 102.960938 70.996094 C 105.03125 70.519531 105.363281 75.207031 103.835938 78.214844 " fill-opacity="1" fill-rule="nonzero"/><path fill="#29242c" d="M 103.832031 78.210938 C 103.988281 77.898438 104.125 77.570312 104.238281 77.238281 C 104.296875 77.070312 104.347656 76.902344 104.394531 76.734375 C 104.441406 76.566406 104.484375 76.394531 104.523438 76.222656 C 104.597656 75.882812 104.652344 75.535156 104.6875 75.1875 C 104.726562 74.839844 104.746094 74.492188 104.746094 74.144531 C 104.742188 73.796875 104.71875 73.449219 104.671875 73.109375 C 104.625 72.769531 104.550781 72.429688 104.429688 72.113281 C 104.371094 71.953125 104.296875 71.796875 104.210938 71.65625 C 104.125 71.511719 104.019531 71.382812 103.894531 71.273438 C 103.832031 71.222656 103.765625 71.175781 103.691406 71.136719 C 103.621094 71.101562 103.542969 71.074219 103.464844 71.054688 C 103.386719 71.035156 103.304688 71.03125 103.222656 71.03125 C 103.140625 71.03125 103.058594 71.046875 102.976562 71.0625 L 102.929688 71.070312 L 102.902344 71.03125 C 102.8125 70.878906 102.707031 70.738281 102.578125 70.617188 C 102.449219 70.5 102.300781 70.402344 102.140625 70.324219 C 101.820312 70.175781 101.457031 70.132812 101.097656 70.15625 C 100.734375 70.183594 100.378906 70.28125 100.039062 70.421875 C 99.699219 70.566406 99.375 70.75 99.070312 70.960938 C 98.765625 71.171875 98.480469 71.414062 98.214844 71.671875 C 98.078125 71.800781 97.949219 71.933594 97.824219 72.074219 C 97.699219 72.210938 97.578125 72.355469 97.460938 72.5 C 97.230469 72.792969 97.015625 73.097656 96.816406 73.410156 C 96.613281 73.726562 96.429688 74.050781 96.261719 74.382812 C 96.089844 74.714844 95.941406 75.054688 95.800781 75.402344 C 95.667969 75.75 95.550781 76.101562 95.457031 76.460938 C 95.359375 76.820312 95.289062 77.1875 95.242188 77.554688 C 95.195312 77.921875 95.179688 78.292969 95.191406 78.660156 C 95.207031 79.027344 95.25 79.394531 95.335938 79.75 C 95.425781 80.101562 95.550781 80.449219 95.726562 80.765625 C 95.902344 81.078125 96.128906 81.367188 96.421875 81.578125 C 96.566406 81.679688 96.726562 81.761719 96.894531 81.808594 C 97.066406 81.855469 97.246094 81.867188 97.421875 81.835938 L 97.453125 81.832031 L 97.472656 81.855469 C 97.574219 81.992188 97.695312 82.117188 97.828125 82.21875 C 97.960938 82.324219 98.109375 82.402344 98.269531 82.457031 C 98.429688 82.511719 98.601562 82.539062 98.769531 82.542969 C 98.941406 82.546875 99.117188 82.53125 99.285156 82.492188 C 99.457031 82.457031 99.621094 82.402344 99.785156 82.339844 C 99.949219 82.273438 100.109375 82.195312 100.265625 82.113281 C 100.574219 81.941406 100.871094 81.742188 101.148438 81.519531 C 101.429688 81.300781 101.695312 81.0625 101.949219 80.808594 C 102.199219 80.554688 102.4375 80.285156 102.664062 80.007812 C 102.773438 79.867188 102.882812 79.726562 102.988281 79.582031 C 103.09375 79.4375 103.195312 79.289062 103.292969 79.140625 C 103.488281 78.839844 103.667969 78.53125 103.832031 78.210938 M 103.84375 78.21875 C 103.679688 78.535156 103.5 78.847656 103.308594 79.148438 C 103.210938 79.300781 103.113281 79.449219 103.007812 79.59375 C 102.90625 79.742188 102.796875 79.886719 102.6875 80.027344 C 102.46875 80.3125 102.234375 80.585938 101.988281 80.84375 C 101.738281 81.105469 101.476562 81.351562 101.199219 81.582031 C 100.921875 81.8125 100.625 82.023438 100.3125 82.199219 C 99.996094 82.378906 99.660156 82.523438 99.304688 82.601562 C 99.128906 82.644531 98.949219 82.664062 98.765625 82.660156 C 98.582031 82.65625 98.402344 82.625 98.230469 82.566406 C 98.058594 82.507812 97.898438 82.421875 97.757812 82.308594 C 97.613281 82.199219 97.492188 82.066406 97.386719 81.921875 L 97.4375 81.941406 C 97.246094 81.976562 97.046875 81.960938 96.867188 81.90625 C 96.683594 81.855469 96.515625 81.765625 96.363281 81.652344 C 96.0625 81.429688 95.835938 81.125 95.660156 80.800781 C 95.488281 80.476562 95.367188 80.121094 95.285156 79.761719 C 95.203125 79.402344 95.15625 79.03125 95.148438 78.660156 C 95.136719 78.292969 95.15625 77.917969 95.203125 77.550781 C 95.246094 77.179688 95.316406 76.8125 95.410156 76.453125 C 95.457031 76.273438 95.507812 76.09375 95.566406 75.914062 C 95.621094 75.734375 95.683594 75.558594 95.75 75.382812 C 95.882812 75.035156 96.03125 74.6875 96.199219 74.351562 C 96.363281 74.015625 96.542969 73.6875 96.738281 73.367188 C 96.933594 73.042969 97.152344 72.734375 97.382812 72.4375 C 97.5 72.289062 97.621094 72.144531 97.742188 72 C 97.871094 71.859375 98 71.722656 98.132812 71.589844 C 98.402344 71.324219 98.695312 71.082031 99.003906 70.863281 C 99.3125 70.644531 99.640625 70.453125 99.992188 70.304688 C 100.339844 70.15625 100.710938 70.054688 101.089844 70.023438 C 101.464844 69.992188 101.855469 70.039062 102.203125 70.199219 C 102.375 70.28125 102.535156 70.386719 102.671875 70.515625 C 102.8125 70.644531 102.925781 70.796875 103.023438 70.960938 L 102.949219 70.929688 C 103.039062 70.910156 103.132812 70.894531 103.222656 70.894531 C 103.316406 70.894531 103.410156 70.902344 103.5 70.921875 C 103.589844 70.945312 103.675781 70.976562 103.757812 71.019531 C 103.835938 71.0625 103.914062 71.117188 103.980469 71.175781 C 104.117188 71.292969 104.230469 71.433594 104.320312 71.585938 C 104.410156 71.738281 104.484375 71.902344 104.542969 72.066406 C 104.660156 72.398438 104.730469 72.746094 104.777344 73.09375 C 104.796875 73.265625 104.8125 73.441406 104.820312 73.617188 C 104.828125 73.792969 104.828125 73.96875 104.828125 74.144531 C 104.820312 74.492188 104.792969 74.84375 104.746094 75.191406 C 104.703125 75.542969 104.636719 75.886719 104.554688 76.230469 C 104.515625 76.402344 104.46875 76.570312 104.421875 76.742188 C 104.371094 76.910156 104.316406 77.078125 104.257812 77.242188 C 104.199219 77.410156 104.136719 77.574219 104.066406 77.738281 C 103.996094 77.898438 103.921875 78.058594 103.84375 78.21875 " fill-opacity="1" fill-rule="nonzero"/></g></g></g></g><g clip-path="url(#ebe21a8983)"><g clip-path="url(#7f01022ce9)"><g clip-path="url(#702d72e4f9)"><g clip-path="url(#ac3413a921)"><path fill="#663920" d="M 97.191406 81.851562 C 95.753906 78.742188 96.394531 75.507812 96.605469 74.273438 C 96.65625 74 96.714844 73.726562 96.785156 73.457031 C 96.796875 73.441406 96.804688 73.425781 96.816406 73.410156 C 97.015625 73.097656 97.230469 72.792969 97.460938 72.5 C 97.578125 72.355469 97.699219 72.210938 97.824219 72.074219 C 97.949219 71.933594 98.078125 71.800781 98.214844 71.671875 C 98.390625 71.5 98.574219 71.339844 98.769531 71.1875 C 98.339844 71.957031 98.042969 72.796875 97.808594 73.652344 C 97.445312 74.96875 97.199219 76.382812 97.371094 77.730469 C 97.460938 78.410156 97.65625 79.070312 97.828125 79.726562 C 98.035156 80.523438 98.171875 81.371094 97.34375 81.847656 C 97.292969 81.851562 97.242188 81.855469 97.191406 81.851562 " fill-opacity="1" fill-rule="nonzero"/></g></g></g></g><g clip-path="url(#ea4e4ac383)"><g clip-path="url(#711fb141e9)"><g clip-path="url(#9c81e8238a)"><g clip-path="url(#6369af7583)"><path fill="#261f26" d="M 96.152344 81.410156 C 95.707031 80.960938 95.355469 80.226562 95.222656 79.277344 C 95.355469 80.226562 95.707031 80.960938 96.152344 81.40625 C 96.472656 81.726562 96.84375 81.902344 97.214844 81.902344 C 97.207031 81.886719 97.199219 81.871094 97.191406 81.851562 C 97.242188 81.855469 97.292969 81.851562 97.34375 81.847656 C 97.324219 81.859375 97.304688 81.867188 97.28125 81.878906 C 97.269531 81.886719 97.253906 81.894531 97.242188 81.90625 C 96.859375 81.910156 96.480469 81.738281 96.152344 81.410156 M 96.148438 74.53125 C 96.914062 72.941406 97.875 71.789062 98.84375 71.054688 C 98.816406 71.097656 98.792969 71.140625 98.769531 71.1875 C 98.574219 71.339844 98.390625 71.5 98.214844 71.671875 C 98.078125 71.800781 97.949219 71.933594 97.824219 72.074219 C 97.699219 72.210938 97.578125 72.355469 97.460938 72.5 C 97.230469 72.792969 97.015625 73.097656 96.816406 73.410156 C 96.804688 73.425781 96.796875 73.441406 96.785156 73.457031 C 96.800781 73.40625 96.8125 73.359375 96.824219 73.3125 C 96.589844 73.6875 96.359375 74.089844 96.148438 74.53125 " fill-opacity="1" fill-rule="nonzero"/></g></g></g></g><g clip-path="url(#8977f03f80)"><g clip-path="url(#5f36051669)"><g clip-path="url(#1970bc7489)"><g clip-path="url(#3378c7180b)"><path fill="#261f26" d="M 95.222656 79.277344 C 95.050781 78.039062 95.253906 76.433594 96.105469 74.625 C 96.121094 74.59375 96.136719 74.5625 96.148438 74.53125 C 96.136719 74.5625 96.121094 74.59375 96.105469 74.625 C 95.253906 76.433594 95.050781 78.039062 95.222656 79.277344 " fill-opacity="1" fill-rule="nonzero"/></g></g></g></g><g clip-path="url(#eedfa41b20)"><g clip-path="url(#7988b53b51)"><g clip-path="url(#3b6262e41f)"><g clip-path="url(#0f86638bfa)"><path fill="#5e301c" d="M 96.171875 81.363281 C 95.996094 81.1875 95.847656 80.984375 95.726562 80.765625 C 95.550781 80.449219 95.425781 80.101562 95.335938 79.75 C 95.25 79.394531 95.207031 79.027344 95.191406 78.660156 C 95.179688 78.292969 95.195312 77.921875 95.242188 77.554688 C 95.289062 77.1875 95.359375 76.820312 95.457031 76.460938 C 95.550781 76.101562 95.667969 75.75 95.800781 75.402344 C 95.941406 75.054688 96.089844 74.714844 96.261719 74.382812 C 96.421875 74.066406 96.597656 73.757812 96.785156 73.457031 C 96.714844 73.726562 96.65625 74 96.605469 74.273438 C 96.394531 75.507812 95.753906 78.742188 97.191406 81.851562 C 97.089844 81.851562 96.992188 81.835938 96.894531 81.808594 C 96.726562 81.761719 96.566406 81.679688 96.421875 81.578125 C 96.332031 81.511719 96.25 81.441406 96.171875 81.363281 " fill-opacity="1" fill-rule="nonzero"/><path fill="#241b20" d="M 96.152344 81.40625 C 95.707031 80.960938 95.355469 80.226562 95.222656 79.277344 C 95.050781 78.039062 95.253906 76.433594 96.105469 74.625 C 96.121094 74.59375 96.136719 74.5625 96.148438 74.53125 C 96.359375 74.089844 96.589844 73.6875 96.824219 73.3125 C 96.8125 73.359375 96.800781 73.40625 96.785156 73.457031 C 96.597656 73.757812 96.421875 74.066406 96.261719 74.382812 C 96.089844 74.714844 95.941406 75.054688 95.800781 75.402344 C 95.667969 75.75 95.550781 76.101562 95.457031 76.460938 C 95.359375 76.820312 95.289062 77.1875 95.242188 77.554688 C 95.195312 77.921875 95.179688 78.292969 95.191406 78.660156 C 95.207031 79.027344 95.25 79.394531 95.335938 79.75 C 95.425781 80.101562 95.550781 80.449219 95.726562 80.765625 C 95.847656 80.984375 95.996094 81.1875 96.171875 81.363281 C 96.25 81.441406 96.332031 81.511719 96.421875 81.578125 C 96.566406 81.679688 96.726562 81.761719 96.894531 81.808594 C 96.992188 81.835938 97.089844 81.851562 97.191406 81.851562 C 97.199219 81.871094 97.207031 81.886719 97.214844 81.902344 C 96.84375 81.902344 96.472656 81.726562 96.152344 81.40625 " fill-opacity="1" fill-rule="nonzero"/></g></g></g></g><g clip-path="url(#1679fc07ad)"><g clip-path="url(#aca148f9ce)"><g clip-path="url(#33912e8c99)"><g clip-path="url(#9a855c46ba)"><path fill="#542a19" d="M 97.476562 81.796875 C 97.476562 81.796875 98.972656 80.589844 99.097656 80.347656 C 99.128906 80.289062 99.164062 80.226562 99.195312 80.164062 C 99.226562 80.097656 99.257812 80.03125 99.289062 79.964844 C 99.355469 79.835938 99.410156 79.691406 99.476562 79.550781 C 99.597656 79.261719 99.714844 78.953125 99.828125 78.632812 C 99.941406 78.308594 100.050781 77.972656 100.152344 77.625 C 100.253906 77.277344 100.351562 76.925781 100.445312 76.5625 C 100.535156 76.199219 100.628906 75.835938 100.71875 75.476562 C 100.8125 75.117188 100.90625 74.757812 101.011719 74.40625 C 101.121094 74.058594 101.234375 73.71875 101.371094 73.402344 C 101.726562 71.683594 102.835938 71.242188 102.835938 71.242188 C 102.835938 71.242188 103.359375 71.035156 103.429688 71.105469 C 103.457031 71.132812 103.414062 71.207031 103.234375 71.355469 C 103.167969 71.414062 103.078125 71.511719 102.96875 71.632812 C 102.863281 71.757812 102.753906 71.921875 102.640625 72.109375 C 102.527344 72.300781 102.429688 72.53125 102.339844 72.78125 C 102.15625 73.289062 102.023438 73.914062 101.902344 74.597656 C 101.839844 74.945312 101.777344 75.304688 101.710938 75.671875 C 101.640625 76.039062 101.566406 76.414062 101.476562 76.792969 C 101.390625 77.167969 101.273438 77.550781 101.15625 77.917969 C 101.089844 78.101562 101.03125 78.28125 100.960938 78.460938 C 100.882812 78.636719 100.8125 78.8125 100.734375 78.980469 C 100.574219 79.320312 100.402344 79.640625 100.214844 79.929688 C 100.121094 80.078125 100.027344 80.214844 99.925781 80.34375 C 99.832031 80.476562 99.730469 80.597656 99.628906 80.714844 C 99.429688 80.941406 99.222656 81.132812 99.03125 81.285156 C 98.835938 81.441406 98.65625 81.558594 98.496094 81.636719 C 98.339844 81.71875 98.203125 81.761719 98.117188 81.789062 C 98.027344 81.808594 97.476562 81.796875 97.476562 81.796875 " fill-opacity="1" fill-rule="nonzero"/></g></g></g></g><g clip-path="url(#dde873170b)"><g clip-path="url(#9ef2e7dba2)"><g clip-path="url(#4a2c37dc1c)"><g clip-path="url(#a9f4802f7b)"><path fill="#ffffff" d="M 104.0625 73.441406 C 104.339844 75.570312 103.347656 78.128906 103.347656 78.128906 C 103.347656 78.128906 105.929688 72.703125 103.382812 71.628906 C 103.433594 71.867188 103.898438 72.171875 104.0625 73.441406 " fill-opacity="1" fill-rule="nonzero"/></g></g></g></g><g clip-path="url(#6f16fdbbe8)"><g clip-path="url(#c373efb9f3)"><g clip-path="url(#689119b8be)"><g clip-path="url(#a359787933)"><path fill="#351f17" d="M 97.476562 81.796875 C 97.476562 81.796875 97.515625 81.765625 97.585938 81.710938 C 97.65625 81.652344 97.75 81.5625 97.859375 81.4375 C 97.914062 81.378906 97.972656 81.308594 98.027344 81.226562 C 98.089844 81.152344 98.148438 81.066406 98.214844 80.972656 C 98.339844 80.785156 98.46875 80.570312 98.597656 80.328125 C 98.628906 80.269531 98.660156 80.207031 98.695312 80.144531 C 98.722656 80.078125 98.753906 80.015625 98.789062 79.949219 C 98.855469 79.816406 98.910156 79.671875 98.972656 79.53125 C 99.097656 79.246094 99.214844 78.933594 99.328125 78.613281 C 99.4375 78.289062 99.550781 77.953125 99.648438 77.605469 C 99.75 77.257812 99.847656 76.910156 99.941406 76.542969 C 100.035156 76.179688 100.125 75.816406 100.21875 75.457031 C 100.308594 75.097656 100.40625 74.738281 100.511719 74.386719 C 100.617188 74.039062 100.734375 73.699219 100.867188 73.382812 C 101 73.066406 101.148438 72.773438 101.3125 72.515625 C 101.476562 72.253906 101.664062 72.035156 101.839844 71.859375 C 102.015625 71.679688 102.195312 71.558594 102.34375 71.464844 C 102.492188 71.375 102.621094 71.320312 102.707031 71.289062 C 102.792969 71.257812 102.835938 71.242188 102.835938 71.242188 C 102.835938 71.242188 102.800781 71.273438 102.734375 71.335938 C 102.667969 71.394531 102.578125 71.492188 102.46875 71.617188 C 102.363281 71.738281 102.25 71.902344 102.140625 72.09375 C 102.027344 72.28125 101.929688 72.511719 101.835938 72.761719 C 101.652344 73.269531 101.523438 73.894531 101.402344 74.582031 C 101.339844 74.929688 101.273438 75.285156 101.207031 75.652344 C 101.136719 76.019531 101.066406 76.394531 100.972656 76.773438 C 100.886719 77.148438 100.773438 77.53125 100.65625 77.898438 C 100.589844 78.082031 100.527344 78.265625 100.457031 78.441406 C 100.382812 78.617188 100.3125 78.792969 100.234375 78.960938 C 100.074219 79.300781 99.902344 79.621094 99.714844 79.910156 C 99.621094 80.058594 99.527344 80.195312 99.425781 80.328125 C 99.332031 80.460938 99.226562 80.578125 99.128906 80.695312 C 98.929688 80.925781 98.722656 81.113281 98.527344 81.269531 C 98.332031 81.421875 98.152344 81.539062 97.992188 81.617188 C 97.839844 81.699219 97.703125 81.742188 97.613281 81.769531 C 97.523438 81.789062 97.476562 81.796875 97.476562 81.796875 " fill-opacity="1" fill-rule="nonzero"/></g></g></g></g><g clip-path="url(#5b7c0bfd53)"><g clip-path="url(#90d9eaee6c)"><g clip-path="url(#78a441423c)"><g clip-path="url(#f4207eeb1c)"><path fill="#7b4a25" d="M 98.753906 82.246094 C 98.660156 82.152344 101.339844 80.207031 101.847656 76.417969 C 102.105469 74.488281 102.84375 71.757812 103.144531 71.863281 C 103.160156 71.867188 103.175781 71.878906 103.195312 71.898438 C 103.527344 72.230469 104.234375 74.738281 103.246094 77.414062 C 102.789062 78.652344 101.648438 81.832031 98.777344 82.246094 C 98.765625 82.25 98.757812 82.25 98.753906 82.246094 " fill-opacity="1" fill-rule="nonzero"/></g></g></g></g><g clip-path="url(#5dc282e0ef)"><g clip-path="url(#384cda8aa7)"><g clip-path="url(#c6eab4b58a)"><g clip-path="url(#0007e89b98)"><path fill="#7b4a25" d="M 98.300781 79.835938 C 97.746094 79.28125 97.824219 75.511719 98.082031 74.351562 C 99.117188 69.773438 102.007812 70.609375 102.65625 70.835938 C 102.699219 70.847656 102.726562 70.863281 102.738281 70.878906 C 102.957031 71.09375 100.386719 71.449219 99.816406 74.671875 C 99.597656 75.898438 99.042969 80.121094 98.390625 79.894531 C 98.359375 79.886719 98.328125 79.863281 98.300781 79.835938 " fill-opacity="1" fill-rule="nonzero"/></g></g></g></g><g fill="#322f30" fill-opacity="1"><g transform="translate(56.987998, 128.569453)"><g><path d="M 1.359375 -18.6875 L 7.15625 -18.6875 C 8.90625 -18.6875 10.300781 -18.3125 11.34375 -17.5625 C 12.382812 -16.820312 12.90625 -15.613281 12.90625 -13.9375 C 12.90625 -12.0625 12.128906 -10.722656 10.578125 -9.921875 C 13.234375 -9.453125 14.5625 -7.878906 14.5625 -5.203125 C 14.5625 -3.640625 14.019531 -2.378906 12.9375 -1.421875 C 11.851562 -0.472656 10.359375 0 8.453125 0 L 1.359375 0 Z M 5.625 -11.375 L 5.953125 -11.375 C 6.910156 -11.375 7.625 -11.539062 8.09375 -11.875 C 8.5625 -12.207031 8.796875 -12.75 8.796875 -13.5 C 8.796875 -14.769531 7.847656 -15.40625 5.953125 -15.40625 L 5.625 -15.40625 Z M 5.625 -3.28125 L 6.953125 -3.28125 C 9.035156 -3.28125 10.078125 -3.976562 10.078125 -5.375 C 10.078125 -6.195312 9.816406 -6.789062 9.296875 -7.15625 C 8.773438 -7.519531 7.992188 -7.703125 6.953125 -7.703125 L 5.625 -7.703125 Z M 5.625 -3.28125 "/></g></g></g><g fill="#322f30" fill-opacity="1"><g transform="translate(70.154597, 128.569453)"><g><path d="M 0.515625 -9.359375 C 0.515625 -12.054688 1.4375 -14.34375 3.28125 -16.21875 C 5.125 -18.09375 7.347656 -19.03125 9.953125 -19.03125 C 12.554688 -19.03125 14.769531 -18.097656 16.59375 -16.234375 C 18.425781 -14.367188 19.34375 -12.078125 19.34375 -9.359375 C 19.34375 -6.617188 18.441406 -4.316406 16.640625 -2.453125 C 14.847656 -0.585938 12.617188 0.34375 9.953125 0.34375 C 7.210938 0.34375 4.953125 -0.578125 3.171875 -2.421875 C 1.398438 -4.273438 0.515625 -6.585938 0.515625 -9.359375 Z M 5.125 -9.359375 C 5.125 -8.378906 5.273438 -7.484375 5.578125 -6.671875 C 5.878906 -5.859375 6.40625 -5.171875 7.15625 -4.609375 C 7.914062 -4.054688 8.847656 -3.78125 9.953125 -3.78125 C 11.535156 -3.78125 12.726562 -4.320312 13.53125 -5.40625 C 14.34375 -6.5 14.75 -7.816406 14.75 -9.359375 C 14.75 -10.878906 14.335938 -12.1875 13.515625 -13.28125 C 12.691406 -14.382812 11.503906 -14.9375 9.953125 -14.9375 C 8.410156 -14.9375 7.21875 -14.382812 6.375 -13.28125 C 5.539062 -12.1875 5.125 -10.878906 5.125 -9.359375 Z M 5.125 -9.359375 "/></g></g></g><g fill="#322f30" fill-opacity="1"><g transform="translate(88.102902, 128.569453)"><g><path d="M 0.1875 -14.953125 L 0.1875 -18.6875 L 13.328125 -18.6875 L 13.328125 -14.953125 L 8.875 -14.953125 L 8.875 0 L 4.625 0 L 4.625 -14.953125 Z M 0.1875 -14.953125 "/></g></g></g></svg>