<svg xmlns="http://www.w3.org/2000/svg" xmlns:xlink="http://www.w3.org/1999/xlink" width="1920" zoomAndPan="magnify" viewBox="0 0 1440 749.999995" height="1000" preserveAspectRatio="xMidYMid meet" version="1.0"><defs><g/><clipPath id="a9e21719b0"><path d="M 241 624 L 703 624 L 703 721 L 241 721 Z M 241 624 " clip-rule="nonzero"/></clipPath><clipPath id="933faee72c"><path d="M 181.839844 1.941406 L 799.042969 104.039062 L 692.441406 748.472656 L 75.238281 646.375 Z M 181.839844 1.941406 " clip-rule="nonzero"/></clipPath><clipPath id="0f58803df2"><path d="M 799.46875 104.113281 L 182.265625 2.011719 L 75.664062 646.445312 L 692.863281 748.542969 Z M 799.46875 104.113281 " clip-rule="nonzero"/></clipPath><clipPath id="4e98d229e1"><path d="M 452 59 L 535 59 L 535 290 L 452 290 Z M 452 59 " clip-rule="nonzero"/></clipPath><clipPath id="35e7fb34e3"><path d="M 181.839844 1.941406 L 799.042969 104.039062 L 692.441406 748.472656 L 75.238281 646.375 Z M 181.839844 1.941406 " clip-rule="nonzero"/></clipPath><clipPath id="9eefc8b8f4"><path d="M 799.46875 104.113281 L 182.265625 2.011719 L 75.664062 646.445312 L 692.863281 748.542969 Z M 799.46875 104.113281 " clip-rule="nonzero"/></clipPath><clipPath id="fb1c98e752"><path d="M 396 125 L 490 125 L 490 323 L 396 323 Z M 396 125 " clip-rule="nonzero"/></clipPath><clipPath id="1f6a514278"><path d="M 181.839844 1.941406 L 799.042969 104.039062 L 692.441406 748.472656 L 75.238281 646.375 Z M 181.839844 1.941406 " clip-rule="nonzero"/></clipPath><clipPath id="5afe7a9824"><path d="M 799.46875 104.113281 L 182.265625 2.011719 L 75.664062 646.445312 L 692.863281 748.542969 Z M 799.46875 104.113281 " clip-rule="nonzero"/></clipPath><clipPath id="405b578386"><path d="M 125 255 L 710 255 L 710 652 L 125 652 Z M 125 255 " clip-rule="nonzero"/></clipPath><clipPath id="d19f394b64"><path d="M 181.839844 1.941406 L 799.042969 104.039062 L 692.441406 748.472656 L 75.238281 646.375 Z M 181.839844 1.941406 " clip-rule="nonzero"/></clipPath><clipPath id="54c8a7c141"><path d="M 799.46875 104.113281 L 182.265625 2.011719 L 75.664062 646.445312 L 692.863281 748.542969 Z M 799.46875 104.113281 " clip-rule="nonzero"/></clipPath><clipPath id="6b7bb67490"><path d="M 1204 354 L 1263 354 L 1263 432 L 1204 432 Z M 1204 354 " clip-rule="nonzero"/></clipPath><clipPath id="efe14c5160"><path d="M 1241.34375 335.515625 L 1289.046875 383.222656 L 1226.164062 446.105469 L 1178.457031 398.402344 Z M 1241.34375 335.515625 " clip-rule="nonzero"/></clipPath><clipPath id="76ae8220d3"><path d="M 1241.34375 335.515625 L 1289.046875 383.222656 L 1226.164062 446.105469 L 1178.457031 398.402344 Z M 1241.34375 335.515625 " clip-rule="nonzero"/></clipPath><clipPath id="c7c77e2570"><path d="M 1241.34375 335.515625 L 1289.046875 383.222656 L 1226.164062 446.105469 L 1178.457031 398.402344 Z M 1241.34375 335.515625 " clip-rule="nonzero"/></clipPath><clipPath id="ec161623db"><path d="M 1204 354 L 1264 354 L 1264 432 L 1204 432 Z M 1204 354 " clip-rule="nonzero"/></clipPath><clipPath id="8035da5983"><path d="M 1241.34375 335.515625 L 1289.046875 383.222656 L 1226.164062 446.105469 L 1178.457031 398.402344 Z M 1241.34375 335.515625 " clip-rule="nonzero"/></clipPath><clipPath id="da803ffe69"><path d="M 1241.34375 335.515625 L 1289.046875 383.222656 L 1226.164062 446.105469 L 1178.457031 398.402344 Z M 1241.34375 335.515625 " clip-rule="nonzero"/></clipPath><clipPath id="325414d146"><path d="M 1241.34375 335.515625 L 1289.046875 383.222656 L 1226.164062 446.105469 L 1178.457031 398.402344 Z M 1241.34375 335.515625 " clip-rule="nonzero"/></clipPath><clipPath id="2e42285a33"><path d="M 1211 361 L 1226 361 L 1226 427 L 1211 427 Z M 1211 361 " clip-rule="nonzero"/></clipPath><clipPath id="95010bea2e"><path d="M 1241.34375 335.515625 L 1289.046875 383.222656 L 1226.164062 446.105469 L 1178.457031 398.402344 Z M 1241.34375 335.515625 " clip-rule="nonzero"/></clipPath><clipPath id="40c4e8e7b1"><path d="M 1241.34375 335.515625 L 1289.046875 383.222656 L 1226.164062 446.105469 L 1178.457031 398.402344 Z M 1241.34375 335.515625 " clip-rule="nonzero"/></clipPath><clipPath id="5abb8d234e"><path d="M 1241.34375 335.515625 L 1289.046875 383.222656 L 1226.164062 446.105469 L 1178.457031 398.402344 Z M 1241.34375 335.515625 " clip-rule="nonzero"/></clipPath><clipPath id="d726979b63"><path d="M 1204 360 L 1226 360 L 1226 428 L 1204 428 Z M 1204 360 " clip-rule="nonzero"/></clipPath><clipPath id="5455c51ac5"><path d="M 1241.34375 335.515625 L 1289.046875 383.222656 L 1226.164062 446.105469 L 1178.457031 398.402344 Z M 1241.34375 335.515625 " clip-rule="nonzero"/></clipPath><clipPath id="703f44998d"><path d="M 1241.34375 335.515625 L 1289.046875 383.222656 L 1226.164062 446.105469 L 1178.457031 398.402344 Z M 1241.34375 335.515625 " clip-rule="nonzero"/></clipPath><clipPath id="cdaaf11ba1"><path d="M 1241.34375 335.515625 L 1289.046875 383.222656 L 1226.164062 446.105469 L 1178.457031 398.402344 Z M 1241.34375 335.515625 " clip-rule="nonzero"/></clipPath><clipPath id="1c1240dff3"><path d="M 1204 381 L 1210 381 L 1210 411 L 1204 411 Z M 1204 381 " clip-rule="nonzero"/></clipPath><clipPath id="40b9eb3afc"><path d="M 1241.34375 335.515625 L 1289.046875 383.222656 L 1226.164062 446.105469 L 1178.457031 398.402344 Z M 1241.34375 335.515625 " clip-rule="nonzero"/></clipPath><clipPath id="be3a612aec"><path d="M 1241.34375 335.515625 L 1289.046875 383.222656 L 1226.164062 446.105469 L 1178.457031 398.402344 Z M 1241.34375 335.515625 " clip-rule="nonzero"/></clipPath><clipPath id="2a4d29ce27"><path d="M 1241.34375 335.515625 L 1289.046875 383.222656 L 1226.164062 446.105469 L 1178.457031 398.402344 Z M 1241.34375 335.515625 " clip-rule="nonzero"/></clipPath><clipPath id="be3199a19f"><path d="M 1204 375 L 1218 375 L 1218 427 L 1204 427 Z M 1204 375 " clip-rule="nonzero"/></clipPath><clipPath id="9308f71ff4"><path d="M 1241.34375 335.515625 L 1289.046875 383.222656 L 1226.164062 446.105469 L 1178.457031 398.402344 Z M 1241.34375 335.515625 " clip-rule="nonzero"/></clipPath><clipPath id="e46e313e98"><path d="M 1241.34375 335.515625 L 1289.046875 383.222656 L 1226.164062 446.105469 L 1178.457031 398.402344 Z M 1241.34375 335.515625 " clip-rule="nonzero"/></clipPath><clipPath id="e5ee3b7796"><path d="M 1241.34375 335.515625 L 1289.046875 383.222656 L 1226.164062 446.105469 L 1178.457031 398.402344 Z M 1241.34375 335.515625 " clip-rule="nonzero"/></clipPath><clipPath id="1498a92ee8"><path d="M 1204 374 L 1218 374 L 1218 428 L 1204 428 Z M 1204 374 " clip-rule="nonzero"/></clipPath><clipPath id="67b80868d8"><path d="M 1241.34375 335.515625 L 1289.046875 383.222656 L 1226.164062 446.105469 L 1178.457031 398.402344 Z M 1241.34375 335.515625 " clip-rule="nonzero"/></clipPath><clipPath id="ce2ef9dc79"><path d="M 1241.34375 335.515625 L 1289.046875 383.222656 L 1226.164062 446.105469 L 1178.457031 398.402344 Z M 1241.34375 335.515625 " clip-rule="nonzero"/></clipPath><clipPath id="236aa9816b"><path d="M 1241.34375 335.515625 L 1289.046875 383.222656 L 1226.164062 446.105469 L 1178.457031 398.402344 Z M 1241.34375 335.515625 " clip-rule="nonzero"/></clipPath><clipPath id="c4f590795b"><path d="M 1218 361 L 1255 361 L 1255 427 L 1218 427 Z M 1218 361 " clip-rule="nonzero"/></clipPath><clipPath id="dee321900c"><path d="M 1241.34375 335.515625 L 1289.046875 383.222656 L 1226.164062 446.105469 L 1178.457031 398.402344 Z M 1241.34375 335.515625 " clip-rule="nonzero"/></clipPath><clipPath id="e2f019c8d8"><path d="M 1241.34375 335.515625 L 1289.046875 383.222656 L 1226.164062 446.105469 L 1178.457031 398.402344 Z M 1241.34375 335.515625 " clip-rule="nonzero"/></clipPath><clipPath id="3011289b13"><path d="M 1241.34375 335.515625 L 1289.046875 383.222656 L 1226.164062 446.105469 L 1178.457031 398.402344 Z M 1241.34375 335.515625 " clip-rule="nonzero"/></clipPath><clipPath id="5cd9a815ca"><path d="M 1253 364 L 1262 364 L 1262 405 L 1253 405 Z M 1253 364 " clip-rule="nonzero"/></clipPath><clipPath id="86c4f6bf47"><path d="M 1241.34375 335.515625 L 1289.046875 383.222656 L 1226.164062 446.105469 L 1178.457031 398.402344 Z M 1241.34375 335.515625 " clip-rule="nonzero"/></clipPath><clipPath id="f963e2487b"><path d="M 1241.34375 335.515625 L 1289.046875 383.222656 L 1226.164062 446.105469 L 1178.457031 398.402344 Z M 1241.34375 335.515625 " clip-rule="nonzero"/></clipPath><clipPath id="c57d9ad4c2"><path d="M 1241.34375 335.515625 L 1289.046875 383.222656 L 1226.164062 446.105469 L 1178.457031 398.402344 Z M 1241.34375 335.515625 " clip-rule="nonzero"/></clipPath><clipPath id="60957f5d3d"><path d="M 1218 362 L 1251 362 L 1251 427 L 1218 427 Z M 1218 362 " clip-rule="nonzero"/></clipPath><clipPath id="29545515e1"><path d="M 1241.34375 335.515625 L 1289.046875 383.222656 L 1226.164062 446.105469 L 1178.457031 398.402344 Z M 1241.34375 335.515625 " clip-rule="nonzero"/></clipPath><clipPath id="dd00028fd4"><path d="M 1241.34375 335.515625 L 1289.046875 383.222656 L 1226.164062 446.105469 L 1178.457031 398.402344 Z M 1241.34375 335.515625 " clip-rule="nonzero"/></clipPath><clipPath id="726d0c2dca"><path d="M 1241.34375 335.515625 L 1289.046875 383.222656 L 1226.164062 446.105469 L 1178.457031 398.402344 Z M 1241.34375 335.515625 " clip-rule="nonzero"/></clipPath><clipPath id="0b5d1586d5"><path d="M 1226 366 L 1257 366 L 1257 430 L 1226 430 Z M 1226 366 " clip-rule="nonzero"/></clipPath><clipPath id="6813112c59"><path d="M 1241.34375 335.515625 L 1289.046875 383.222656 L 1226.164062 446.105469 L 1178.457031 398.402344 Z M 1241.34375 335.515625 " clip-rule="nonzero"/></clipPath><clipPath id="1c2661367e"><path d="M 1241.34375 335.515625 L 1289.046875 383.222656 L 1226.164062 446.105469 L 1178.457031 398.402344 Z M 1241.34375 335.515625 " clip-rule="nonzero"/></clipPath><clipPath id="ff794f98fa"><path d="M 1241.34375 335.515625 L 1289.046875 383.222656 L 1226.164062 446.105469 L 1178.457031 398.402344 Z M 1241.34375 335.515625 " clip-rule="nonzero"/></clipPath><clipPath id="a564edff86"><path d="M 1220 358 L 1250 358 L 1250 415 L 1220 415 Z M 1220 358 " clip-rule="nonzero"/></clipPath><clipPath id="3a8c8396d9"><path d="M 1241.34375 335.515625 L 1289.046875 383.222656 L 1226.164062 446.105469 L 1178.457031 398.402344 Z M 1241.34375 335.515625 " clip-rule="nonzero"/></clipPath><clipPath id="912c614340"><path d="M 1241.34375 335.515625 L 1289.046875 383.222656 L 1226.164062 446.105469 L 1178.457031 398.402344 Z M 1241.34375 335.515625 " clip-rule="nonzero"/></clipPath><clipPath id="723b088b05"><path d="M 1241.34375 335.515625 L 1289.046875 383.222656 L 1226.164062 446.105469 L 1178.457031 398.402344 Z M 1241.34375 335.515625 " clip-rule="nonzero"/></clipPath><clipPath id="137d0efb70"><path d="M 453 55 L 537 55 L 537 293 L 453 293 Z M 453 55 " clip-rule="nonzero"/></clipPath><clipPath id="5f51693eaf"><path d="M 401.296875 32.457031 L 673.214844 79.722656 L 623.847656 363.726562 L 351.929688 316.460938 Z M 401.296875 32.457031 " clip-rule="nonzero"/></clipPath><clipPath id="0b0cea3249"><path d="M 810.566406 103.597656 L 176.089844 -6.6875 L 60.554688 658.003906 L 695.03125 768.285156 Z M 810.566406 103.597656 " clip-rule="nonzero"/></clipPath><clipPath id="f258c8f356"><path d="M 395 123 L 491 123 L 491 326 L 395 326 Z M 395 123 " clip-rule="nonzero"/></clipPath><clipPath id="20c6aca251"><path d="M 401.296875 32.457031 L 673.214844 79.722656 L 623.847656 363.726562 L 351.929688 316.460938 Z M 401.296875 32.457031 " clip-rule="nonzero"/></clipPath><clipPath id="62063a2a7b"><path d="M 810.566406 103.597656 L 176.089844 -6.6875 L 60.554688 658.003906 L 695.03125 768.285156 Z M 810.566406 103.597656 " clip-rule="nonzero"/></clipPath><clipPath id="a73e77dec4"><path d="M 351 255 L 674 255 L 674 364 L 351 364 Z M 351 255 " clip-rule="nonzero"/></clipPath><clipPath id="9576dbb919"><path d="M 401.296875 32.457031 L 673.214844 79.722656 L 623.847656 363.726562 L 351.929688 316.460938 Z M 401.296875 32.457031 " clip-rule="nonzero"/></clipPath><clipPath id="a92684a4d0"><path d="M 810.566406 103.597656 L 176.089844 -6.6875 L 60.554688 658.003906 L 695.03125 768.285156 Z M 810.566406 103.597656 " clip-rule="nonzero"/></clipPath></defs><g clip-path="url(#a9e21719b0)"><g clip-path="url(#933faee72c)"><g clip-path="url(#0f58803df2)"><path fill="#ffae82" d="M 242.273438 657.351562 C 280.898438 668.902344 326.40625 679.398438 375.503906 687.519531 C 522.171875 711.78125 645.320312 705.714844 650.574219 673.960938 C 653.027344 659.132812 629.335938 641.332031 588.457031 624.089844 C 659.839844 646.421875 705.257812 672.226562 701.910156 692.476562 C 696.65625 724.230469 573.503906 730.300781 426.839844 706.039062 C 353.574219 693.917969 288.304688 676.519531 241.984375 658.191406 C 241.453125 657.980469 241.726562 657.183594 242.273438 657.351562 " fill-opacity="1" fill-rule="nonzero"/></g></g></g><g clip-path="url(#4e98d229e1)"><g clip-path="url(#35e7fb34e3)"><g clip-path="url(#9eefc8b8f4)"><path fill="#ffae82" d="M 497.101562 289.882812 C 502.085938 284.917969 506.136719 272.75 507.328125 267.195312 C 514.316406 234.515625 498.402344 202.269531 481.359375 175.496094 C 465.058594 149.886719 439.304688 110.339844 460.9375 80.695312 C 470.210938 67.984375 486.425781 62.601562 501.363281 60.308594 C 509.625 59.042969 527.355469 59.128906 527.355469 59.128906 C 527.277344 59.144531 484.320312 69.132812 519.71875 153.15625 C 562.464844 254.609375 497.125 289.871094 497.101562 289.882812 " fill-opacity="1" fill-rule="nonzero"/></g></g></g><g clip-path="url(#fb1c98e752)"><g clip-path="url(#1f6a514278)"><g clip-path="url(#5afe7a9824)"><path fill="#995941" d="M 462.484375 205.03125 C 518.371094 280.125 471.578125 322.492188 471.558594 322.507812 C 474.667969 317.398438 475.546875 306.53125 475.398438 301.703125 C 474.539062 273.300781 454.855469 249.90625 435.347656 231.257812 C 416.6875 213.421875 387.402344 186 399.25 157.132812 C 404.328125 144.753906 416.621094 137.023438 428.488281 132.101562 C 435.054688 129.371094 449.710938 125.847656 449.710938 125.847656 C 449.644531 125.875 416.207031 142.84375 462.484375 205.03125 " fill-opacity="1" fill-rule="nonzero"/></g></g></g><g clip-path="url(#405b578386)"><g clip-path="url(#d19f394b64)"><g clip-path="url(#54c8a7c141)"><path fill="#ffae82" d="M 200.738281 408.820312 C 211.757812 410.644531 222.558594 409.265625 232.21875 405.375 C 230.160156 381.382812 231.019531 356.640625 235.15625 331.632812 C 236.871094 321.257812 239.132812 311.132812 241.84375 301.230469 C 235.367188 297.113281 227.976562 294.195312 219.917969 292.863281 C 187.902344 287.566406 157.652344 309.230469 152.355469 341.246094 C 147.058594 373.269531 168.71875 403.523438 200.738281 408.820312 Z M 224.171875 267.15625 C 235.472656 269.023438 245.859375 273.058594 255.023438 278.738281 C 273.210938 265 311.136719 256.554688 359.808594 255.394531 C 360.058594 255.382812 360.074219 255.757812 359.828125 255.785156 C 315.039062 260.367188 285.636719 272.371094 282.628906 290.550781 C 276.769531 325.988281 373.371094 371.484375 498.402344 392.167969 C 588.886719 407.136719 669.453125 405.003906 709.289062 389.253906 C 709.503906 389.167969 709.660156 389.449219 709.476562 389.585938 C 676.890625 413.546875 581.074219 419.246094 471.4375 401.109375 C 398.351562 389.019531 334.5 368.875 293.191406 346.960938 C 279.554688 489.96875 363.914062 616.921875 498.8125 639.238281 C 517.140625 642.269531 535.355469 643.160156 553.238281 642.097656 C 519.191406 651.753906 482.90625 654.25 446.171875 648.175781 C 336.664062 630.058594 255.359375 541.167969 235.714844 431.773438 C 223.421875 435.644531 210.070312 436.773438 196.484375 434.527344 C 150.273438 426.882812 119 383.214844 126.648438 336.996094 C 134.292969 290.78125 177.960938 259.511719 224.171875 267.15625 " fill-opacity="1" fill-rule="nonzero"/></g></g></g><g fill="#ffae82" fill-opacity="1"><g transform="translate(443.108184, 554.643549)"><g><path d="M 46.890625 -105.96875 L 46.890625 -55.5625 C 46.890625 -45.09375 48.472656 -37.65625 51.640625 -33.25 C 54.804688 -28.84375 60.175781 -26.640625 67.75 -26.640625 C 75.320312 -26.640625 80.691406 -28.84375 83.859375 -33.25 C 87.023438 -37.65625 88.609375 -45.09375 88.609375 -55.5625 L 88.609375 -105.96875 L 125.171875 -105.96875 L 125.171875 -46.6875 C 125.171875 -29.0625 120.59375 -16.359375 111.4375 -8.578125 C 102.28125 -0.796875 87.71875 3.09375 67.75 3.09375 C 47.78125 3.09375 33.21875 -0.796875 24.0625 -8.578125 C 14.90625 -16.359375 10.328125 -29.0625 10.328125 -46.6875 L 10.328125 -105.96875 Z M 46.890625 -105.96875 "/></g></g></g><g fill="#ffae82" fill-opacity="1"><g transform="translate(561.056398, 554.643549)"><g><path d="M 121.453125 -92.84375 C 131.367188 -82.039062 136.328125 -68.785156 136.328125 -53.078125 C 136.328125 -37.378906 131.367188 -24.09375 121.453125 -13.21875 C 111.546875 -2.34375 98.945312 3.09375 83.65625 3.09375 C 69.613281 3.09375 58.046875 -1.3125 48.953125 -10.125 L 48.953125 53.703125 L 12.390625 53.703125 L 12.390625 -105.96875 L 48.546875 -105.96875 L 48.546875 -93.984375 L 48.953125 -93.984375 C 58.046875 -104.035156 69.613281 -109.0625 83.65625 -109.0625 C 98.945312 -109.0625 111.546875 -103.65625 121.453125 -92.84375 Z M 90.375 -35.109375 C 95.125 -39.796875 97.5 -45.785156 97.5 -53.078125 C 97.5 -60.378906 95.222656 -66.335938 90.671875 -70.953125 C 86.128906 -75.566406 80.140625 -77.875 72.703125 -77.875 C 65.546875 -77.875 59.660156 -75.53125 55.046875 -70.84375 C 50.429688 -66.164062 48.125 -60.25 48.125 -53.09375 C 48.125 -45.789062 50.5 -39.796875 55.25 -35.109375 C 60 -30.429688 65.816406 -28.09375 72.703125 -28.09375 C 79.734375 -28.09375 85.625 -30.429688 90.375 -35.109375 Z M 90.375 -35.109375 "/></g></g></g><g fill="#322f30" fill-opacity="1"><g transform="translate(684.604241, 554.643549)"><g/></g></g><g fill="#322f30" fill-opacity="1"><g transform="translate(723.437808, 554.643549)"><g><path d="M 22.40625 -12.59375 C 10.632812 -23.0625 4.75 -36.488281 4.75 -52.875 C 4.75 -69.269531 10.875 -82.734375 23.125 -93.265625 C 35.382812 -103.796875 50.535156 -109.0625 68.578125 -109.0625 C 86.335938 -109.0625 101.3125 -103.757812 113.5 -93.15625 C 125.6875 -82.550781 131.78125 -69.125 131.78125 -52.875 C 131.78125 -36.625 125.820312 -23.234375 113.90625 -12.703125 C 102 -2.171875 86.890625 3.09375 68.578125 3.09375 C 49.578125 3.09375 34.1875 -2.132812 22.40625 -12.59375 Z M 50.703125 -70.84375 C 45.953125 -66.164062 43.578125 -60.175781 43.578125 -52.875 C 43.578125 -45.582031 45.847656 -39.628906 50.390625 -35.015625 C 54.941406 -30.398438 60.9375 -28.09375 68.375 -28.09375 C 75.53125 -28.09375 81.414062 -30.429688 86.03125 -35.109375 C 90.644531 -39.796875 92.953125 -45.71875 92.953125 -52.875 C 92.953125 -60.175781 90.578125 -66.164062 85.828125 -70.84375 C 81.078125 -75.53125 75.257812 -77.875 68.375 -77.875 C 61.351562 -77.875 55.460938 -75.53125 50.703125 -70.84375 Z M 50.703125 -70.84375 "/></g></g></g><g fill="#322f30" fill-opacity="1"><g transform="translate(842.418834, 554.643549)"><g><path d="M 18.59375 -105.96875 L 18.59375 -128.484375 C 18.726562 -144.316406 22.441406 -156.984375 29.734375 -166.484375 C 37.035156 -175.992188 47.160156 -180.75 60.109375 -180.75 C 65.617188 -180.75 70.882812 -179.953125 75.90625 -178.359375 C 80.9375 -176.773438 84.550781 -175.160156 86.75 -173.515625 L 90.265625 -171.234375 L 77.46875 -145.421875 C 74.15625 -147.347656 70.503906 -148.3125 66.515625 -148.3125 C 61.972656 -148.3125 58.941406 -146.757812 57.421875 -143.65625 C 55.910156 -140.5625 55.15625 -135.160156 55.15625 -127.453125 L 55.15625 -105.96875 L 79.53125 -105.96875 L 79.53125 -78.078125 L 55.15625 -78.078125 L 55.15625 0 L 18.59375 0 L 18.59375 -78.078125 L 3.3125 -78.078125 L 3.3125 -105.96875 Z M 18.59375 -105.96875 "/></g></g></g><g fill="#322f30" fill-opacity="1"><g transform="translate(902.322089, 554.643549)"><g/></g></g><g fill="#322f30" fill-opacity="1"><g transform="translate(941.155667, 554.643549)"><g><path d="M 103.078125 -35.109375 C 108.992188 -35.109375 114.738281 -36.003906 120.3125 -37.796875 C 125.894531 -39.585938 129.992188 -41.3125 132.609375 -42.96875 L 136.53125 -45.65625 L 153.0625 -12.59375 C 152.507812 -12.1875 151.75 -11.640625 150.78125 -10.953125 C 149.820312 -10.265625 147.585938 -8.988281 144.078125 -7.125 C 140.566406 -5.269531 136.8125 -3.648438 132.8125 -2.265625 C 128.820312 -0.890625 123.585938 0.34375 117.109375 1.4375 C 110.640625 2.539062 103.960938 3.09375 97.078125 3.09375 C 81.242188 3.09375 66.234375 -0.796875 52.046875 -8.578125 C 37.867188 -16.359375 26.441406 -27.0625 17.765625 -40.6875 C 9.085938 -54.320312 4.75 -69.054688 4.75 -84.890625 C 4.75 -96.878906 7.296875 -108.378906 12.390625 -119.390625 C 17.484375 -130.410156 24.265625 -139.84375 32.734375 -147.6875 C 41.203125 -155.539062 51.082031 -161.804688 62.375 -166.484375 C 73.664062 -171.171875 85.234375 -173.515625 97.078125 -173.515625 C 108.097656 -173.515625 118.253906 -172.203125 127.546875 -169.578125 C 136.847656 -166.960938 143.425781 -164.347656 147.28125 -161.734375 L 153.0625 -157.8125 L 136.53125 -124.765625 C 135.570312 -125.585938 134.128906 -126.582031 132.203125 -127.75 C 130.273438 -128.925781 126.414062 -130.476562 120.625 -132.40625 C 114.84375 -134.332031 108.992188 -135.296875 103.078125 -135.296875 C 93.710938 -135.296875 85.3125 -133.78125 77.875 -130.75 C 70.4375 -127.71875 64.546875 -123.722656 60.203125 -118.765625 C 55.867188 -113.816406 52.566406 -108.484375 50.296875 -102.765625 C 48.023438 -97.046875 46.890625 -91.226562 46.890625 -85.3125 C 46.890625 -72.363281 51.742188 -60.757812 61.453125 -50.5 C 71.160156 -40.238281 85.035156 -35.109375 103.078125 -35.109375 Z M 103.078125 -35.109375 "/></g></g></g><g fill="#322f30" fill-opacity="1"><g transform="translate(1079.140734, 554.643549)"><g><path d="M 12.390625 0 L 12.390625 -177.640625 L 48.953125 -177.640625 L 48.953125 -94.8125 L 49.375 -94.8125 C 58.875 -104.3125 68.992188 -109.0625 79.734375 -109.0625 C 84.960938 -109.0625 90.160156 -108.375 95.328125 -107 C 100.492188 -105.625 105.453125 -103.488281 110.203125 -100.59375 C 114.953125 -97.707031 118.804688 -93.613281 121.765625 -88.3125 C 124.722656 -83.007812 126.203125 -76.84375 126.203125 -69.8125 L 126.203125 0 L 89.640625 0 L 89.640625 -59.90625 C 89.640625 -65.414062 87.882812 -70.234375 84.375 -74.359375 C 80.863281 -78.492188 76.285156 -80.5625 70.640625 -80.5625 C 65.128906 -80.5625 60.132812 -78.425781 55.65625 -74.15625 C 51.1875 -69.882812 48.953125 -65.132812 48.953125 -59.90625 L 48.953125 0 Z M 12.390625 0 "/></g></g></g><g fill="#322f30" fill-opacity="1"><g transform="translate(1198.121772, 554.643549)"><g><path d="M 15.90625 -165.046875 C 20.175781 -169.316406 25.269531 -171.453125 31.1875 -171.453125 C 37.113281 -171.453125 42.207031 -169.316406 46.46875 -165.046875 C 50.738281 -160.773438 52.875 -155.675781 52.875 -149.75 C 52.875 -143.832031 50.738281 -138.738281 46.46875 -134.46875 C 42.207031 -130.195312 37.113281 -128.0625 31.1875 -128.0625 C 25.269531 -128.0625 20.175781 -130.195312 15.90625 -134.46875 C 11.632812 -138.738281 9.5 -143.832031 9.5 -149.75 C 9.5 -155.675781 11.632812 -160.773438 15.90625 -165.046875 Z M 12.390625 -105.96875 L 12.390625 0 L 48.953125 0 L 48.953125 -105.96875 Z M 12.390625 -105.96875 "/></g></g></g><g fill="#322f30" fill-opacity="1"><g transform="translate(1242.968058, 554.643549)"><g/></g></g><g clip-path="url(#6b7bb67490)"><g clip-path="url(#efe14c5160)"><g clip-path="url(#76ae8220d3)"><g clip-path="url(#c7c77e2570)"><path fill="#6f4323" d="M 1257.609375 405.25 C 1248.613281 423.542969 1228.339844 439.796875 1218.699219 427 C 1208.589844 428.519531 1197.511719 408.777344 1209.605469 382.160156 C 1221.90625 355.078125 1244.136719 348.675781 1251.289062 360.75 C 1263.933594 358.101562 1266.609375 386.953125 1257.609375 405.25 " fill-opacity="1" fill-rule="nonzero"/></g></g></g></g><g clip-path="url(#ec161623db)"><g clip-path="url(#8035da5983)"><g clip-path="url(#da803ffe69)"><g clip-path="url(#325414d146)"><path fill="#29242c" d="M 1257.574219 405.230469 C 1258.503906 403.3125 1259.304688 401.332031 1259.960938 399.300781 C 1260.285156 398.28125 1260.589844 397.257812 1260.855469 396.222656 C 1261.121094 395.1875 1261.359375 394.148438 1261.566406 393.097656 C 1261.96875 391 1262.273438 388.882812 1262.457031 386.75 C 1262.644531 384.621094 1262.710938 382.484375 1262.65625 380.34375 C 1262.605469 378.207031 1262.410156 376.074219 1262.074219 373.96875 C 1261.734375 371.863281 1261.230469 369.777344 1260.457031 367.804688 C 1260.070312 366.816406 1259.605469 365.859375 1259.046875 364.972656 C 1258.492188 364.082031 1257.828125 363.261719 1257.054688 362.589844 C 1256.660156 362.253906 1256.238281 361.964844 1255.796875 361.71875 C 1255.347656 361.480469 1254.871094 361.300781 1254.386719 361.175781 C 1253.898438 361.046875 1253.394531 361.003906 1252.890625 360.996094 C 1252.382812 360.988281 1251.878906 361.066406 1251.378906 361.160156 L 1251.082031 361.214844 L 1250.929688 360.957031 C 1250.355469 360.011719 1249.671875 359.128906 1248.863281 358.382812 C 1248.0625 357.625 1247.136719 357.003906 1246.148438 356.523438 C 1244.160156 355.5625 1241.90625 355.234375 1239.699219 355.351562 C 1237.484375 355.472656 1235.300781 356.023438 1233.234375 356.847656 C 1231.164062 357.671875 1229.199219 358.761719 1227.355469 360.027344 C 1225.515625 361.292969 1223.789062 362.726562 1222.179688 364.285156 C 1221.371094 365.0625 1220.59375 365.871094 1219.839844 366.703125 C 1219.09375 367.535156 1218.371094 368.394531 1217.671875 369.273438 C 1216.285156 371.039062 1214.996094 372.882812 1213.808594 374.792969 C 1212.617188 376.699219 1211.535156 378.679688 1210.535156 380.699219 C 1209.53125 382.722656 1208.644531 384.789062 1207.847656 386.90625 C 1207.054688 389.019531 1206.378906 391.175781 1205.851562 393.375 C 1205.316406 395.570312 1204.917969 397.804688 1204.679688 400.054688 C 1204.4375 402.308594 1204.394531 404.582031 1204.519531 406.84375 C 1204.65625 409.109375 1204.976562 411.367188 1205.554688 413.5625 C 1206.136719 415.753906 1206.957031 417.890625 1208.082031 419.859375 C 1209.207031 421.8125 1210.644531 423.625 1212.453125 424.945312 C 1213.359375 425.601562 1214.355469 426.125 1215.410156 426.433594 C 1216.464844 426.742188 1217.574219 426.832031 1218.644531 426.667969 L 1218.84375 426.636719 L 1218.964844 426.800781 C 1219.617188 427.648438 1220.359375 428.421875 1221.195312 429.074219 C 1222.023438 429.734375 1222.960938 430.246094 1223.949219 430.609375 C 1224.9375 430.964844 1225.984375 431.15625 1227.035156 431.203125 C 1228.089844 431.246094 1229.152344 431.160156 1230.191406 430.953125 C 1231.230469 430.75 1232.253906 430.441406 1233.25 430.066406 C 1234.246094 429.691406 1235.21875 429.242188 1236.160156 428.742188 C 1238.046875 427.738281 1239.839844 426.546875 1241.527344 425.226562 C 1243.222656 423.90625 1244.820312 422.464844 1246.335938 420.9375 C 1247.847656 419.410156 1249.285156 417.800781 1250.628906 416.117188 C 1251.300781 415.277344 1251.953125 414.417969 1252.582031 413.542969 C 1253.207031 412.664062 1253.8125 411.773438 1254.394531 410.867188 C 1255.558594 409.050781 1256.613281 407.164062 1257.574219 405.230469 M 1257.644531 405.269531 C 1256.691406 407.207031 1255.632812 409.097656 1254.484375 410.925781 C 1253.910156 411.839844 1253.316406 412.742188 1252.699219 413.628906 C 1252.082031 414.515625 1251.445312 415.386719 1250.789062 416.246094 C 1249.476562 417.960938 1248.070312 419.609375 1246.585938 421.179688 C 1245.09375 422.746094 1243.515625 424.234375 1241.835938 425.605469 C 1240.15625 426.976562 1238.375 428.242188 1236.464844 429.289062 C 1234.550781 430.339844 1232.507812 431.191406 1230.335938 431.632812 C 1229.25 431.855469 1228.136719 431.957031 1227.015625 431.917969 C 1225.898438 431.867188 1224.777344 431.660156 1223.714844 431.273438 C 1222.65625 430.882812 1221.648438 430.332031 1220.765625 429.621094 C 1219.882812 428.921875 1219.105469 428.09375 1218.433594 427.199219 L 1218.753906 427.332031 C 1217.578125 427.5 1216.367188 427.386719 1215.238281 427.035156 C 1214.105469 426.679688 1213.058594 426.105469 1212.121094 425.402344 C 1210.242188 423.984375 1208.804688 422.09375 1207.683594 420.074219 C 1206.574219 418.046875 1205.78125 415.867188 1205.230469 413.640625 C 1204.679688 411.414062 1204.359375 409.136719 1204.246094 406.855469 C 1204.125 404.574219 1204.207031 402.292969 1204.4375 400.027344 C 1204.664062 397.761719 1205.054688 395.515625 1205.578125 393.304688 C 1205.84375 392.199219 1206.136719 391.105469 1206.464844 390.019531 C 1206.785156 388.929688 1207.144531 387.851562 1207.523438 386.78125 C 1208.292969 384.652344 1209.164062 382.542969 1210.136719 380.503906 C 1211.113281 378.453125 1212.167969 376.445312 1213.339844 374.503906 C 1214.503906 372.554688 1215.785156 370.675781 1217.167969 368.878906 C 1217.867188 367.980469 1218.585938 367.105469 1219.335938 366.25 C 1220.089844 365.398438 1220.871094 364.570312 1221.679688 363.773438 C 1223.300781 362.179688 1225.050781 360.710938 1226.921875 359.40625 C 1228.796875 358.105469 1230.800781 356.976562 1232.925781 356.109375 C 1235.054688 355.25 1237.316406 354.660156 1239.640625 354.515625 C 1241.957031 354.378906 1244.363281 354.726562 1246.507812 355.761719 C 1247.574219 356.277344 1248.574219 356.949219 1249.4375 357.765625 C 1250.316406 358.570312 1251.039062 359.527344 1251.648438 360.539062 L 1251.195312 360.339844 C 1251.75 360.238281 1252.308594 360.15625 1252.878906 360.167969 C 1253.445312 360.175781 1254.019531 360.230469 1254.574219 360.378906 C 1255.128906 360.523438 1255.667969 360.730469 1256.171875 361.003906 C 1256.675781 361.28125 1257.144531 361.613281 1257.574219 361.980469 C 1258.425781 362.730469 1259.136719 363.617188 1259.710938 364.566406 C 1260.289062 365.515625 1260.757812 366.519531 1261.144531 367.546875 C 1261.917969 369.601562 1262.398438 371.734375 1262.714844 373.878906 C 1262.871094 374.953125 1262.976562 376.03125 1263.050781 377.109375 C 1263.121094 378.1875 1263.15625 379.269531 1263.160156 380.347656 C 1263.160156 382.503906 1263.039062 384.65625 1262.804688 386.792969 C 1262.574219 388.929688 1262.222656 391.050781 1261.773438 393.144531 C 1261.539062 394.191406 1261.285156 395.230469 1261.007812 396.265625 C 1260.726562 397.300781 1260.410156 398.324219 1260.070312 399.335938 C 1259.730469 400.351562 1259.363281 401.355469 1258.957031 402.34375 C 1258.554688 403.332031 1258.117188 404.308594 1257.644531 405.269531 " fill-opacity="1" fill-rule="nonzero"/></g></g></g></g><g clip-path="url(#2e42285a33)"><g clip-path="url(#95010bea2e)"><g clip-path="url(#40c4e8e7b1)"><g clip-path="url(#5abb8d234e)"><path fill="#663920" d="M 1217.230469 426.742188 C 1207.984375 407.421875 1211.496094 387.621094 1212.644531 380.066406 C 1212.898438 378.386719 1213.238281 376.714844 1213.644531 375.0625 C 1213.699219 374.972656 1213.753906 374.882812 1213.808594 374.792969 C 1214.996094 372.882812 1216.285156 371.039062 1217.671875 369.273438 C 1218.371094 368.394531 1219.09375 367.535156 1219.839844 366.703125 C 1220.59375 365.871094 1221.371094 365.0625 1222.179688 364.285156 C 1223.242188 363.257812 1224.359375 362.28125 1225.523438 361.371094 C 1222.984375 366.046875 1221.273438 371.167969 1219.941406 376.402344 C 1217.894531 384.441406 1216.550781 393.117188 1217.804688 401.425781 C 1218.4375 405.605469 1219.738281 409.6875 1220.867188 413.761719 C 1222.238281 418.691406 1223.203125 423.914062 1218.167969 426.722656 C 1217.855469 426.75 1217.542969 426.753906 1217.230469 426.742188 " fill-opacity="1" fill-rule="nonzero"/></g></g></g></g><g clip-path="url(#d726979b63)"><g clip-path="url(#5455c51ac5)"><g clip-path="url(#703f44998d)"><g clip-path="url(#cdaaf11ba1)"><path fill="#261f26" d="M 1210.796875 423.875 C 1207.980469 421.0625 1205.722656 416.5 1204.785156 410.652344 C 1205.722656 416.496094 1207.980469 421.050781 1210.792969 423.867188 C 1212.800781 425.875 1215.089844 426.992188 1217.386719 427.058594 C 1217.332031 426.953125 1217.28125 426.847656 1217.230469 426.742188 C 1217.542969 426.753906 1217.855469 426.75 1218.167969 426.722656 C 1218.046875 426.792969 1217.921875 426.855469 1217.796875 426.921875 C 1217.707031 426.964844 1217.628906 427.019531 1217.558594 427.074219 C 1215.207031 427.058594 1212.851562 425.933594 1210.796875 423.875 M 1209.867188 381.585938 C 1214.355469 371.921875 1220.117188 364.953125 1225.972656 360.566406 C 1225.816406 360.832031 1225.667969 361.101562 1225.523438 361.371094 C 1224.359375 362.28125 1223.242188 363.257812 1222.179688 364.285156 C 1221.371094 365.0625 1220.59375 365.871094 1219.839844 366.703125 C 1219.09375 367.535156 1218.371094 368.394531 1217.671875 369.273438 C 1216.285156 371.039062 1214.996094 372.882812 1213.808594 374.792969 C 1213.753906 374.882812 1213.699219 374.972656 1213.644531 375.0625 C 1213.714844 374.769531 1213.785156 374.480469 1213.863281 374.191406 C 1212.449219 376.453125 1211.109375 378.914062 1209.867188 381.585938 " fill-opacity="1" fill-rule="nonzero"/></g></g></g></g><g clip-path="url(#1c1240dff3)"><g clip-path="url(#40b9eb3afc)"><g clip-path="url(#be3a612aec)"><g clip-path="url(#2a4d29ce27)"><path fill="#261f26" d="M 1204.785156 410.652344 C 1203.5625 403.015625 1204.597656 393.179688 1209.605469 382.160156 C 1209.691406 381.96875 1209.777344 381.777344 1209.867188 381.585938 C 1209.777344 381.777344 1209.691406 381.96875 1209.605469 382.160156 C 1204.601562 393.175781 1203.5625 403.011719 1204.785156 410.652344 " fill-opacity="1" fill-rule="nonzero"/></g></g></g></g><g clip-path="url(#be3199a19f)"><g clip-path="url(#9308f71ff4)"><g clip-path="url(#e46e313e98)"><g clip-path="url(#e5ee3b7796)"><path fill="#5e301c" d="M 1210.898438 423.609375 C 1209.796875 422.503906 1208.863281 421.214844 1208.082031 419.859375 C 1206.957031 417.890625 1206.136719 415.753906 1205.554688 413.5625 C 1204.976562 411.367188 1204.65625 409.109375 1204.519531 406.84375 C 1204.394531 404.582031 1204.4375 402.308594 1204.679688 400.054688 C 1204.917969 397.804688 1205.316406 395.570312 1205.851562 393.375 C 1206.378906 391.175781 1207.054688 389.019531 1207.847656 386.90625 C 1208.644531 384.789062 1209.53125 382.722656 1210.535156 380.699219 C 1211.488281 378.773438 1212.515625 376.886719 1213.644531 375.0625 C 1213.238281 376.714844 1212.898438 378.386719 1212.644531 380.066406 C 1211.496094 387.621094 1207.984375 407.421875 1217.230469 426.742188 C 1216.617188 426.710938 1216.003906 426.609375 1215.410156 426.433594 C 1214.355469 426.125 1213.359375 425.601562 1212.453125 424.945312 C 1211.902344 424.542969 1211.382812 424.09375 1210.898438 423.609375 " fill-opacity="1" fill-rule="nonzero"/></g></g></g></g><g clip-path="url(#1498a92ee8)"><g clip-path="url(#67b80868d8)"><g clip-path="url(#ce2ef9dc79)"><g clip-path="url(#236aa9816b)"><path fill="#241b20" d="M 1210.792969 423.867188 C 1207.980469 421.050781 1205.722656 416.496094 1204.785156 410.652344 C 1203.5625 403.011719 1204.601562 393.175781 1209.605469 382.160156 C 1209.691406 381.96875 1209.777344 381.777344 1209.867188 381.585938 C 1211.109375 378.914062 1212.449219 376.453125 1213.863281 374.191406 C 1213.785156 374.480469 1213.714844 374.769531 1213.644531 375.0625 C 1212.515625 376.886719 1211.488281 378.773438 1210.535156 380.699219 C 1209.53125 382.722656 1208.644531 384.789062 1207.847656 386.90625 C 1207.054688 389.019531 1206.378906 391.175781 1205.851562 393.375 C 1205.316406 395.570312 1204.917969 397.804688 1204.679688 400.054688 C 1204.4375 402.308594 1204.394531 404.582031 1204.519531 406.84375 C 1204.65625 409.109375 1204.976562 411.367188 1205.554688 413.5625 C 1206.136719 415.753906 1206.957031 417.890625 1208.082031 419.859375 C 1208.863281 421.214844 1209.796875 422.503906 1210.898438 423.609375 C 1211.382812 424.09375 1211.902344 424.542969 1212.453125 424.945312 C 1213.359375 425.601562 1214.355469 426.125 1215.410156 426.433594 C 1216.003906 426.609375 1216.617188 426.710938 1217.230469 426.742188 C 1217.28125 426.847656 1217.332031 426.953125 1217.386719 427.058594 C 1215.089844 426.992188 1212.800781 425.875 1210.792969 423.867188 " fill-opacity="1" fill-rule="nonzero"/></g></g></g></g><g clip-path="url(#c4f590795b)"><g clip-path="url(#dee321900c)"><g clip-path="url(#e2f019c8d8)"><g clip-path="url(#3011289b13)"><path fill="#542a19" d="M 1218.980469 426.441406 C 1218.980469 426.441406 1228.011719 419.21875 1228.757812 417.742188 C 1228.945312 417.371094 1229.136719 417 1229.332031 416.617188 C 1229.511719 416.226562 1229.695312 415.824219 1229.878906 415.421875 C 1230.277344 414.628906 1230.597656 413.753906 1230.972656 412.890625 C 1231.695312 411.140625 1232.367188 409.25 1233.027344 407.285156 C 1233.671875 405.308594 1234.300781 403.253906 1234.871094 401.136719 C 1235.457031 399.007812 1236.007812 396.875 1236.539062 394.648438 C 1237.058594 392.425781 1237.574219 390.199219 1238.082031 388.011719 C 1238.605469 385.796875 1239.144531 383.597656 1239.753906 381.464844 C 1240.363281 379.339844 1241.023438 377.273438 1241.808594 375.34375 C 1243.78125 364.828125 1250.550781 362.242188 1250.550781 362.242188 C 1250.550781 362.242188 1253.722656 361.039062 1254.167969 361.484375 C 1254.347656 361.664062 1254.089844 362.105469 1253.015625 362.996094 C 1252.609375 363.355469 1252.066406 363.941406 1251.417969 364.679688 C 1250.777344 365.429688 1250.121094 366.417969 1249.453125 367.566406 C 1248.785156 368.71875 1248.222656 370.113281 1247.683594 371.652344 C 1246.625 374.746094 1245.902344 378.558594 1245.242188 382.769531 C 1244.902344 384.894531 1244.554688 387.089844 1244.199219 389.324219 C 1243.8125 391.578125 1243.425781 393.878906 1242.902344 396.199219 C 1242.425781 398.484375 1241.777344 400.824219 1241.101562 403.070312 C 1240.710938 404.183594 1240.363281 405.296875 1239.953125 406.378906 C 1239.515625 407.460938 1239.101562 408.523438 1238.640625 409.554688 C 1237.699219 411.609375 1236.6875 413.558594 1235.570312 415.320312 C 1235.015625 416.207031 1234.457031 417.050781 1233.855469 417.835938 C 1233.292969 418.636719 1232.675781 419.367188 1232.074219 420.054688 C 1230.882812 421.441406 1229.628906 422.582031 1228.460938 423.503906 C 1227.285156 424.425781 1226.191406 425.128906 1225.214844 425.582031 C 1224.277344 426.074219 1223.449219 426.3125 1222.90625 426.464844 C 1222.363281 426.585938 1218.980469 426.441406 1218.980469 426.441406 " fill-opacity="1" fill-rule="nonzero"/></g></g></g></g><g clip-path="url(#5cd9a815ca)"><g clip-path="url(#86c4f6bf47)"><g clip-path="url(#f963e2487b)"><g clip-path="url(#c57d9ad4c2)"><path fill="#ffffff" d="M 1258.378906 375.921875 C 1260.367188 389.046875 1254.597656 404.667969 1254.597656 404.667969 C 1254.597656 404.667969 1269.753906 371.644531 1253.945312 364.703125 C 1254.300781 366.179688 1257.191406 368.105469 1258.378906 375.921875 " fill-opacity="1" fill-rule="nonzero"/></g></g></g></g><g clip-path="url(#60957f5d3d)"><g clip-path="url(#29545515e1)"><g clip-path="url(#dd00028fd4)"><g clip-path="url(#726d0c2dca)"><path fill="#351f17" d="M 1218.980469 426.441406 C 1218.980469 426.441406 1219.210938 426.257812 1219.648438 425.914062 C 1220.058594 425.558594 1220.621094 425.019531 1221.28125 424.28125 C 1221.609375 423.914062 1221.953125 423.496094 1222.300781 423.011719 C 1222.675781 422.566406 1223.027344 422.023438 1223.414062 421.476562 C 1224.144531 420.332031 1224.925781 419.035156 1225.671875 417.558594 C 1225.859375 417.191406 1226.050781 416.816406 1226.246094 416.433594 C 1226.425781 416.042969 1226.609375 415.644531 1226.796875 415.238281 C 1227.191406 414.449219 1227.507812 413.570312 1227.886719 412.707031 C 1228.605469 410.957031 1229.28125 409.070312 1229.941406 407.105469 C 1230.582031 405.128906 1231.214844 403.074219 1231.785156 400.953125 C 1232.367188 398.824219 1232.921875 396.695312 1233.453125 394.46875 C 1233.96875 392.246094 1234.484375 390.019531 1234.996094 387.828125 C 1235.519531 385.613281 1236.054688 383.417969 1236.667969 381.285156 C 1237.277344 379.15625 1237.9375 377.089844 1238.722656 375.160156 C 1239.496094 373.234375 1240.363281 371.433594 1241.355469 369.871094 C 1242.320312 368.292969 1243.433594 366.976562 1244.492188 365.914062 C 1245.546875 364.84375 1246.648438 364.113281 1247.539062 363.558594 C 1248.457031 363.019531 1249.226562 362.714844 1249.742188 362.515625 C 1250.269531 362.339844 1250.550781 362.242188 1250.550781 362.242188 C 1250.550781 362.242188 1250.335938 362.441406 1249.929688 362.816406 C 1249.523438 363.175781 1248.980469 363.761719 1248.335938 364.496094 C 1247.691406 365.25 1247.03125 366.238281 1246.367188 367.382812 C 1245.699219 368.539062 1245.132812 369.929688 1244.59375 371.46875 C 1243.539062 374.566406 1242.816406 378.378906 1242.15625 382.585938 C 1241.816406 384.710938 1241.46875 386.910156 1241.113281 389.144531 C 1240.726562 391.394531 1240.339844 393.695312 1239.816406 396.015625 C 1239.339844 398.304688 1238.691406 400.644531 1238.015625 402.886719 C 1237.625 404.003906 1237.277344 405.117188 1236.867188 406.199219 C 1236.429688 407.277344 1236.015625 408.339844 1235.554688 409.375 C 1234.609375 411.429688 1233.601562 413.375 1232.484375 415.140625 C 1231.929688 416.023438 1231.371094 416.867188 1230.769531 417.652344 C 1230.207031 418.457031 1229.589844 419.183594 1228.984375 419.875 C 1227.796875 421.261719 1226.542969 422.402344 1225.375 423.324219 C 1224.195312 424.242188 1223.105469 424.945312 1222.128906 425.398438 C 1221.191406 425.894531 1220.363281 426.128906 1219.820312 426.285156 C 1219.277344 426.402344 1218.980469 426.441406 1218.980469 426.441406 " fill-opacity="1" fill-rule="nonzero"/></g></g></g></g><g clip-path="url(#0b5d1586d5)"><g clip-path="url(#6813112c59)"><g clip-path="url(#1c2661367e)"><g clip-path="url(#ff794f98fa)"><path fill="#7b4a25" d="M 1226.902344 429.359375 C 1226.3125 428.769531 1242.53125 417.175781 1245.140625 393.941406 C 1246.46875 382.121094 1250.65625 365.421875 1252.527344 366.105469 C 1252.621094 366.140625 1252.722656 366.210938 1252.832031 366.320312 C 1254.917969 368.40625 1259.605469 383.9375 1253.867188 400.253906 C 1251.21875 407.792969 1244.625 427.1875 1227.042969 429.378906 C 1226.972656 429.386719 1226.925781 429.378906 1226.902344 429.359375 " fill-opacity="1" fill-rule="nonzero"/></g></g></g></g><g clip-path="url(#a564edff86)"><g clip-path="url(#3a8c8396d9)"><g clip-path="url(#912c614340)"><g clip-path="url(#723b088b05)"><path fill="#7b4a25" d="M 1223.792969 414.496094 C 1220.3125 411.015625 1220.277344 387.832031 1221.730469 380.742188 C 1227.472656 352.722656 1245.367188 358.253906 1249.394531 359.722656 C 1249.644531 359.8125 1249.8125 359.902344 1249.902344 359.992188 C 1251.265625 361.359375 1235.507812 363.203125 1232.421875 382.933594 C 1231.246094 390.453125 1228.378906 416.335938 1224.347656 414.867188 C 1224.15625 414.796875 1223.96875 414.671875 1223.792969 414.496094 " fill-opacity="1" fill-rule="nonzero"/></g></g></g></g><g clip-path="url(#137d0efb70)"><g clip-path="url(#5f51693eaf)"><g clip-path="url(#0b0cea3249)"><path fill="#322f30" d="M 498.039062 292.128906 C 503.207031 287.066406 507.476562 274.585938 508.746094 268.882812 C 516.210938 235.332031 500.113281 202.03125 482.808594 174.351562 C 466.261719 147.875 440.101562 106.984375 462.601562 76.675781 C 472.246094 63.679688 488.964844 58.277344 504.351562 56.046875 C 512.859375 54.816406 531.089844 55.050781 531.089844 55.050781 C 531.011719 55.066406 486.746094 64.980469 522.449219 151.695312 C 565.5625 256.398438 498.0625 292.117188 498.039062 292.128906 " fill-opacity="1" fill-rule="nonzero"/></g></g></g><g clip-path="url(#f258c8f356)"><g clip-path="url(#20c6aca251)"><g clip-path="url(#62063a2a7b)"><path fill="#ffae82" d="M 463.148438 204.570312 C 519.996094 282.273438 471.515625 325.457031 471.496094 325.472656 C 474.738281 320.242188 475.730469 309.074219 475.621094 304.105469 C 474.972656 274.886719 454.921875 250.660156 435.015625 231.316406 C 415.976562 212.8125 386.085938 184.367188 398.511719 154.777344 C 403.839844 142.085938 416.546875 134.238281 428.796875 129.273438 C 435.570312 126.523438 450.675781 123.019531 450.675781 123.019531 C 450.605469 123.046875 416.074219 140.222656 463.148438 204.570312 " fill-opacity="1" fill-rule="nonzero"/></g></g></g><g clip-path="url(#a73e77dec4)"><g clip-path="url(#9576dbb919)"><g clip-path="url(#a92684a4d0)"><path fill="#322f30" d="M 192.226562 411.972656 C 203.546875 413.9375 214.667969 412.613281 224.636719 408.691406 C 222.71875 384 223.808594 358.558594 228.273438 332.871094 C 230.128906 322.214844 232.539062 311.820312 235.40625 301.660156 C 228.785156 297.371094 221.203125 294.308594 212.929688 292.871094 C 180.042969 287.152344 148.75 309.179688 143.03125 342.066406 C 137.316406 374.957031 159.339844 406.253906 192.226562 411.972656 Z M 217.519531 266.464844 C 229.125 268.484375 239.777344 272.71875 249.152344 278.636719 C 267.976562 264.660156 307.054688 256.289062 357.125 255.507812 C 357.378906 255.496094 357.390625 255.882812 357.140625 255.90625 C 311.03125 260.246094 280.691406 272.34375 277.449219 291.015625 C 271.121094 327.414062 370.097656 375.019531 498.519531 397.34375 C 591.457031 413.496094 674.339844 411.980469 715.445312 396.117188 C 715.664062 396.03125 715.824219 396.320312 715.632812 396.457031 C 681.917969 420.828125 583.320312 425.886719 470.710938 406.3125 C 395.644531 393.265625 330.140625 372.011719 287.835938 349.125 C 272.613281 496.09375 358.3125 627.375 496.867188 651.460938 C 515.691406 654.730469 534.417969 655.800781 552.820312 654.859375 C 517.722656 664.503906 480.382812 666.769531 442.652344 660.210938 C 330.171875 640.660156 247.292969 548.550781 228.007812 435.875 C 215.332031 439.75 201.59375 440.800781 187.636719 438.375 C 140.171875 430.125 108.375 384.953125 116.628906 337.476562 C 124.878906 290.011719 170.054688 258.214844 217.519531 266.464844 " fill-opacity="1" fill-rule="nonzero"/></g></g></g></svg>